STARTFONT 2.1
COMMENT
COMMENT Converted from OpenType font "c:\windows\fonts\timesbi.ttf" by "otf2bdf 3.0".
COMMENT
FONT -FreeType-Times New Roman-Bold-I-Normal--33-240-100-100-P-184-ISO10646-1
SIZE 24 100 100
FONTBOUNDINGBOX 64 44 -18 -10
STARTPROPERTIES 19
FOUNDRY "FreeType"
FAMILY_NAME "Times New Roman"
WEIGHT_NAME "Bold"
SLANT "I"
SETWIDTH_NAME "Normal"
ADD_STYLE_NAME ""
PIXEL_SIZE 33
POINT_SIZE 240
RESOLUTION_X 100
RESOLUTION_Y 100
SPACING "P"
AVERAGE_WIDTH 184
CHARSET_REGISTRY "ISO10646"
CHARSET_ENCODING "1"
FONT_ASCENT 29
FONT_DESCENT 7
COPYRIGHT "© 2017 The Monotype Corporation. All Rights Reserved.     Hebrew OpenType Layout logic copyright © 2003 & 2007, Ralph Hancock & John Hudson. This layout logic for Biblical Hebrew is open source software under the MIT License; see embedded license description for details."
_OTF_FONTFILE "c:\windows\fonts\timesbi.ttf"
_OTF_PSNAME "TimesNewRomanPS-BoldItalicMT"
ENDPROPERTIES
CHARS 2940
STARTCHAR 0020
ENCODING 32
SWIDTH 240 0
DWIDTH 8 0
BBX 0 0 0 0
BITMAP
ENDCHAR
STARTCHAR 0021
ENCODING 33
SWIDTH 390 0
DWIDTH 13 0
BBX 10 23 2 0
BITMAP
0180
0380
07C0
0780
0780
0780
0700
0700
0F00
0E00
0E00
0C00
0C00
0C00
0800
0800
1000
1000
0000
7000
F800
F800
7000
ENDCHAR
STARTCHAR 0022
ENCODING 34
SWIDTH 540 0
DWIDTH 18 0
BBX 13 11 5 12
BITMAP
3838
7C78
7C78
78F8
78F0
F0F0
F0E0
E0E0
E0C0
C0C0
C080
ENDCHAR
STARTCHAR 0023
ENCODING 35
SWIDTH 510 0
DWIDTH 17 0
BBX 15 23 1 0
BITMAP
030E
070C
060C
060C
060C
061C
0E18
0C18
FFFE
FFFE
0C38
1C30
1830
1830
1830
FFFE
FFFE
3060
3060
3060
30E0
60C0
60C0
ENDCHAR
STARTCHAR 0024
ENCODING 36
SWIDTH 510 0
DWIDTH 17 0
BBX 15 25 1 -2
BITMAP
0010
01F8
072E
0E26
0E22
1E44
1E40
1E40
1FC0
0F80
0FC0
07E0
03F0
01F8
01FC
037C
023C
423C
663C
6438
6478
F4E0
3F80
0800
0800
ENDCHAR
STARTCHAR 0025
ENCODING 37
SWIDTH 810 0
DWIDTH 27 0
BBX 22 24 4 -1
BITMAP
0F0018
398030
718030
71C060
F1C0C0
E3C180
E38300
E38600
C78600
C70C00
CE1800
783000
0060F0
00C398
00C718
01871C
030F1C
060E3C
0C0E38
180E38
180E78
300C70
600EE0
C00780
ENDCHAR
STARTCHAR 0026
ENCODING 38
SWIDTH 780 0
DWIDTH 26 0
BBX 21 23 2 0
BITMAP
000F00
003380
0063C0
00E3C0
00E3C0
00E380
01E380
01E700
01FE00
01F800
00F000
03F1F8
0EF8F0
38F8E0
7878C0
F07D80
F07D00
F03E00
F83F00
F81F08
FC3F88
7FC7F0
3F03C0
ENDCHAR
STARTCHAR 0027
ENCODING 39
SWIDTH 270 0
DWIDTH 9 0
BBX 5 11 5 12
BITMAP
38
78
78
F8
F0
F0
E0
E0
C0
C0
80
ENDCHAR
STARTCHAR 0028
ENCODING 40
SWIDTH 330 0
DWIDTH 11 0
BBX 12 29 2 -7
BITMAP
0010
0060
00C0
0380
0700
0F00
0E00
1E00
3C00
3C00
7800
7800
F800
F000
F000
F000
F000
E000
E000
E000
E000
E000
6000
6000
6000
2000
3000
1000
1000
ENDCHAR
STARTCHAR 0029
ENCODING 41
SWIDTH 330 0
DWIDTH 11 0
BBX 13 29 -4 -7
BITMAP
0080
0040
0040
0060
0060
0030
0030
0030
0038
0078
0078
0078
0078
0078
0078
00F0
00F0
00F0
01E0
01E0
03C0
03C0
0780
0700
0E00
1C00
3800
6000
8000
ENDCHAR
STARTCHAR 002A
ENCODING 42
SWIDTH 510 0
DWIDTH 17 0
BBX 13 12 4 11
BITMAP
0700
0700
0700
0200
6230
F278
FAF8
7FF0
0700
1DC0
39E0
38E0
ENDCHAR
STARTCHAR 002B
ENCODING 43
SWIDTH 570 0
DWIDTH 19 0
BBX 18 18 1 2
BITMAP
00C000
00C000
00C000
00C000
00C000
00C000
00C000
00C000
FFFFC0
FFFFC0
00C000
00C000
00C000
00C000
00C000
00C000
00C000
00C000
ENDCHAR
STARTCHAR 002C
ENCODING 44
SWIDTH 240 0
DWIDTH 8 0
BBX 7 10 -1 -5
BITMAP
1C
3C
7E
3E
1E
1C
18
18
60
C0
ENDCHAR
STARTCHAR 002D
ENCODING 45
SWIDTH 330 0
DWIDTH 11 0
BBX 10 3 0 6
BITMAP
7FC0
7FC0
FFC0
ENDCHAR
STARTCHAR 002E
ENCODING 46
SWIDTH 240 0
DWIDTH 8 0
BBX 5 4 0 0
BITMAP
70
F8
F8
F0
ENDCHAR
STARTCHAR 002F
ENCODING 47
SWIDTH 270 0
DWIDTH 9 0
BBX 15 22 -2 0
BITMAP
0006
000E
000C
0018
0018
0030
0070
0060
00C0
01C0
0180
0300
0700
0600
0C00
1C00
1800
3800
3000
6000
E000
C000
ENDCHAR
STARTCHAR 0030
ENCODING 48
SWIDTH 510 0
DWIDTH 17 0
BBX 14 22 2 0
BITMAP
01F0
0398
071C
0E1C
1E1C
1E1C
3C1C
3C3C
7C3C
783C
787C
F87C
F878
F078
F0F8
F0F0
E0F0
E1E0
E1C0
61C0
6300
3E00
ENDCHAR
STARTCHAR 0031
ENCODING 49
SWIDTH 510 0
DWIDTH 17 0
BBX 14 22 1 0
BITMAP
001C
01F8
07F8
00F8
00F0
00F0
00F0
01E0
01E0
01E0
03E0
03C0
03C0
03C0
0780
0780
0780
0F80
0F00
0F00
1F00
FFE0
ENDCHAR
STARTCHAR 0032
ENCODING 50
SWIDTH 510 0
DWIDTH 17 0
BBX 16 22 0 0
BITMAP
00F8
03FE
07FE
063F
081F
000F
000F
000E
001E
001C
0038
0030
0060
00C0
0180
0300
0604
0C0C
1FF8
3FF8
7FF0
FFF0
ENDCHAR
STARTCHAR 0033
ENCODING 51
SWIDTH 510 0
DWIDTH 17 0
BBX 15 22 0 0
BITMAP
00F8
01FC
023E
041E
000E
001E
001E
0038
01E0
0FE0
03F8
00F8
007C
007C
003C
0038
0038
0078
7070
F8E0
7FC0
3E00
ENDCHAR
STARTCHAR 0034
ENCODING 52
SWIDTH 510 0
DWIDTH 17 0
BBX 15 22 1 0
BITMAP
0006
000E
001E
003E
007C
00FC
00BC
0138
0278
0478
0870
10F0
20F0
40E0
FFFC
FFF8
FFF8
01C0
03C0
03C0
0380
0780
ENDCHAR
STARTCHAR 0035
ENCODING 53
SWIDTH 510 0
DWIDTH 17 0
BBX 15 22 1 0
BITMAP
01FE
01FE
03FE
03FE
0600
0400
0F80
0FE0
1FF0
03F0
01F8
00F8
0078
0078
0038
0038
0030
0070
6060
F8C0
FF80
7E00
ENDCHAR
STARTCHAR 0036
ENCODING 54
SWIDTH 510 0
DWIDTH 17 0
BBX 15 22 2 0
BITMAP
000E
0078
01E0
03C0
0780
0F00
1E00
1E00
3FE0
7CF0
7878
7878
F878
F878
F078
F078
F0F8
F0F0
F0F0
71E0
31C0
1F00
ENDCHAR
STARTCHAR 0037
ENCODING 55
SWIDTH 510 0
DWIDTH 17 0
BBX 14 22 4 0
BITMAP
1FFC
3FFC
3FF8
7FF8
4030
8020
0060
0040
00C0
0180
0100
0300
0600
0600
0C00
0800
1800
3000
3000
6000
4000
4000
ENDCHAR
STARTCHAR 0038
ENCODING 56
SWIDTH 510 0
DWIDTH 17 0
BBX 15 22 1 0
BITMAP
01F0
039C
071E
0F0E
0F0E
0F0E
0F1E
0F9C
0FB8
07E0
03E0
0DF0
39F8
78F8
7078
F078
F078
F078
F078
70F0
39E0
1F80
ENDCHAR
STARTCHAR 0039
ENCODING 57
SWIDTH 510 0
DWIDTH 17 0
BBX 15 22 1 0
BITMAP
01F0
079C
0F0C
0E0E
1E1E
1E1E
3C1E
3C1E
3C3E
3C3E
3C3E
3E7C
1FFC
0F78
00F8
00F0
01E0
03C0
0780
0F00
3C00
E000
ENDCHAR
STARTCHAR 003A
ENCODING 58
SWIDTH 330 0
DWIDTH 11 0
BBX 8 15 1 0
BITMAP
0F
1F
1F
0F
00
00
00
00
00
00
00
78
FC
FC
78
ENDCHAR
STARTCHAR 003B
ENCODING 59
SWIDTH 330 0
DWIDTH 11 0
BBX 10 20 0 -5
BITMAP
0780
0FC0
0FC0
0780
0000
0000
0000
0000
0000
0000
3C00
3C00
7E00
3E00
1C00
1C00
1800
3800
6000
C000
ENDCHAR
STARTCHAR 003C
ENCODING 60
SWIDTH 570 0
DWIDTH 19 0
BBX 18 15 1 3
BITMAP
000040
0003C0
000F80
007C00
01F000
0F8000
3E0000
F00000
3E0000
0F8000
01F000
007C00
000F80
0003C0
000040
ENDCHAR
STARTCHAR 003D
ENCODING 61
SWIDTH 570 0
DWIDTH 19 0
BBX 18 7 1 8
BITMAP
FFFFC0
FFFFC0
000000
000000
000000
FFFFC0
FFFFC0
ENDCHAR
STARTCHAR 003E
ENCODING 62
SWIDTH 570 0
DWIDTH 19 0
BBX 18 15 1 3
BITMAP
C00000
F00000
7E0000
0F8000
03F000
007C00
001F80
0003C0
001F80
007C00
03F000
0F8000
7E0000
F00000
C00000
ENDCHAR
STARTCHAR 003F
ENCODING 63
SWIDTH 510 0
DWIDTH 17 0
BBX 13 23 3 0
BITMAP
0FC0
18E0
3870
3C70
7C78
3C78
38F8
00F0
01F0
03E0
03C0
0780
0E00
0C00
1800
1000
1000
2000
0000
7000
F800
F800
7000
ENDCHAR
STARTCHAR 0040
ENCODING 64
SWIDTH 810 0
DWIDTH 27 0
BBX 28 30 0 -7
BITMAP
001FE000
00F01C00
01800600
07000100
0C000080
180000C0
18000040
30000040
60077820
601CF820
6038F820
C078F020
C0F0F020
C0F0F020
C1E1E020
C1E1E040
C1E1E040
C3C3E040
C3C7C080
C3EFC100
43FBC210
61F3C410
61E1F820
30000060
10000040
18000080
0C000300
03000600
01C03800
003FC000
ENDCHAR
STARTCHAR 0041
ENCODING 65
SWIDTH 660 0
DWIDTH 22 0
BBX 22 23 -2 0
BITMAP
000008
000018
000038
000078
0000F0
0001F0
0001F0
0002F0
0006F0
000CF0
0018F0
0010F0
0031F0
0061F0
00C1F0
01FFF0
0101F0
0201F0
0601F0
0C01F0
1801F0
3803F8
FE0FFC
ENDCHAR
STARTCHAR 0042
ENCODING 66
SWIDTH 660 0
DWIDTH 22 0
BBX 22 22 -1 0
BITMAP
03FFE0
00F8F8
00F87C
00F87C
00F87C
00F07C
01F07C
01F0F8
01E1F0
01E3C0
03FE00
03E3C0
03C1E0
07C1F0
07C1F0
0781F8
0781F0
0F81F0
0F83F0
0F03E0
1F0FC0
FFFE00
ENDCHAR
STARTCHAR 0043
ENCODING 67
SWIDTH 660 0
DWIDTH 22 0
BBX 22 22 2 0
BITMAP
001FEC
00F878
01E038
07C018
0F8018
1F0018
3F0010
3E0000
7E0000
7C0000
7C0000
FC0000
FC0000
F80000
F80000
F80000
7C0040
7C0080
3E0100
3F0600
0FFC00
03F000
ENDCHAR
STARTCHAR 0044
ENCODING 68
SWIDTH 720 0
DWIDTH 24 0
BBX 24 22 -1 0
BITMAP
07FFC0
00F8F0
00F87C
00F83C
00F03E
01F01F
01F01F
01F01F
01E01F
03E01F
03E01F
03E03F
07C03F
07C03E
07C03E
07807C
0F8078
0F80F8
0F81F0
1F03C0
3F8780
FFFC00
ENDCHAR
STARTCHAR 0045
ENCODING 69
SWIDTH 660 0
DWIDTH 22 0
BBX 23 22 -1 0
BITMAP
03FFFE
00F81E
00F806
00F804
00F804
01F000
01F020
01F020
01E040
03E1C0
03FFC0
03E180
07C080
07C080
07C080
078000
0F8008
0F8010
0F8030
1F00E0
3F03E0
FFFFE0
ENDCHAR
STARTCHAR 0046
ENCODING 70
SWIDTH 660 0
DWIDTH 22 0
BBX 24 22 0 0
BITMAP
03FFFF
00F80E
00F806
00F802
00F802
00F000
01F020
01F040
01F040
03E1C0
03FFC0
03E180
07C080
07C080
07C100
078000
0F8000
0F8000
0F0000
1F0000
3F8000
FFE000
ENDCHAR
STARTCHAR 0047
ENCODING 71
SWIDTH 720 0
DWIDTH 24 0
BBX 23 22 2 0
BITMAP
001FF6
00F83C
01E01C
07C00C
0F800C
1F0008
3F0008
3E0000
7E0000
7C0000
FC0000
FC0FFC
FC03F0
F803E0
F803E0
7803E0
7C07C0
7C07C0
3C07C0
1E07C0
0F0F80
03FF80
ENDCHAR
STARTCHAR 0048
ENCODING 72
SWIDTH 780 0
DWIDTH 26 0
BBX 29 22 -1 0
BITMAP
03FF3FF8
00FC07E0
00F807C0
00F807C0
00F80F80
01F00F80
01F00F80
01F00F00
01E01F00
03E01F00
03FFFF00
03C03E00
07C03E00
07C03E00
07807C00
0F807C00
0F807C00
0F807800
0F00F800
1F00F800
3F81F800
FFE7FE00
ENDCHAR
STARTCHAR 0049
ENCODING 73
SWIDTH 390 0
DWIDTH 13 0
BBX 16 22 -1 0
BITMAP
03FF
00FC
00F8
00F8
00F0
01F0
01F0
01F0
03E0
03E0
03E0
03E0
07C0
07C0
07C0
0F80
0F80
0F80
0F80
1F00
3F80
FFE0
ENDCHAR
STARTCHAR 004A
ENCODING 74
SWIDTH 510 0
DWIDTH 17 0
BBX 20 22 0 0
BITMAP
007FF0
001F80
001F00
001F00
001F00
001E00
003E00
003E00
003E00
007C00
007C00
007C00
00F800
00F800
00F800
00F000
61F000
F1F000
F1E000
E3C000
E78000
7E0000
ENDCHAR
STARTCHAR 004B
ENCODING 75
SWIDTH 660 0
DWIDTH 22 0
BBX 26 22 -1 0
BITMAP
03FF7FC0
00FC3E00
00F81800
00F83000
00F84000
01F08000
01F10000
01F20000
01EE0000
03FF0000
03FF0000
03FF0000
07CF8000
07CF8000
07CF8000
07878000
0F87C000
0F87C000
0F03E000
1F03E000
3F87F000
FFEFF800
ENDCHAR
STARTCHAR 004C
ENCODING 76
SWIDTH 600 0
DWIDTH 20 0
BBX 20 22 -1 0
BITMAP
03FF00
00FC00
00F800
00F800
00F800
01F000
01F000
01F000
01E000
03E000
03E000
03E000
07C000
07C000
07C000
0F8000
0F8010
0F8020
0F8060
1F01C0
3F07C0
FFFFC0
ENDCHAR
STARTCHAR 004D
ENCODING 77
SWIDTH 870 0
DWIDTH 29 0
BBX 33 22 -1 0
BITMAP
03FC007F80
00FC007E00
00FC00FC00
00FC01F800
00FC01F800
00FC02F800
013C06F800
013C05F000
013C09F000
033C19F000
023E13E000
023E23E000
063E63E000
043E43C000
043E87C000
041F07C000
0C1F07C000
081E0F8000
081C0F8000
181C0F8000
38181F8000
FE10FFE000
ENDCHAR
STARTCHAR 004E
ENCODING 78
SWIDTH 720 0
DWIDTH 24 0
BBX 28 22 -1 0
BITMAP
07F807F0
01F803C0
00FC0180
00FC0100
00BE0100
01BE0300
011F0200
011F0200
030F0200
030F8400
02078400
0207C400
0607CC00
0403E800
0403E800
0C01F800
0801F000
0800F000
1800F000
18006000
38006000
FE002000
ENDCHAR
STARTCHAR 004F
ENCODING 79
SWIDTH 720 0
DWIDTH 24 0
BBX 22 23 2 0
BITMAP
001F80
0061E0
01C0F0
0380F8
0F80F8
0F0078
1F00FC
3E00FC
3E00FC
7C00FC
7C00F8
FC00F8
FC01F8
F801F0
F801F0
F803E0
F803E0
F807C0
F80780
780F00
781E00
3C3800
0FE000
ENDCHAR
STARTCHAR 0050
ENCODING 80
SWIDTH 600 0
DWIDTH 20 0
BBX 22 22 -1 0
BITMAP
03FFE0
00F8F8
00F87C
00F87C
00F07C
01F07C
01F07C
01F07C
01E0F8
03E1F0
03E3E0
03FF80
07C000
07C000
07C000
078000
0F8000
0F8000
0F0000
1F0000
1F8000
FFE000
ENDCHAR
STARTCHAR 0051
ENCODING 81
SWIDTH 720 0
DWIDTH 24 0
BBX 22 29 2 -6
BITMAP
001F80
0061E0
01C0F0
0780F8
0F80F8
0F0078
1F00FC
3E00FC
3E00FC
7C00FC
7C00F8
FC00F8
FC01F8
F801F0
F801F0
F803E0
F803E0
F807C0
F80780
780F00
781E00
3C3800
0FE000
060000
0C0000
1FF010
7FFFE0
FFFFC0
01FE00
ENDCHAR
STARTCHAR 0052
ENCODING 82
SWIDTH 660 0
DWIDTH 22 0
BBX 22 22 -1 0
BITMAP
03FFE0
00F8F8
00F878
00F87C
00F07C
01F07C
01F07C
01E0F8
03E1F0
03E3E0
03FF00
03CF00
07CF80
07CF80
078780
0F87C0
0F87C0
0F87C0
0F03C0
1F03E0
3F83F0
FFE3F8
ENDCHAR
STARTCHAR 0053
ENCODING 83
SWIDTH 540 0
DWIDTH 18 0
BBX 20 23 -1 0
BITMAP
007E10
00F1F0
01E0F0
03C060
03C060
07C020
07C020
07E020
03F000
03F800
01F800
00FC00
007E00
007F00
003F80
201F80
200F80
200F80
700F80
700F00
780F00
7C3E00
83F000
ENDCHAR
STARTCHAR 0054
ENCODING 84
SWIDTH 600 0
DWIDTH 20 0
BBX 20 22 3 0
BITMAP
3FFFF0
3CF8E0
30F860
60F860
41F020
81F040
01F000
01E000
03E000
03E000
03E000
07C000
07C000
07C000
078000
0F8000
0F8000
0F8000
1F0000
1F0000
3F0000
FFE000
ENDCHAR
STARTCHAR 0055
ENCODING 85
SWIDTH 720 0
DWIDTH 24 0
BBX 24 22 3 0
BITMAP
7FF0FF
1FC03C
0F8018
0F8010
1F0010
1F0030
1F0020
1E0020
3E0060
3E0040
3C0040
7C00C0
7C0080
780080
F80080
F80100
F80100
F80300
F80600
7E0C00
3FF800
0FE000
ENDCHAR
STARTCHAR 0056
ENCODING 86
SWIDTH 660 0
DWIDTH 22 0
BBX 22 22 4 0
BITMAP
FF81FC
7F0070
3E0060
3E0040
3E0080
3E0100
3E0200
3E0600
3C0C00
3C0800
3C1000
3C2000
3C4000
7C8000
7D0000
7D0000
7E0000
7C0000
780000
700000
600000
400000
ENDCHAR
STARTCHAR 0057
ENCODING 87
SWIDTH 870 0
DWIDTH 29 0
BBX 29 22 4 0
BITMAP
FF9FF1F8
7E0FC0F0
3E0F8060
3C0F8040
3C0F8080
3C0F8180
3C0F8300
3C1F8600
7C3F8400
7C2F8C00
7C4F9800
7C8F1000
7D8F2000
7D0F4000
7E0FC000
7C1F8000
7C1F0000
781E0000
701E0000
601C0000
C0180000
C0100000
ENDCHAR
STARTCHAR 0058
ENCODING 88
SWIDTH 660 0
DWIDTH 22 0
BBX 27 22 -2 0
BITMAP
07FE0FE0
01F80780
00F80700
00F80600
007C0C00
007C1000
003E2000
003E4000
001F8000
001F0000
001F0000
000F8000
001F8000
0037C000
0067C000
0083C000
0103E000
0203E000
0401F000
1C01F000
3C01F800
FF07FE00
ENDCHAR
STARTCHAR 0059
ENCODING 89
SWIDTH 600 0
DWIDTH 20 0
BBX 21 22 3 0
BITMAP
7FF3F8
3F81E0
1F80C0
0F8080
0F8100
0F8300
0F8200
078400
07CC00
07C800
07D000
03E000
03E000
07C000
07C000
07C000
078000
0F8000
0F8000
0F8000
1F8000
FFE000
ENDCHAR
STARTCHAR 005A
ENCODING 90
SWIDTH 600 0
DWIDTH 20 0
BBX 23 22 -1 0
BITMAP
01FFFE
03C0FE
0300FC
0201F8
0403F0
0007E0
000FC0
001FC0
001F80
003F00
007E00
00FC00
01FC00
01F800
03F000
07E000
0FC020
1FC060
1F80C0
3F01C0
7E0FC0
FFFF80
ENDCHAR
STARTCHAR 005B
ENCODING 91
SWIDTH 330 0
DWIDTH 11 0
BBX 15 29 -1 -7
BITMAP
00FE
00F0
01E0
01E0
01E0
01C0
03C0
03C0
03C0
0780
0780
0780
0700
0F00
0F00
0F00
0E00
1E00
1E00
1C00
3C00
3C00
3C00
3800
7800
7800
7000
F800
FE00
ENDCHAR
STARTCHAR 005C
ENCODING 92
SWIDTH 270 0
DWIDTH 9 0
BBX 4 22 3 0
BITMAP
C0
C0
C0
C0
C0
C0
C0
C0
C0
40
60
60
60
60
60
60
60
60
60
60
30
30
ENDCHAR
STARTCHAR 005D
ENCODING 93
SWIDTH 330 0
DWIDTH 11 0
BBX 15 29 -4 -7
BITMAP
00FE
001E
001E
001C
003C
003C
003C
0078
0078
0078
0078
00F0
00F0
00F0
01E0
01E0
01E0
01E0
03C0
03C0
03C0
0780
0780
0780
0780
0F00
0F00
1F00
FE00
ENDCHAR
STARTCHAR 005E
ENCODING 94
SWIDTH 570 0
DWIDTH 19 0
BBX 14 12 4 10
BITMAP
0300
0700
0780
0F80
1DC0
1DC0
38E0
3060
7070
6030
E038
C01C
ENDCHAR
STARTCHAR 005F
ENCODING 95
SWIDTH 510 0
DWIDTH 17 0
BBX 17 2 -3 -7
BITMAP
FFFF80
FFFF80
ENDCHAR
STARTCHAR 0060
ENCODING 96
SWIDTH 330 0
DWIDTH 11 0
BBX 6 6 4 16
BITMAP
F8
78
38
1C
0C
04
ENDCHAR
STARTCHAR 0061
ENCODING 97
SWIDTH 510 0
DWIDTH 17 0
BBX 15 15 1 0
BITMAP
03DE
065C
1E3C
1C3C
3C3C
7878
7878
F878
F0F0
F0F0
F1F0
F2F4
F3EC
FDF8
70E0
ENDCHAR
STARTCHAR 0062
ENCODING 98
SWIDTH 510 0
DWIDTH 17 0
BBX 15 23 0 0
BITMAP
01C0
0FC0
07C0
0380
0780
0780
0780
0F00
0F3C
0FFE
0F1E
1E1E
1E1E
1E1E
3C1E
3C1E
3C1E
383C
783C
7878
78F0
F1E0
3F80
ENDCHAR
STARTCHAR 0063
ENCODING 99
SWIDTH 450 0
DWIDTH 15 0
BBX 13 15 1 0
BITMAP
01F0
0718
0E38
1C78
3830
7800
7800
F000
F000
F000
F000
F010
F860
7FC0
3E00
ENDCHAR
STARTCHAR 0064
ENCODING 100
SWIDTH 510 0
DWIDTH 17 0
BBX 17 23 1 0
BITMAP
000780
001F80
000F00
000F00
000F00
000E00
001E00
001E00
03DE00
073C00
1E3C00
1C3C00
3C3800
787800
787800
F87800
F0F000
F0F000
F1F000
F2E400
F5EC00
FDF800
70E000
ENDCHAR
STARTCHAR 0065
ENCODING 101
SWIDTH 450 0
DWIDTH 15 0
BBX 14 15 1 0
BITMAP
00F8
0338
0E3C
1C38
3C78
7870
78E0
F3C0
FE00
F000
F000
F010
F860
7FC0
3E00
ENDCHAR
STARTCHAR 0066
ENCODING 102
SWIDTH 330 0
DWIDTH 11 0
BBX 22 30 -5 -7
BITMAP
0000F8
00039C
00079C
000F18
000E00
001E00
001E00
003C00
00FF00
01FF00
007C00
007800
007800
007800
00F800
00F000
00F000
00F000
01F000
01E000
01E000
01E000
03C000
03C000
03C000
038000
E78000
E70000
EE0000
780000
ENDCHAR
STARTCHAR 0067
ENCODING 103
SWIDTH 510 0
DWIDTH 17 0
BBX 19 22 -2 -7
BITMAP
00FC00
03C7E0
0787E0
0F8780
0F0780
0F0F80
0F0F00
0F1F00
071E00
03F800
060000
0C0000
1F8000
1FF800
0FFC00
1FFE00
707E00
E01E00
E00E00
701C00
783800
1FE000
ENDCHAR
STARTCHAR 0068
ENCODING 104
SWIDTH 540 0
DWIDTH 18 0
BBX 15 23 1 0
BITMAP
03C0
1F80
0780
0780
0780
0F00
0F00
0F00
0E1E
1E3E
1E7E
1EDE
3D9E
3D1E
3E3C
3C3C
7C3C
7878
7878
F07A
F07A
F0FC
F070
ENDCHAR
STARTCHAR 0069
ENCODING 105
SWIDTH 270 0
DWIDTH 9 0
BBX 9 23 1 0
BITMAP
0700
0F80
0F80
0700
0000
0000
0000
0000
0E00
7E00
3E00
3C00
3C00
3C00
3C00
7800
7800
7800
F000
F200
F400
F800
F000
ENDCHAR
STARTCHAR 006A
ENCODING 106
SWIDTH 270 0
DWIDTH 9 0
BBX 15 30 -5 -7
BITMAP
001C
003E
003E
001C
0000
0000
0000
0000
003C
01F8
0078
0078
0078
00F0
00F0
00F0
01E0
01E0
01E0
01E0
03C0
03C0
03C0
03C0
0780
0780
E700
EF00
CE00
7800
ENDCHAR
STARTCHAR 006B
ENCODING 107
SWIDTH 510 0
DWIDTH 17 0
BBX 17 23 0 0
BITMAP
01E000
0FC000
03C000
03C000
07C000
078000
078000
078000
0F3F80
0F0E00
0F0C00
1F1000
1E2000
1E6000
1EE000
3DF000
3EF000
3CF000
7CF200
787A00
787C00
787800
F03000
ENDCHAR
STARTCHAR 006C
ENCODING 108
SWIDTH 270 0
DWIDTH 9 0
BBX 10 23 0 0
BITMAP
01C0
0FC0
07C0
0780
0780
0780
0780
0F00
0F00
0F00
1E00
1E00
1E00
1E00
3C00
3C00
3C00
7800
7800
7900
7A00
FC00
7800
ENDCHAR
STARTCHAR 006D
ENCODING 109
SWIDTH 780 0
DWIDTH 26 0
BBX 24 15 0 0
BITMAP
078E0E
3F1F1F
0F3F3F
0F5F5F
1E9E9E
1E9E9E
1F1F1E
1E3E3C
3E3E3C
3C3C3C
3C3C7C
787879
78787A
78787C
F8F878
ENDCHAR
STARTCHAR 006E
ENCODING 110
SWIDTH 540 0
DWIDTH 18 0
BBX 16 15 1 0
BITMAP
0F0E
7E3E
1E7E
1EDE
3F9E
3D1E
3E3C
3C3C
7C3C
787C
7878
F879
F07A
F07C
F078
ENDCHAR
STARTCHAR 006F
ENCODING 111
SWIDTH 510 0
DWIDTH 17 0
BBX 15 15 1 0
BITMAP
01F0
0738
0E1C
1C3C
3C3E
783C
783C
F83C
F07C
F078
F0F0
F0F0
F1E0
7180
3E00
ENDCHAR
STARTCHAR 0070
ENCODING 112
SWIDTH 510 0
DWIDTH 17 0
BBX 20 22 -4 -7
BITMAP
0073C0
03F7E0
01F9E0
01E1F0
01E1F0
01E1F0
01C1E0
03C1E0
03C1E0
0383C0
0783C0
078780
078700
0F8E00
0F7800
0F0000
0E0000
1E0000
1E0000
1E0000
3E0000
FF8000
ENDCHAR
STARTCHAR 0071
ENCODING 113
SWIDTH 510 0
DWIDTH 17 0
BBX 15 22 1 -7
BITMAP
03DE
065E
1E3C
1C3C
3C3C
7838
7878
F878
F0F8
F0F0
F1F0
F2F0
F3E0
FDE0
71E0
01C0
03C0
03C0
03C0
0780
07C0
1FE0
ENDCHAR
STARTCHAR 0072
ENCODING 114
SWIDTH 390 0
DWIDTH 13 0
BBX 12 15 1 0
BITMAP
1E70
7CF0
3CF0
3DF0
3D60
3A00
3A00
7C00
7C00
7800
7800
F000
F000
F000
F000
ENDCHAR
STARTCHAR 0073
ENCODING 115
SWIDTH 390 0
DWIDTH 13 0
BBX 12 15 0 0
BITMAP
07D0
1C70
1C30
3C10
3E10
1F00
1F80
0FC0
07C0
03E0
81E0
41C0
C1C0
F180
9F00
ENDCHAR
STARTCHAR 0074
ENCODING 116
SWIDTH 270 0
DWIDTH 9 0
BBX 9 19 1 0
BITMAP
0100
0300
0700
0E00
3F80
7F80
3E00
3C00
3C00
3C00
7800
7800
7800
F800
F000
F200
F400
F800
F000
ENDCHAR
STARTCHAR 0075
ENCODING 117
SWIDTH 540 0
DWIDTH 18 0
BBX 16 15 1 0
BITMAP
0F0F
7E0F
1E1E
1E1E
3C1E
3C3E
3C3C
3C7C
78FC
78F8
7978
F27A
FCFA
F8FC
7070
ENDCHAR
STARTCHAR 0076
ENCODING 118
SWIDTH 450 0
DWIDTH 15 0
BBX 14 15 1 0
BITMAP
3838
FC38
3C3C
3C38
3C18
3E18
1E10
1E20
1E60
1E40
1E80
1F00
1E00
1800
1000
ENDCHAR
STARTCHAR 0077
ENCODING 119
SWIDTH 660 0
DWIDTH 22 0
BBX 21 15 1 0
BITMAP
1C0830
FC1878
3C1878
3C3C78
3C7C30
3C7C30
3CBC20
3D3C20
3E3C40
3E3C80
3C3D00
383E00
383C00
301800
201000
ENDCHAR
STARTCHAR 0078
ENCODING 120
SWIDTH 510 0
DWIDTH 17 0
BBX 18 15 -1 0
BITMAP
070380
3F87C0
078FC0
07D980
03D000
03E000
01E000
01E000
01E000
01F000
02F000
E4F100
F87900
F07E00
E03800
ENDCHAR
STARTCHAR 0079
ENCODING 121
SWIDTH 450 0
DWIDTH 15 0
BBX 18 22 -3 -7
BITMAP
038380
0FC780
03C7C0
03C380
03C180
03C180
03C100
03C300
01C200
01E400
01E400
01E800
01F000
01F000
01E000
01C000
018000
010000
610000
F20000
FC0000
700000
ENDCHAR
STARTCHAR 007A
ENCODING 122
SWIDTH 390 0
DWIDTH 13 0
BBX 13 18 0 -3
BITMAP
1FF8
1FF0
3FE0
3FC0
2080
0080
0100
0200
0400
0800
1000
1800
3C60
7CF0
FCF0
1EF0
0EE0
03C0
ENDCHAR
STARTCHAR 007B
ENCODING 123
SWIDTH 330 0
DWIDTH 11 0
BBX 14 30 1 -7
BITMAP
001C
0070
00E0
01C0
03C0
03C0
0380
0380
0380
0780
0780
0700
0E00
1800
6000
3000
1800
1C00
1C00
1C00
3C00
3C00
7800
7800
7000
F000
F000
7000
7800
1C00
ENDCHAR
STARTCHAR 007C
ENCODING 124
SWIDTH 210 0
DWIDTH 7 0
BBX 2 30 3 -7
BITMAP
C0
C0
C0
C0
C0
C0
C0
C0
C0
C0
C0
C0
C0
C0
C0
C0
C0
C0
C0
C0
C0
C0
C0
C0
C0
C0
C0
C0
C0
C0
ENDCHAR
STARTCHAR 007D
ENCODING 125
SWIDTH 330 0
DWIDTH 11 0
BBX 14 30 -3 -7
BITMAP
00E0
0078
0038
0038
003C
0038
0078
0078
00F0
00F0
00E0
00E0
00E0
00E0
0030
0008
0070
01C0
0380
0780
0780
0700
0700
0F00
0F00
0F00
0E00
1C00
3800
E000
ENDCHAR
STARTCHAR 007E
ENCODING 126
SWIDTH 570 0
DWIDTH 19 0
BBX 17 4 1 7
BITMAP
3E0080
FFE180
C3FF00
803E00
ENDCHAR
STARTCHAR 00A0
ENCODING 160
SWIDTH 240 0
DWIDTH 8 0
BBX 0 0 0 0
BITMAP
ENDCHAR
STARTCHAR 00A1
ENCODING 161
SWIDTH 390 0
DWIDTH 13 0
BBX 9 22 1 -7
BITMAP
0700
0F80
0F80
0780
0000
0400
0400
0800
0800
0800
1800
1800
3800
3800
7800
7800
7000
F000
F000
F000
F000
E000
ENDCHAR
STARTCHAR 00A2
ENCODING 162
SWIDTH 510 0
DWIDTH 17 0
BBX 13 27 2 -6
BITMAP
0020
0020
0060
0040
0040
00C0
01F0
0798
1EB8
1D78
3930
7900
7200
F200
F200
F600
F400
F410
FC60
7FC0
3F00
0800
1000
1000
1000
3000
2000
ENDCHAR
STARTCHAR 00A3
ENCODING 163
SWIDTH 510 0
DWIDTH 17 0
BBX 16 22 1 0
BITMAP
003E
00E7
01E7
01C7
03C0
03C0
07C0
07C0
0780
0780
3FF0
3FF0
0F00
0F00
0E00
0E00
3E00
7F00
FFC4
9FF8
9FF8
71E0
ENDCHAR
STARTCHAR 00A4
ENCODING 164
SWIDTH 510 0
DWIDTH 17 0
BBX 16 16 1 3
BITMAP
4002
E7E7
7FFE
3C3C
301C
600E
6006
6006
6006
6006
600E
301C
3C3C
7FFE
E7E7
4002
ENDCHAR
STARTCHAR 00A5
ENCODING 165
SWIDTH 510 0
DWIDTH 17 0
BBX 20 22 0 0
BITMAP
1FF1F0
07C0E0
07C0C0
07C080
03C180
03C300
03C200
03C600
03E400
01E800
01F800
7FFFC0
01E000
01E000
03E000
FFFF80
03C000
07C000
078000
078000
0FC000
7FF000
ENDCHAR
STARTCHAR 00A6
ENCODING 166
SWIDTH 210 0
DWIDTH 7 0
BBX 2 30 3 -7
BITMAP
C0
C0
C0
C0
C0
C0
C0
C0
C0
C0
C0
C0
00
00
00
00
00
00
C0
C0
C0
C0
C0
C0
C0
C0
C0
C0
C0
C0
ENDCHAR
STARTCHAR 00A7
ENCODING 167
SWIDTH 510 0
DWIDTH 17 0
BBX 17 30 0 -7
BITMAP
007C00
01C700
038380
030380
070380
070380
078380
07C000
03E000
07F000
0DF800
18FC00
187E00
383E00
381E00
380E00
3C0E00
3E0600
1F0C00
1F8C00
0FD800
07F000
01E000
E0F000
E0F000
E07000
E07000
E0E000
71C000
1F0000
ENDCHAR
STARTCHAR 00A8
ENCODING 168
SWIDTH 330 0
DWIDTH 11 0
BBX 10 4 3 17
BITMAP
6180
F3C0
F3C0
7180
ENDCHAR
STARTCHAR 00A9
ENCODING 169
SWIDTH 750 0
DWIDTH 25 0
BBX 23 23 2 0
BITMAP
00FC00
030380
0C00C0
180020
307C90
61C398
438188
C7808C
C70004
8F0004
8F0006
8F0006
8F0006
8F0004
C70004
C7000C
43810C
61C318
30FC10
180020
0C00C0
030380
00FC00
ENDCHAR
STARTCHAR 00AA
ENCODING 170
SWIDTH 270 0
DWIDTH 9 0
BBX 10 9 2 13
BITMAP
0FC0
19C0
3180
7380
6380
E700
E740
FF80
6700
ENDCHAR
STARTCHAR 00AB
ENCODING 171
SWIDTH 510 0
DWIDTH 17 0
BBX 15 15 1 0
BITMAP
0102
0304
060C
0E18
1C38
3870
78F0
F1E0
70E0
78E0
3870
3870
1830
0830
0810
ENDCHAR
STARTCHAR 00AC
ENCODING 172
SWIDTH 600 0
DWIDTH 20 0
BBX 18 7 1 8
BITMAP
FFFFC0
FFFFC0
0000C0
0000C0
0000C0
0000C0
0000C0
ENDCHAR
STARTCHAR 00AD
ENCODING 173
SWIDTH 330 0
DWIDTH 11 0
BBX 10 3 0 6
BITMAP
7FC0
7FC0
FFC0
ENDCHAR
STARTCHAR 00AE
ENCODING 174
SWIDTH 750 0
DWIDTH 25 0
BBX 23 23 2 0
BITMAP
00FC00
030380
0C00C0
180020
300010
67FE18
43CF08
C3C70C
C1C784
81C784
81CF06
81FE06
81DC06
81DE04
C3CE04
C3CF0C
43C70C
67F7D8
300010
180020
0C00C0
030380
00FC00
ENDCHAR
STARTCHAR 00AF
ENCODING 175
SWIDTH 510 0
DWIDTH 17 0
BBX 17 2 4 24
BITMAP
FFFF80
FFFF80
ENDCHAR
STARTCHAR 00B0
ENCODING 176
SWIDTH 390 0
DWIDTH 13 0
BBX 11 11 3 11
BITMAP
1F00
3F80
71C0
E0E0
C060
C060
C060
E0E0
71C0
3F80
1F00
ENDCHAR
STARTCHAR 00B1
ENCODING 177
SWIDTH 540 0
DWIDTH 18 0
BBX 18 18 0 2
BITMAP
00C000
00C000
00C000
00C000
00C000
00C000
00C000
00C000
FFFFC0
FFFFC0
00C000
00C000
00C000
00C000
00C000
00C000
FFFFC0
FFFFC0
ENDCHAR
STARTCHAR 00B2
ENCODING 178
SWIDTH 300 0
DWIDTH 10 0
BBX 9 12 2 11
BITMAP
0F00
1F80
2380
0380
0380
0300
0600
0C00
1800
3100
7F00
FE00
ENDCHAR
STARTCHAR 00B3
ENCODING 179
SWIDTH 300 0
DWIDTH 10 0
BBX 9 12 2 11
BITMAP
0F00
1380
0380
0380
0700
3E00
0F00
0700
0700
0600
C600
F800
ENDCHAR
STARTCHAR 00B4
ENCODING 180
SWIDTH 330 0
DWIDTH 11 0
BBX 6 6 7 16
BITMAP
7C
78
70
E0
C0
80
ENDCHAR
STARTCHAR 00B5
ENCODING 181
SWIDTH 570 0
DWIDTH 19 0
BBX 19 22 -2 -7
BITMAP
01E1E0
01E1E0
03C1E0
03C3E0
03C3C0
07C3C0
0783C0
0787C0
078780
0F8780
0F0F80
0F0F00
0F1F20
1F2F20
17C7C0
300000
300000
700000
700000
F00000
E00000
E00000
ENDCHAR
STARTCHAR 00B6
ENCODING 182
SWIDTH 510 0
DWIDTH 17 0
BBX 18 29 -1 -7
BITMAP
07FFC0
1FE300
3FE200
7FE200
7FE200
7FE200
FFE200
FFE200
FFE200
7FE200
7FE200
7FE200
3FE200
1FE200
03E200
006200
006200
006200
006200
006200
006200
006200
006200
006200
006200
006200
006200
006200
006200
ENDCHAR
STARTCHAR 00B7
ENCODING 183
SWIDTH 240 0
DWIDTH 8 0
BBX 5 4 3 8
BITMAP
F0
F8
F8
F0
ENDCHAR
STARTCHAR 00B8
ENCODING 184
SWIDTH 330 0
DWIDTH 11 0
BBX 8 6 0 -6
BITMAP
08
3C
0E
0F
0E
FC
ENDCHAR
STARTCHAR 00B9
ENCODING 185
SWIDTH 300 0
DWIDTH 10 0
BBX 8 12 2 11
BITMAP
03
1F
07
06
0E
0E
0C
1C
1C
18
38
FE
ENDCHAR
STARTCHAR 00BA
ENCODING 186
SWIDTH 300 0
DWIDTH 10 0
BBX 9 9 3 13
BITMAP
0F00
3980
7180
6180
E380
E380
C700
EE00
7800
ENDCHAR
STARTCHAR 00BB
ENCODING 187
SWIDTH 510 0
DWIDTH 17 0
BBX 15 15 0 0
BITMAP
1820
0830
0C10
0C18
0E1C
0E1C
0F1E
0F1E
0E1C
1C38
1870
3860
30C0
6080
C180
ENDCHAR
STARTCHAR 00BC
ENCODING 188
SWIDTH 750 0
DWIDTH 25 0
BBX 21 23 2 -1
BITMAP
030070
1F0060
0700C0
0601C0
0E0180
0E0300
0C0700
1C0600
1C0C00
181C00
381800
FE3018
007038
006070
00C0F0
01C170
018260
030C60
070FF0
061FF0
0C00C0
1801C0
180180
ENDCHAR
STARTCHAR 00BD
ENCODING 189
SWIDTH 750 0
DWIDTH 25 0
BBX 21 23 2 -1
BITMAP
030060
1F00C0
0701C0
060180
0E0300
0E0700
0C0600
1C0C00
1C1800
181800
383000
FE60E0
0063F0
00C238
018038
018030
030070
060060
0600C0
0C0100
180210
180FE0
301FE0
ENDCHAR
STARTCHAR 00BE
ENCODING 190
SWIDTH 750 0
DWIDTH 25 0
BBX 21 24 2 -1
BITMAP
0F0070
138060
0380C0
0380C0
070180
3E0300
0F0300
070600
070C00
060C00
C61800
F83800
003018
006038
00E070
00C0F0
018170
038260
030C60
060FF0
061FF0
0C00C0
1801C0
180180
ENDCHAR
STARTCHAR 00BF
ENCODING 191
SWIDTH 510 0
DWIDTH 17 0
BBX 13 23 0 -7
BITMAP
0070
00F8
00F8
0070
0000
0040
0040
0040
00C0
0180
0380
0F00
1E00
3C00
7C00
7800
F8C0
F1E0
F1E0
F1E0
70E0
39C0
1F80
ENDCHAR
STARTCHAR 00C0
ENCODING 192
SWIDTH 660 0
DWIDTH 22 0
BBX 22 31 -2 0
BITMAP
000078
000078
00003C
00001C
00000C
000004
000000
000000
000008
000018
000038
000078
0000F0
0001F0
0001F0
0002F0
0006F0
000CF0
0018F0
0010F0
0031F0
0061F0
00C1F0
01FFF0
0101F0
0201F0
0601F0
0C01F0
1801F0
3803F8
FE0FFC
ENDCHAR
STARTCHAR 00C1
ENCODING 193
SWIDTH 660 0
DWIDTH 22 0
BBX 26 31 -2 0
BITMAP
000007C0
00000780
00000700
00000E00
00000C00
00000800
00000000
00000000
00000800
00001800
00003800
00007800
0000F000
0001F000
0001F000
0002F000
0006F000
000CF000
0018F000
0010F000
0031F000
0061F000
00C1F000
01FFF000
0101F000
0201F000
0601F000
0C01F000
1801F000
3803F800
FE0FFC00
ENDCHAR
STARTCHAR 00C2
ENCODING 194
SWIDTH 660 0
DWIDTH 22 0
BBX 24 30 -2 0
BITMAP
00001E
00003E
000077
0000C3
000181
000000
000000
000008
000018
000038
000078
0000F0
0001F0
0001F0
0002F0
0006F0
000CF0
0018F0
0010F0
0031F0
0061F0
00C1F0
01FFF0
0101F0
0201F0
0601F0
0C01F0
1801F0
3803F8
FE0FFC
ENDCHAR
STARTCHAR 00C3
ENCODING 195
SWIDTH 660 0
DWIDTH 22 0
BBX 25 29 -2 0
BITMAP
00007880
0000FF80
0001FF80
00011F00
00000000
00000000
00000800
00001800
00003800
00007800
0000F000
0001F000
0001F000
0002F000
0006F000
000CF000
0018F000
0010F000
0031F000
0061F000
00C1F000
01FFF000
0101F000
0201F000
0601F000
0C01F000
1801F000
3803F800
FE0FFC00
ENDCHAR
STARTCHAR 00C4
ENCODING 196
SWIDTH 660 0
DWIDTH 22 0
BBX 26 29 -2 0
BITMAP
0000E380
0000F3C0
0000F3C0
0000E380
00000000
00000000
00000800
00001800
00003800
00007800
0000F000
0001F000
0001F000
0002F000
0006F000
000CF000
0018F000
0010F000
0031F000
0061F000
00C1F000
01FFF000
0101F000
0201F000
0601F000
0C01F000
1801F000
3803F800
FE0FFC00
ENDCHAR
STARTCHAR 00C5
ENCODING 197
SWIDTH 660 0
DWIDTH 22 0
BBX 24 29 -2 0
BITMAP
00001C
000022
000043
000043
000043
000022
00001C
000018
000038
000078
0000F0
0001F0
0001F0
0002F0
0006F0
000CF0
0018F0
0010F0
0031F0
0061F0
00C1F0
01FFF0
0101F0
0201F0
0601F0
0C01F0
1801F0
3803F8
FE0FFC
ENDCHAR
STARTCHAR 00C6
ENCODING 198
SWIDTH 930 0
DWIDTH 31 0
BBX 33 22 -2 0
BITMAP
0003FFFF80
00007F0780
00007F0180
0000DF0180
00009E0100
00013E0000
00023E0800
00043C0800
000C7C1800
00187C3000
00107FF000
0020F87000
0040F83000
00FFF82000
0100F02000
0101F00000
0201F00200
0401E00400
0803E00C00
1803E03C00
3807E0F800
FE1FFFF800
ENDCHAR
STARTCHAR 00C7
ENCODING 199
SWIDTH 660 0
DWIDTH 22 0
BBX 22 28 2 -6
BITMAP
001FEC
00F878
01E038
07C018
0F8018
1F0018
3F0010
3E0000
7E0000
7C0000
7C0000
FC0000
FC0000
F80000
F80000
F80000
7C0040
7C0080
3E0100
3F0600
0FFC00
03F000
008000
03C000
00E000
00E000
00E000
0FC000
ENDCHAR
STARTCHAR 00C8
ENCODING 200
SWIDTH 660 0
DWIDTH 22 0
BBX 23 31 -1 0
BITMAP
000F00
000700
000780
000380
000180
0000C0
000000
000000
000000
03FFFE
00F81E
00F806
00F804
00F804
01F000
01F020
01F020
01E040
03E1C0
03FFC0
03E180
07C080
07C080
07C080
078000
0F8008
0F8010
0F8030
1F00E0
3F03E0
FFFFE0
ENDCHAR
STARTCHAR 00C9
ENCODING 201
SWIDTH 660 0
DWIDTH 22 0
BBX 23 31 -1 0
BITMAP
0000F8
0000F0
0000E0
0001C0
000180
000100
000000
000000
000000
03FFFE
00F81E
00F806
00F804
00F804
01F000
01F020
01F020
01E040
03E1C0
03FFC0
03E180
07C080
07C080
07C080
078000
0F8008
0F8010
0F8030
1F00E0
3F03E0
FFFFE0
ENDCHAR
STARTCHAR 00CA
ENCODING 202
SWIDTH 660 0
DWIDTH 22 0
BBX 23 30 -1 0
BITMAP
0001E0
0003F0
000770
000E30
001818
000000
000000
000000
03FFFE
00F81E
00F806
00F804
00F804
01F000
01F020
01F020
01E040
03E1C0
03FFC0
03E180
07C080
07C080
07C080
078000
0F8008
0F8010
0F8030
1F00E0
3F03E0
FFFFE0
ENDCHAR
STARTCHAR 00CB
ENCODING 203
SWIDTH 660 0
DWIDTH 22 0
BBX 23 29 -1 0
BITMAP
000E38
001E78
001E78
000E38
000000
000000
000000
03FFFE
00F81E
00F806
00F804
00F804
01F000
01F020
01F020
01E040
03E1C0
03FFC0
03E180
07C080
07C080
07C080
078000
0F8008
0F8010
0F8030
1F00E0
3F03E0
FFFFE0
ENDCHAR
STARTCHAR 00CC
ENCODING 204
SWIDTH 390 0
DWIDTH 13 0
BBX 16 31 -1 0
BITMAP
00F0
0078
0038
0018
001C
000C
0000
0000
0000
03FF
00FC
00F8
00F8
00F0
01F0
01F0
01F0
03E0
03E0
03E0
03E0
07C0
07C0
07C0
0F80
0F80
0F80
0F80
1F00
3F80
FFE0
ENDCHAR
STARTCHAR 00CD
ENCODING 205
SWIDTH 390 0
DWIDTH 13 0
BBX 17 31 -1 0
BITMAP
000F80
000F00
000E00
000C00
001C00
001800
000000
000000
000000
03FF00
00FC00
00F800
00F800
00F000
01F000
01F000
01F000
03E000
03E000
03E000
03E000
07C000
07C000
07C000
0F8000
0F8000
0F8000
0F8000
1F0000
3F8000
FFE000
ENDCHAR
STARTCHAR 00CE
ENCODING 206
SWIDTH 390 0
DWIDTH 13 0
BBX 16 30 -1 0
BITMAP
001E
003E
0077
00C3
0183
0000
0000
0000
03FF
00FC
00F8
00F8
00F0
01F0
01F0
01F0
03E0
03E0
03E0
03E0
07C0
07C0
07C0
0F80
0F80
0F80
0F80
1F00
3F80
FFE0
ENDCHAR
STARTCHAR 00CF
ENCODING 207
SWIDTH 390 0
DWIDTH 13 0
BBX 17 29 -1 0
BITMAP
00C300
01E780
01E780
00C300
000000
000000
000000
03FF00
00FC00
00F800
00F800
00F000
01F000
01F000
01F000
03E000
03E000
03E000
03E000
07C000
07C000
07C000
0F8000
0F8000
0F8000
0F8000
1F0000
3F8000
FFE000
ENDCHAR
STARTCHAR 00D0
ENCODING 208
SWIDTH 720 0
DWIDTH 24 0
BBX 24 22 -1 0
BITMAP
03FFC0
00F8F0
00F87C
00F83E
00F83E
01F01F
01F01F
01F01F
01E01F
03E01F
1FFF1F
03E01F
07C03F
07C03F
07C03E
0F807C
0F807C
0F80F8
0F01F0
1F03E0
3F8780
FFFC00
ENDCHAR
STARTCHAR 00D1
ENCODING 209
SWIDTH 720 0
DWIDTH 24 0
BBX 28 29 -1 0
BITMAP
0003C400
0007FC00
000FFC00
0008F800
00000000
00000000
00000000
07F807F0
01F803C0
00FC0180
00FC0100
00BE0100
01BE0300
011F0200
011F0200
030F0200
030F8400
02078400
0207C400
0607CC00
0403E800
0403E800
0C01F800
0801F000
0800F000
1800F000
18006000
38006000
FE002000
ENDCHAR
STARTCHAR 00D2
ENCODING 210
SWIDTH 720 0
DWIDTH 24 0
BBX 22 31 2 0
BITMAP
003E00
001E00
000E00
000700
000300
000100
000000
000000
001F80
0061E0
01C0F0
0380F8
0F80F8
0F0078
1F00FC
3E00FC
3E00FC
7C00FC
7C00F8
FC00F8
FC01F8
F801F0
F801F0
F803E0
F803E0
F807C0
F80780
780F00
781E00
3C3800
0FE000
ENDCHAR
STARTCHAR 00D3
ENCODING 211
SWIDTH 720 0
DWIDTH 24 0
BBX 22 31 2 0
BITMAP
0003E0
0003C0
000780
000700
000600
000C00
000000
000000
001F80
0061E0
01C0F0
0380F8
0F80F8
0F0078
1F00FC
3E00FC
3E00FC
7C00FC
7C00F8
FC00F8
FC01F8
F801F0
F801F0
F803E0
F803E0
F807C0
F80780
780F00
781E00
3C3800
0FE000
ENDCHAR
STARTCHAR 00D4
ENCODING 212
SWIDTH 720 0
DWIDTH 24 0
BBX 22 30 2 0
BITMAP
000780
000FC0
001DC0
0038C0
006060
000000
000000
001F80
0061E0
01C0F0
0380F8
0F80F8
0F0078
1F00FC
3E00FC
3E00FC
7C00FC
7C00F8
FC00F8
FC01F8
F801F0
F801F0
F803E0
F803E0
F807C0
F80780
780F00
781E00
3C3800
0FE000
ENDCHAR
STARTCHAR 00D5
ENCODING 213
SWIDTH 720 0
DWIDTH 24 0
BBX 22 29 2 0
BITMAP
001E10
003FF0
003FE0
0023C0
000000
000000
001F80
0061E0
01C0F0
0380F8
0F80F8
0F0078
1F00FC
3E00FC
3E00FC
7C00FC
7C00F8
FC00F8
FC01F8
F801F0
F801F0
F803E0
F803E0
F807C0
F80780
780F00
781E00
3C3800
0FE000
ENDCHAR
STARTCHAR 00D6
ENCODING 214
SWIDTH 720 0
DWIDTH 24 0
BBX 22 29 2 0
BITMAP
0038E0
003CF0
003CF0
0038E0
000000
000000
001F80
0061E0
01C0F0
0380F8
0F80F8
0F0078
1F00FC
3E00FC
3E00FC
7C00FC
7C00F8
FC00F8
FC01F8
F801F0
F801F0
F803E0
F803E0
F807C0
F80780
780F00
781E00
3C3800
0FE000
ENDCHAR
STARTCHAR 00D7
ENCODING 215
SWIDTH 570 0
DWIDTH 19 0
BBX 13 13 3 4
BITMAP
C018
E038
7070
38E0
1DC0
0F80
0700
0F80
1DC0
38E0
7070
E038
C018
ENDCHAR
STARTCHAR 00D8
ENCODING 216
SWIDTH 720 0
DWIDTH 24 0
BBX 23 23 1 0
BITMAP
000FC2
0070F4
00E078
03C07C
07C07C
07807C
0F80FE
1F017E
1F027E
3E047C
3E087C
7E107C
7E30FC
7C60F8
7CC0F8
7D81F0
7F01E0
7E03E0
7C03C0
3C0780
3C0E00
6E1C00
C7E000
ENDCHAR
STARTCHAR 00D9
ENCODING 217
SWIDTH 720 0
DWIDTH 24 0
BBX 24 31 3 0
BITMAP
007C00
003C00
001C00
000E00
000600
000200
000000
000000
000000
7FF0FF
1FC03C
0F8018
0F8010
1F0010
1F0030
1F0020
1E0020
3E0060
3E0040
3C0040
7C00C0
7C0080
780080
F80080
F80100
F80100
F80300
F80600
7E0C00
3FF800
0FE000
ENDCHAR
STARTCHAR 00DA
ENCODING 218
SWIDTH 720 0
DWIDTH 24 0
BBX 24 31 3 0
BITMAP
000780
000F00
000E00
000E00
001C00
001800
000000
000000
000000
7FF0FF
1FC03C
0F8018
0F8010
1F0010
1F0030
1F0020
1E0020
3E0060
3E0040
3C0040
7C00C0
7C0080
780080
F80080
F80100
F80100
F80300
F80600
7E0C00
3FF800
0FE000
ENDCHAR
STARTCHAR 00DB
ENCODING 219
SWIDTH 720 0
DWIDTH 24 0
BBX 24 30 3 0
BITMAP
001F00
003F00
003B00
006180
00C180
000000
000000
000000
7FF0FF
1FC03C
0F8018
0F8010
1F0010
1F0030
1F0020
1E0020
3E0060
3E0040
3C0040
7C00C0
7C0080
780080
F80080
F80100
F80100
F80300
F80600
7E0C00
3FF800
0FE000
ENDCHAR
STARTCHAR 00DC
ENCODING 220
SWIDTH 720 0
DWIDTH 24 0
BBX 24 29 3 0
BITMAP
00E380
00F3C0
00F3C0
00E380
000000
000000
000000
7FF0FF
1FC03C
0F8018
0F8010
1F0010
1F0030
1F0020
1E0020
3E0060
3E0040
3C0040
7C00C0
7C0080
780080
F80080
F80100
F80100
F80300
F80600
7E0C00
3FF800
0FE000
ENDCHAR
STARTCHAR 00DD
ENCODING 221
SWIDTH 600 0
DWIDTH 20 0
BBX 21 31 3 0
BITMAP
0003C0
000780
000700
000700
000E00
000C00
000000
000000
000000
7FF3F8
3F81E0
1F80C0
0F8080
0F8100
0F8300
0F8200
078400
07CC00
07C800
07D000
03E000
03E000
07C000
07C000
07C000
078000
0F8000
0F8000
0F8000
1F8000
FFE000
ENDCHAR
STARTCHAR 00DE
ENCODING 222
SWIDTH 600 0
DWIDTH 20 0
BBX 21 22 -1 0
BITMAP
03FF00
00FC00
00F800
00F800
00F000
01FF80
01F3E0
01F1F0
01E0F8
03E0F8
03E0F8
03C0F8
07C1F0
07C1F0
07C3E0
0787C0
0FFE00
0F8000
0F0000
1F0000
3F8000
FFC000
ENDCHAR
STARTCHAR 00DF
ENCODING 223
SWIDTH 510 0
DWIDTH 17 0
BBX 23 30 -6 -7
BITMAP
0000F8
00039C
00071C
000F1E
000E1E
001E1E
001E1C
001E3C
003C38
003C70
003D80
007CE0
007870
007878
007878
00F878
00F078
00F0F8
00F0F0
01ECF0
01ECE0
01EDC0
01E780
03C000
03C000
038000
678000
E70000
EE0000
780000
ENDCHAR
STARTCHAR 00E0
ENCODING 224
SWIDTH 510 0
DWIDTH 17 0
BBX 15 23 1 0
BITMAP
03E0
01E0
00E0
0070
0030
0010
0000
0000
03DE
065C
1E3C
1C3C
3C3C
7878
7878
F878
F0F0
F0F0
F1F0
F2F4
F3EC
FDF8
70E0
ENDCHAR
STARTCHAR 00E1
ENCODING 225
SWIDTH 510 0
DWIDTH 17 0
BBX 15 23 1 0
BITMAP
003C
007C
0078
0070
0060
00C0
0000
0000
03DE
065C
1E3C
1C3C
3C3C
7878
7878
F878
F0F0
F0F0
F1F0
F2F4
F3EC
FDF8
70E0
ENDCHAR
STARTCHAR 00E2
ENCODING 226
SWIDTH 510 0
DWIDTH 17 0
BBX 15 22 1 0
BITMAP
0078
00F8
01DC
030C
060C
0000
0000
03DE
065C
1E3C
1C3C
3C3C
7878
7878
F878
F0F0
F0F0
F1F0
F2F4
F3EC
FDF8
70E0
ENDCHAR
STARTCHAR 00E3
ENCODING 227
SWIDTH 510 0
DWIDTH 17 0
BBX 15 21 1 0
BITMAP
03E2
07FE
07FC
0478
0000
0000
03DE
065C
1E3C
1C3C
3C3C
7878
7878
F878
F0F0
F0F0
F1F0
F2F4
F3EC
FDF8
70E0
ENDCHAR
STARTCHAR 00E4
ENCODING 228
SWIDTH 510 0
DWIDTH 17 0
BBX 15 21 1 0
BITMAP
030C
079E
079E
030C
0000
0000
03DE
065C
1E3C
1C3C
3C3C
7878
7878
F878
F0F0
F0F0
F1F0
F2F4
F3EC
FDF8
70E0
ENDCHAR
STARTCHAR 00E5
ENCODING 229
SWIDTH 510 0
DWIDTH 17 0
BBX 15 24 1 0
BITMAP
0070
0088
018C
0104
018C
0088
0070
0000
0000
03DE
065C
1E3C
1C3C
3C3C
7878
7878
F878
F0F0
F0F0
F1F0
F2F4
F3EC
FDF8
70E0
ENDCHAR
STARTCHAR 00E6
ENCODING 230
SWIDTH 720 0
DWIDTH 24 0
BBX 23 15 1 0
BITMAP
03DE7C
073F9E
0E3F1E
1C3E1C
3C3C3C
783C38
787C70
F879E0
F07F00
F0F800
F0F800
F17808
F27C30
FC7FE0
781F80
ENDCHAR
STARTCHAR 00E7
ENCODING 231
SWIDTH 450 0
DWIDTH 15 0
BBX 13 21 1 -6
BITMAP
01F0
0718
0E38
1C78
3830
7800
7800
F000
F000
F000
F000
F010
F860
7FC0
3E00
0C00
3C00
0E00
0F00
0E00
FC00
ENDCHAR
STARTCHAR 00E8
ENCODING 232
SWIDTH 450 0
DWIDTH 15 0
BBX 14 23 1 0
BITMAP
03C0
01C0
01E0
00E0
0060
0030
0000
0000
00F8
0338
0E3C
1C38
3C78
7870
78E0
F3C0
FE00
F000
F000
F010
F860
7FC0
3E00
ENDCHAR
STARTCHAR 00E9
ENCODING 233
SWIDTH 450 0
DWIDTH 15 0
BBX 15 23 1 0
BITMAP
001E
003C
0038
0038
0070
0060
0000
0000
00F8
0338
0E3C
1C38
3C78
7870
78E0
F3C0
FE00
F000
F000
F010
F860
7FC0
3E00
ENDCHAR
STARTCHAR 00EA
ENCODING 234
SWIDTH 450 0
DWIDTH 15 0
BBX 14 22 1 0
BITMAP
00F0
01F0
03B8
0618
0C08
0000
0000
00F8
0338
0E3C
1C38
3C78
7870
78E0
F3C0
FE00
F000
F000
F010
F860
7FC0
3E00
ENDCHAR
STARTCHAR 00EB
ENCODING 235
SWIDTH 450 0
DWIDTH 15 0
BBX 14 21 1 0
BITMAP
0618
0F3C
0F3C
0618
0000
0000
00F8
0338
0E3C
1C38
3C78
7870
78E0
F3C0
FE00
F000
F000
F010
F860
7FC0
3E00
ENDCHAR
STARTCHAR 00EC
ENCODING 236
SWIDTH 270 0
DWIDTH 9 0
BBX 8 23 1 0
BITMAP
3C
1E
0E
06
07
03
00
00
0E
7E
3E
3C
3C
3C
3C
78
78
78
F0
F2
F4
F8
F0
ENDCHAR
STARTCHAR 00ED
ENCODING 237
SWIDTH 270 0
DWIDTH 9 0
BBX 10 23 1 0
BITMAP
03C0
07C0
0780
0700
0600
0C00
0000
0000
0E00
7E00
3E00
3C00
3C00
3C00
3C00
7800
7800
7800
F000
F200
F400
F800
F000
ENDCHAR
STARTCHAR 00EE
ENCODING 238
SWIDTH 270 0
DWIDTH 9 0
BBX 10 22 1 0
BITMAP
0F80
1F80
3D80
71C0
C0C0
0000
0000
0E00
7E00
3E00
3C00
3C00
3C00
3C00
7800
7800
7800
F000
F200
F400
F800
F000
ENDCHAR
STARTCHAR 00EF
ENCODING 239
SWIDTH 270 0
DWIDTH 9 0
BBX 11 21 1 0
BITMAP
71C0
79E0
79E0
71C0
0000
0000
0E00
7E00
3E00
3C00
3C00
3C00
3C00
7800
7800
7800
F000
F200
F400
F800
F000
ENDCHAR
STARTCHAR 00F0
ENCODING 240
SWIDTH 510 0
DWIDTH 17 0
BBX 15 23 1 0
BITMAP
0082
006C
0030
0070
01B8
0018
001C
001C
03DC
073C
1E3E
3C3E
3C3E
783C
783C
F83C
F078
F078
F0F0
F0E0
F1C0
7180
3E00
ENDCHAR
STARTCHAR 00F1
ENCODING 241
SWIDTH 540 0
DWIDTH 18 0
BBX 16 21 1 0
BITMAP
03E2
07FE
07FC
0478
0000
0000
0F0E
7E3E
1E7E
1EDE
3F9E
3D1E
3E3C
3C3C
7C3C
787C
7878
F879
F07A
F07C
F078
ENDCHAR
STARTCHAR 00F2
ENCODING 242
SWIDTH 510 0
DWIDTH 17 0
BBX 15 23 1 0
BITMAP
03E0
01E0
00E0
0060
0030
0030
0000
0000
01F0
0738
0E1C
1C3C
3C3E
783C
783C
F83C
F07C
F078
F0F0
F0F0
F1E0
7180
3E00
ENDCHAR
STARTCHAR 00F3
ENCODING 243
SWIDTH 510 0
DWIDTH 17 0
BBX 15 23 1 0
BITMAP
003E
003C
0038
0070
0060
0060
0000
0000
01F0
0738
0E1C
1C3C
3C3E
783C
783C
F83C
F07C
F078
F0F0
F0F0
F1E0
7180
3E00
ENDCHAR
STARTCHAR 00F4
ENCODING 244
SWIDTH 510 0
DWIDTH 17 0
BBX 15 22 1 0
BITMAP
0078
00F8
01DC
030C
060C
0000
0000
01F0
0738
0E1C
1C3C
3C3E
783C
783C
F83C
F07C
F078
F0F0
F0F0
F1E0
7180
3E00
ENDCHAR
STARTCHAR 00F5
ENCODING 245
SWIDTH 510 0
DWIDTH 17 0
BBX 15 21 1 0
BITMAP
03E2
07FE
07FC
0478
0000
0000
01F0
0738
0E1C
1C3C
3C3E
783C
783C
F83C
F07C
F078
F0F0
F0F0
F1E0
7180
3E00
ENDCHAR
STARTCHAR 00F6
ENCODING 246
SWIDTH 510 0
DWIDTH 17 0
BBX 15 21 1 0
BITMAP
030C
079E
079E
030C
0000
0000
01F0
0738
0E1C
1C3C
3C3E
783C
783C
F83C
F07C
F078
F0F0
F0F0
F1E0
7180
3E00
ENDCHAR
STARTCHAR 00F7
ENCODING 247
SWIDTH 540 0
DWIDTH 18 0
BBX 17 14 1 4
BITMAP
00C000
01C000
01C000
00C000
000000
000000
FFFF80
FFFF80
000000
000000
00C000
01C000
01C000
00C000
ENDCHAR
STARTCHAR 00F8
ENCODING 248
SWIDTH 510 0
DWIDTH 17 0
BBX 15 15 1 0
BITMAP
01F2
073C
0E1C
1C3C
3C3E
787C
78BC
F93C
FA7C
F478
F870
F0F0
F1E0
F180
BE00
ENDCHAR
STARTCHAR 00F9
ENCODING 249
SWIDTH 540 0
DWIDTH 18 0
BBX 16 23 1 0
BITMAP
03E0
01E0
00E0
0070
0030
0010
0000
0000
0F0F
7E0F
1E1E
1E1E
3C1E
3C3E
3C3C
3C7C
78FC
78F8
7978
F27A
FCFA
F8FC
7070
ENDCHAR
STARTCHAR 00FA
ENCODING 250
SWIDTH 540 0
DWIDTH 18 0
BBX 16 23 1 0
BITMAP
003E
003C
0078
0070
0060
00C0
0000
0000
0F0F
7E0F
1E1E
1E1E
3C1E
3C3E
3C3C
3C7C
78FC
78F8
7978
F27A
FCFA
F8FC
7070
ENDCHAR
STARTCHAR 00FB
ENCODING 251
SWIDTH 540 0
DWIDTH 18 0
BBX 16 22 1 0
BITMAP
0078
00FC
01DC
030C
0606
0000
0000
0F0F
7E0F
1E1E
1E1E
3C1E
3C3E
3C3C
3C7C
78FC
78F8
7978
F27A
FCFA
F8FC
7070
ENDCHAR
STARTCHAR 00FC
ENCODING 252
SWIDTH 540 0
DWIDTH 18 0
BBX 16 21 1 0
BITMAP
071C
0FBE
0FBE
071C
0000
0000
0F0F
7E0F
1E1E
1E1E
3C1E
3C3E
3C3C
3C7C
78FC
78F8
7978
F27A
FCFA
F8FC
7070
ENDCHAR
STARTCHAR 00FD
ENCODING 253
SWIDTH 450 0
DWIDTH 15 0
BBX 18 30 -3 -7
BITMAP
0007C0
000780
000700
000E00
000C00
000800
000000
000000
038380
0FC780
03C7C0
03C380
03C180
03C180
03C100
03C300
01C200
01E400
01E400
01E800
01F000
01F000
01E000
01C000
018000
010000
610000
F20000
FC0000
700000
ENDCHAR
STARTCHAR 00FE
ENCODING 254
SWIDTH 510 0
DWIDTH 17 0
BBX 20 30 -4 -7
BITMAP
001C00
00FC00
003C00
007800
007800
007800
007000
00F000
00F3C0
00FDE0
01F1E0
01E1F0
01E1F0
01C1F0
03C1E0
03C1E0
03C1E0
0783C0
0783C0
078780
078F00
0F8E00
0FF800
0F0000
1E0000
1E0000
1E0000
3E0000
3E0000
FF8000
ENDCHAR
STARTCHAR 00FF
ENCODING 255
SWIDTH 450 0
DWIDTH 15 0
BBX 18 28 -3 -7
BITMAP
00E380
01F7C0
01F7C0
00E380
000000
000000
038380
0FC780
03C7C0
03C380
03C180
03C180
03C100
03C300
01C200
01E400
01E400
01E800
01F000
01F000
01E000
01C000
018000
010000
610000
F20000
FC0000
700000
ENDCHAR
STARTCHAR 0100
ENCODING 256
SWIDTH 660 0
DWIDTH 22 0
BBX 27 28 -2 0
BITMAP
0001FFE0
0001FFC0
0001FFC0
00000000
00000000
00000800
00001800
00003800
00007800
0000F000
0001F000
0001F000
0002F000
0006F000
000CF000
0018F000
0010F000
0031F000
0061F000
00C1F000
01FFF000
0101F000
0201F000
0601F000
0C01F000
1801F000
3803F800
FE0FFC00
ENDCHAR
STARTCHAR 0101
ENCODING 257
SWIDTH 510 0
DWIDTH 17 0
BBX 16 20 1 0
BITMAP
07FF
07FF
07FF
0000
0000
03DE
065C
1E3C
1C3C
3C3C
7878
7878
F878
F0F0
F0F0
F1F0
F2F4
F3EC
FDF8
70E0
ENDCHAR
STARTCHAR 0102
ENCODING 258
SWIDTH 660 0
DWIDTH 22 0
BBX 26 30 -2 0
BITMAP
00004040
000060C0
00007F80
00003F00
00001E00
00000000
00000000
00000800
00001800
00003800
00007800
0000F000
0001F000
0001F000
0002F000
0006F000
000CF000
0018F000
0010F000
0031F000
0061F000
00C1F000
01FFF000
0101F000
0201F000
0601F000
0C01F000
1801F000
3803F800
FE0FFC00
ENDCHAR
STARTCHAR 0103
ENCODING 259
SWIDTH 510 0
DWIDTH 17 0
BBX 15 22 1 0
BITMAP
0404
060C
07F8
03F0
01E0
0000
0000
03DE
065C
1E3C
1C3C
3C3C
7878
7878
F878
F0F0
F0F0
F1F0
F2F4
F3EC
FDF8
70E0
ENDCHAR
STARTCHAR 0104
ENCODING 260
SWIDTH 660 0
DWIDTH 22 0
BBX 22 30 -2 -7
BITMAP
000008
000018
000038
000078
0000F0
0001F0
0001F0
0002F0
0006F0
000CF0
0018F0
0010F0
0031F0
0061F0
00C1F0
01FFF0
0101F0
0201F0
0601F0
0C01F0
1801F0
3803F8
FE0FFC
0000C0
000180
000300
000700
000700
000700
0007C0
ENDCHAR
STARTCHAR 0105
ENCODING 261
SWIDTH 510 0
DWIDTH 17 0
BBX 15 22 1 -7
BITMAP
03DE
065C
1E3C
1C3C
3C3C
7878
7878
F878
F0F0
F0F0
F1F0
F2F4
F3EC
FDF8
70E0
00C0
0180
0300
0700
0700
0700
07C0
ENDCHAR
STARTCHAR 0106
ENCODING 262
SWIDTH 660 0
DWIDTH 22 0
BBX 22 31 2 0
BITMAP
0001E0
0003C0
0003C0
000380
000700
000600
000000
000000
000000
001FEC
00F878
01E038
07C018
0F8018
1F0018
3F0010
3E0000
7E0000
7C0000
7C0000
FC0000
FC0000
F80000
F80000
F80000
7C0040
7C0080
3E0100
3F0600
0FFC00
03F000
ENDCHAR
STARTCHAR 0107
ENCODING 263
SWIDTH 450 0
DWIDTH 15 0
BBX 14 23 1 0
BITMAP
007C
0078
0070
0060
00E0
00C0
0000
0000
01F0
0718
0E38
1C78
3830
7800
7800
F000
F000
F000
F000
F010
F860
7FC0
3E00
ENDCHAR
STARTCHAR 0108
ENCODING 264
SWIDTH 660 0
DWIDTH 22 0
BBX 22 30 2 0
BITMAP
0003C0
0007C0
000EE0
001860
003020
000000
000000
000000
001FEC
00F878
01E038
07C018
0F8018
1F0018
3F0010
3E0000
7E0000
7C0000
7C0000
FC0000
FC0000
F80000
F80000
F80000
7C0040
7C0080
3E0100
3F0600
0FFC00
03F000
ENDCHAR
STARTCHAR 0109
ENCODING 265
SWIDTH 450 0
DWIDTH 15 0
BBX 14 22 1 0
BITMAP
00F0
01F8
03B8
0718
0C0C
0000
0000
01F0
0718
0E38
1C78
3830
7800
7800
F000
F000
F000
F000
F010
F860
7FC0
3E00
ENDCHAR
STARTCHAR 010A
ENCODING 266
SWIDTH 660 0
DWIDTH 22 0
BBX 22 29 2 0
BITMAP
000700
000780
000780
000780
000000
000000
000000
001FEC
00F878
01E038
07C018
0F8018
1F0018
3F0010
3E0000
7E0000
7C0000
7C0000
FC0000
FC0000
F80000
F80000
F80000
7C0040
7C0080
3E0100
3F0600
0FFC00
03F000
ENDCHAR
STARTCHAR 010B
ENCODING 267
SWIDTH 450 0
DWIDTH 15 0
BBX 13 21 1 0
BITMAP
00F0
00F0
00F0
00F0
0000
0000
01F0
0718
0E38
1C78
3830
7800
7800
F000
F000
F000
F000
F010
F860
7FC0
3E00
ENDCHAR
STARTCHAR 010C
ENCODING 268
SWIDTH 660 0
DWIDTH 22 0
BBX 22 30 2 0
BITMAP
003070
0038E0
001DC0
001F80
001F00
000000
000000
000000
001FEC
00F878
01E038
07C018
0F8018
1F0018
3F0010
3E0000
7E0000
7C0000
7C0000
FC0000
FC0000
F80000
F80000
F80000
7C0040
7C0080
3E0100
3F0600
0FFC00
03F000
ENDCHAR
STARTCHAR 010D
ENCODING 269
SWIDTH 450 0
DWIDTH 15 0
BBX 15 22 1 0
BITMAP
0306
038E
03BC
01F8
01F0
0000
0000
01F0
0718
0E38
1C78
3830
7800
7800
F000
F000
F000
F000
F010
F860
7FC0
3E00
ENDCHAR
STARTCHAR 010E
ENCODING 270
SWIDTH 720 0
DWIDTH 24 0
BBX 24 30 -1 0
BITMAP
003070
0018E0
001DC0
001F80
000F00
000000
000000
000000
07FFC0
00F8F0
00F87C
00F83C
00F03E
01F01F
01F01F
01F01F
01E01F
03E01F
03E01F
03E03F
07C03F
07C03E
07C03E
07807C
0F8078
0F80F8
0F81F0
1F03C0
3F8780
FFFC00
ENDCHAR
STARTCHAR 010F
ENCODING 271
SWIDTH 750 0
DWIDTH 25 0
BBX 24 23 1 0
BITMAP
00078E
001F9E
000F3F
000F1F
000F1F
000E0E
001E04
001E0C
03DE10
073C60
1E3C00
1C3C00
3C3C00
787800
787800
F07800
F0F000
F1F000
F1F000
F2F400
FDE400
F9F800
70E000
ENDCHAR
STARTCHAR 0110
ENCODING 272
SWIDTH 720 0
DWIDTH 24 0
BBX 24 22 -1 0
BITMAP
03FFC0
00F8F0
00F87C
00F83E
00F83E
01F01F
01F01F
01F01F
01E01F
03E01F
1FFF1F
03E01F
07C03F
07C03F
07C03E
0F807C
0F807C
0F80F8
0F01F0
1F03E0
3F8780
FFFC00
ENDCHAR
STARTCHAR 0111
ENCODING 273
SWIDTH 510 0
DWIDTH 17 0
BBX 18 23 1 0
BITMAP
000780
001F80
000F00
000F00
01FFC0
000E00
001E00
001E00
03DE00
073C00
1E3C00
1C3C00
3C3C00
787800
787800
F07800
F0F000
F1F000
F1F000
F2F000
FDE400
F9E800
70F000
ENDCHAR
STARTCHAR 0112
ENCODING 274
SWIDTH 660 0
DWIDTH 22 0
BBX 23 28 -1 0
BITMAP
001FFC
001FFC
001FFC
000000
000000
000000
03FFFE
00F81E
00F806
00F804
00F804
01F000
01F020
01F020
01E040
03E1C0
03FFC0
03E180
07C080
07C080
07C080
078000
0F8008
0F8010
0F8030
1F00E0
3F03E0
FFFFE0
ENDCHAR
STARTCHAR 0113
ENCODING 275
SWIDTH 450 0
DWIDTH 15 0
BBX 15 20 1 0
BITMAP
0FFE
0FFE
0FFE
0000
0000
00F8
0338
0E3C
1C38
3C78
7870
78E0
F3C0
FE00
F000
F000
F010
F860
7FC0
3E00
ENDCHAR
STARTCHAR 0114
ENCODING 276
SWIDTH 660 0
DWIDTH 22 0
BBX 23 30 -1 0
BITMAP
000408
000618
0007F0
0007F0
0003C0
000000
000000
000000
03FFFE
00F81E
00F806
00F804
00F804
01F000
01F020
01F020
01E040
03E1C0
03FFC0
03E180
07C080
07C080
07C080
078000
0F8008
0F8010
0F8030
1F00E0
3F03E0
FFFFE0
ENDCHAR
STARTCHAR 0115
ENCODING 277
SWIDTH 450 0
DWIDTH 15 0
BBX 15 22 1 0
BITMAP
0202
0306
03FC
01F8
00F0
0000
0000
00F8
0338
0E3C
1C38
3C78
7870
78E0
F3C0
FE00
F000
F000
F010
F860
7FC0
3E00
ENDCHAR
STARTCHAR 0116
ENCODING 278
SWIDTH 660 0
DWIDTH 22 0
BBX 23 29 -1 0
BITMAP
0001C0
0003E0
0003E0
0001C0
000000
000000
000000
03FFFE
00F81E
00F806
00F804
00F804
01F000
01F020
01F020
01E040
03E1C0
03FFC0
03E180
07C080
07C080
07C080
078000
0F8008
0F8010
0F8030
1F00E0
3F03E0
FFFFE0
ENDCHAR
STARTCHAR 0117
ENCODING 279
SWIDTH 450 0
DWIDTH 15 0
BBX 14 21 1 0
BITMAP
00E0
01F0
01F0
00E0
0000
0000
00F8
0338
0E3C
1C38
3C78
7870
78E0
F3C0
FE00
F000
F000
F010
F860
7FC0
3E00
ENDCHAR
STARTCHAR 0118
ENCODING 280
SWIDTH 660 0
DWIDTH 22 0
BBX 23 29 -1 -7
BITMAP
03FFFE
00F81E
00F806
00F804
00F804
01F000
01F020
01F020
01E040
03E1C0
03FFC0
03E180
07C080
07C080
07C080
078000
0F8008
0F8010
0F8030
1F00E0
3F03E0
FFFFE0
000180
000300
000600
000C00
001C00
001E00
000F80
ENDCHAR
STARTCHAR 0119
ENCODING 281
SWIDTH 450 0
DWIDTH 15 0
BBX 14 22 1 -7
BITMAP
00F8
0338
0E3C
1C38
3C78
7870
78E0
F3C0
FE00
F000
F000
F010
F860
7FC0
3F00
0600
0C00
1800
3800
3800
3900
3E00
ENDCHAR
STARTCHAR 011A
ENCODING 282
SWIDTH 660 0
DWIDTH 22 0
BBX 23 30 -1 0
BITMAP
001818
000C70
000EE0
000FC0
000780
000000
000000
000000
03FFFE
00F81E
00F806
00F804
00F804
01F000
01F020
01F020
01E040
03E1C0
03FFC0
03E180
07C080
07C080
07C080
078000
0F8008
0F8010
0F8030
1F00E0
3F03E0
FFFFE0
ENDCHAR
STARTCHAR 011B
ENCODING 283
SWIDTH 450 0
DWIDTH 15 0
BBX 15 22 1 0
BITMAP
0306
038C
03BC
01F8
01F0
0000
0000
00F8
0338
0E3C
1C38
3C78
7870
78E0
F3C0
FE00
F000
F000
F010
F860
7FC0
3E00
ENDCHAR
STARTCHAR 011C
ENCODING 284
SWIDTH 720 0
DWIDTH 24 0
BBX 23 30 2 0
BITMAP
0001E0
0003E0
000770
000C30
001830
000000
000000
000000
001FF6
00F83C
01E01C
07C00C
0F800C
1F0008
3F0008
3E0000
7E0000
7C0000
FC0000
FC0FFC
FC03F0
F803E0
F803E0
7803E0
7C07C0
7C07C0
3C07C0
1E07C0
0F0F80
03FF80
ENDCHAR
STARTCHAR 011D
ENCODING 285
SWIDTH 510 0
DWIDTH 17 0
BBX 19 29 -2 -7
BITMAP
000F00
001F80
003B80
006180
00C080
000000
000000
00FC00
03C7E0
0787E0
0F8780
0F0780
0F0F80
0F0F00
0F1F00
071E00
03F800
060000
0C0000
1F8000
1FF800
0FFC00
1FFE00
707E00
E01E00
E00E00
701C00
783800
1FE000
ENDCHAR
STARTCHAR 011E
ENCODING 286
SWIDTH 720 0
DWIDTH 24 0
BBX 23 30 2 0
BITMAP
000808
000C18
000FF0
0007E0
0003C0
000000
000000
000000
001FF6
00F83C
01E01C
07C00C
0F800C
1F0008
3F0008
3E0000
7E0000
7C0000
FC0000
FC0FFC
FC03F0
F803E0
F803E0
7803E0
7C07C0
7C07C0
3C07C0
1E07C0
0F0F80
03FF80
ENDCHAR
STARTCHAR 011F
ENCODING 287
SWIDTH 510 0
DWIDTH 17 0
BBX 19 29 -2 -7
BITMAP
004080
004180
007F00
007F00
003C00
000000
000000
00FC00
03C7E0
0787E0
0F8780
0F0780
0F0F80
0F0F00
0F1F00
071E00
03F800
060000
0C0000
1F8000
1FF800
0FFC00
1FFE00
707E00
E01E00
E00E00
701C00
783800
1FE000
ENDCHAR
STARTCHAR 0120
ENCODING 288
SWIDTH 720 0
DWIDTH 24 0
BBX 23 29 2 0
BITMAP
000380
0007C0
0007C0
000380
000000
000000
000000
001FF6
00F83C
01E01C
07C00C
0F800C
1F0008
3F0008
3E0000
7E0000
7C0000
FC0000
FC0FFC
FC03F0
F803E0
F803E0
7803E0
7C07C0
7C07C0
3C07C0
1E07C0
0F0F80
03FF80
ENDCHAR
STARTCHAR 0121
ENCODING 289
SWIDTH 510 0
DWIDTH 17 0
BBX 19 28 -2 -7
BITMAP
000E00
001E00
001E00
000E00
000000
000000
00FC00
03C7E0
0787E0
0F8780
0F0780
0F0F80
0F0F00
0F1F00
071E00
03F800
060000
0C0000
1F8000
1FF800
0FFC00
1FFE00
707E00
E01E00
E00E00
701C00
783800
1FE000
ENDCHAR
STARTCHAR 0122
ENCODING 290
SWIDTH 720 0
DWIDTH 24 0
BBX 23 31 2 -9
BITMAP
001FF6
00F83C
01E01C
07C00C
0F800C
1F0008
3F0008
3E0000
7E0000
7C0000
FC0000
FC0FFC
FC03F0
F803E0
F803E0
7803E0
7C07C0
7C07C0
3C07C0
1E07C0
0F0F80
03FF80
000000
000000
00C000
01E000
00E000
006000
00C000
018000
030000
ENDCHAR
STARTCHAR 0123
ENCODING 291
SWIDTH 510 0
DWIDTH 17 0
BBX 19 31 -2 -7
BITMAP
000100
000600
000C00
001C00
001E00
001E00
000C00
000000
000000
00FC00
03CFE0
0787E0
0F8780
0F0780
0F0F80
0F0F80
0F1F00
071E00
03F800
060000
0E0000
1FC000
1FF800
0FFC00
1FFE00
707E00
E01E00
E00E00
701C00
783800
1FE000
ENDCHAR
STARTCHAR 0124
ENCODING 292
SWIDTH 780 0
DWIDTH 26 0
BBX 29 30 -1 0
BITMAP
00007C00
0000FC00
0001EC00
00038600
00020600
00000000
00000000
00000000
03FF3FF8
00FC07E0
00F807C0
00F807C0
00F80F80
01F00F80
01F00F80
01F00F00
01E01F00
03E01F00
03FFFF00
03C03E00
07C03E00
07C03E00
07807C00
0F807C00
0F807C00
0F807800
0F00F800
1F00F800
3F81F800
FFE7FE00
ENDCHAR
STARTCHAR 0125
ENCODING 293
SWIDTH 540 0
DWIDTH 18 0
BBX 18 30 1 0
BITMAP
000F00
001F80
003B80
007180
00C0C0
000000
000000
03C000
1F8000
078000
078000
078000
0F0000
0F0000
0F0000
0E1E00
1E3E00
1E7E00
1EDE00
3D9E00
3D1E00
3E3C00
3C3C00
7C3C00
787800
787800
F07A00
F07A00
F0FC00
F07000
ENDCHAR
STARTCHAR 0126
ENCODING 294
SWIDTH 780 0
DWIDTH 26 0
BBX 29 22 -1 0
BITMAP
03FF3FF8
00FC0FE0
00F807C0
00F807C0
07FFFFF0
01F00F80
01F00F80
01F00F80
01E01F00
03E01F00
03FFFF00
03C03E00
07C03E00
07C03E00
07807C00
0F807C00
0F807C00
0F807800
1F00F800
1F00F800
3F81F800
FFE7FE00
ENDCHAR
STARTCHAR 0127
ENCODING 295
SWIDTH 540 0
DWIDTH 18 0
BBX 15 23 1 0
BITMAP
03C0
1F80
0780
0780
1FFC
0F00
0F00
0F00
1E0E
1E3E
1E7E
1EDE
3D1E
3D1E
3E3C
7C3C
7C3C
7878
7878
F07A
F07A
F0FC
F078
ENDCHAR
STARTCHAR 0128
ENCODING 296
SWIDTH 390 0
DWIDTH 13 0
BBX 17 29 -1 0
BITMAP
007880
00FF80
01FF80
011F00
000000
000000
000000
03FF00
00FC00
00F800
00F800
00F000
01F000
01F000
01F000
03E000
03E000
03E000
03E000
07C000
07C000
07C000
0F8000
0F8000
0F8000
0F8000
1F0000
3F8000
FFE000
ENDCHAR
STARTCHAR 0129
ENCODING 297
SWIDTH 270 0
DWIDTH 9 0
BBX 11 21 1 0
BITMAP
1E20
3FE0
7FE0
47C0
0000
0000
0E00
7E00
3E00
3C00
3C00
3C00
3C00
7800
7800
7800
F000
F200
F400
F800
F000
ENDCHAR
STARTCHAR 012A
ENCODING 298
SWIDTH 390 0
DWIDTH 13 0
BBX 18 28 -1 0
BITMAP
01FFC0
03FFC0
03FF80
000000
000000
000000
03FF00
00FC00
00F800
00F800
00F000
01F000
01F000
01F000
03E000
03E000
03E000
03E000
07C000
07C000
07C000
0F8000
0F8000
0F8000
0F8000
1F0000
3F8000
FFE000
ENDCHAR
STARTCHAR 012B
ENCODING 299
SWIDTH 270 0
DWIDTH 9 0
BBX 12 20 1 0
BITMAP
7FF0
FFF0
FFE0
0000
0000
0E00
7E00
3E00
3C00
3C00
3C00
3C00
7800
7800
7800
F000
F200
F400
F800
F000
ENDCHAR
STARTCHAR 012C
ENCODING 300
SWIDTH 390 0
DWIDTH 13 0
BBX 17 30 -1 0
BITMAP
008080
00C180
00FF00
007E00
003C00
000000
000000
000000
03FF00
00FC00
00F800
00F800
00F000
01F000
01F000
01F000
03E000
03E000
03E000
03E000
07C000
07C000
07C000
0F8000
0F8000
0F8000
0F8000
1F0000
3F8000
FFE000
ENDCHAR
STARTCHAR 012D
ENCODING 301
SWIDTH 270 0
DWIDTH 9 0
BBX 11 22 1 0
BITMAP
2020
3060
1FC0
1F80
0F00
0000
0000
0E00
7E00
3E00
3C00
3C00
3C00
3C00
7800
7800
7800
F000
F200
F400
F800
F000
ENDCHAR
STARTCHAR 012E
ENCODING 302
SWIDTH 390 0
DWIDTH 13 0
BBX 16 29 -1 -7
BITMAP
03FF
00FC
00F8
00F8
00F0
01F0
01F0
01F0
03E0
03E0
03E0
03E0
07C0
07C0
07C0
0F80
0F80
0F80
0F80
1F00
3F80
FFE0
0600
0C00
1800
3000
7000
7800
3E00
ENDCHAR
STARTCHAR 012F
ENCODING 303
SWIDTH 270 0
DWIDTH 9 0
BBX 11 30 -1 -7
BITMAP
01C0
03E0
03E0
01C0
0000
0000
0000
0000
0380
1F80
0F80
0F00
0F00
0F00
0F00
1E00
1E00
1E00
3C00
3C80
3D00
3E00
3C00
1800
3000
6000
E000
E000
E000
F800
ENDCHAR
STARTCHAR 0130
ENCODING 304
SWIDTH 390 0
DWIDTH 13 0
BBX 16 29 -1 0
BITMAP
0038
007C
007C
0038
0000
0000
0000
03FF
00FC
00F8
00F8
00F0
01F0
01F0
01F0
03E0
03E0
03E0
03E0
07C0
07C0
07C0
0F80
0F80
0F80
0F80
1F00
3F80
FFE0
ENDCHAR
STARTCHAR 0131
ENCODING 305
SWIDTH 270 0
DWIDTH 9 0
BBX 7 15 1 0
BITMAP
0E
7E
3E
3C
3C
3C
3C
78
78
78
F0
F2
F4
F8
F0
ENDCHAR
STARTCHAR 0132
ENCODING 306
SWIDTH 810 0
DWIDTH 27 0
BBX 31 22 -1 0
BITMAP
03FF07FE
00FC01F8
00F801F0
00F801F0
00F001F0
01F003E0
01F003E0
01F003E0
03E007C0
03E007C0
03E007C0
03E007C0
07C00F80
07C00F80
07C00F80
0F801F00
0F861F00
0F8F1E00
0F8F3E00
1F0E3C00
3F8E7800
FFE7E000
ENDCHAR
STARTCHAR 0133
ENCODING 307
SWIDTH 540 0
DWIDTH 18 0
BBX 17 30 1 -7
BITMAP
070700
078780
078780
078780
000000
000000
000000
000000
0F0700
7F3F00
1E1F00
1E1E00
1E1E00
3C1E00
3C1E00
3C3C00
7C3C00
783C00
787C00
797800
F27800
FC7800
70F000
00F000
00F000
00E000
19E000
3DC000
3B8000
1E0000
ENDCHAR
STARTCHAR 0134
ENCODING 308
SWIDTH 510 0
DWIDTH 17 0
BBX 20 30 0 0
BITMAP
0003C0
0007E0
000EE0
001C60
003030
000000
000000
000000
007FF0
001F80
001F00
001F00
001F00
001E00
003E00
003E00
003E00
007C00
007C00
007C00
00F800
00F800
00F800
00F000
61F000
F1F000
F1E000
E3C000
E78000
7E0000
ENDCHAR
STARTCHAR 0135
ENCODING 309
SWIDTH 270 0
DWIDTH 9 0
BBX 16 30 -5 -7
BITMAP
001E
003E
0077
00C3
0183
0000
0000
0000
003C
01F8
0078
0078
0078
00F0
00F0
00F0
01E0
01E0
01E0
01E0
03C0
03C0
03C0
0780
0780
0700
E700
EE00
EC00
7800
ENDCHAR
STARTCHAR 0136
ENCODING 310
SWIDTH 660 0
DWIDTH 22 0
BBX 26 31 -1 -9
BITMAP
03FF7FC0
00FC3E00
00F81800
00F83000
00F84000
01F08000
01F10000
01F20000
01EE0000
03FF0000
03FF0000
03FF0000
07CF8000
07CF8000
07CF8000
07878000
0F87C000
0F87C000
0F03E000
1F03E000
3F87F000
FFEFF800
00000000
00000000
00700000
00780000
00780000
00300000
00300000
00600000
00800000
ENDCHAR
STARTCHAR 0137
ENCODING 311
SWIDTH 510 0
DWIDTH 17 0
BBX 17 32 0 -9
BITMAP
01E000
0FC000
03C000
03C000
07C000
078000
078000
078000
0F3F80
0F0E00
0F0C00
1F1000
1E2000
1E6000
1EE000
3DF000
3EF000
3CF000
7CF200
787A00
787C00
787800
F03000
000000
000000
070000
078000
078000
030000
030000
060000
080000
ENDCHAR
STARTCHAR 0138
ENCODING 312
SWIDTH 510 0
DWIDTH 17 0
BBX 17 15 0 0
BITMAP
073F80
3F0E00
0F0C00
0F1000
1E2000
1E6000
1EE000
3DF000
3EF000
3CF000
3CF000
78FA00
787E00
787C00
F03800
ENDCHAR
STARTCHAR 0139
ENCODING 313
SWIDTH 600 0
DWIDTH 20 0
BBX 20 31 -1 0
BITMAP
0007C0
000780
000700
000E00
000C00
000800
000000
000000
000000
03FF00
00FC00
00F800
00F800
00F800
01F000
01F000
01F000
01E000
03E000
03E000
03E000
07C000
07C000
07C000
0F8000
0F8010
0F8020
0F8060
1F01C0
3F07C0
FFFFC0
ENDCHAR
STARTCHAR 013A
ENCODING 314
SWIDTH 270 0
DWIDTH 9 0
BBX 13 30 0 0
BITMAP
00F8
00F0
00E0
00C0
01C0
0180
0000
01C0
0FC0
07C0
0780
0780
0780
0780
0F00
0F00
0F00
1E00
1E00
1E00
1E00
3C00
3C00
3C00
7800
7800
7900
7A00
FC00
7800
ENDCHAR
STARTCHAR 013B
ENCODING 315
SWIDTH 600 0
DWIDTH 20 0
BBX 20 31 -1 -9
BITMAP
03FF00
00FC00
00F800
00F800
00F800
01F000
01F000
01F000
01E000
03E000
03E000
03E000
07C000
07C000
07C000
0F8000
0F8010
0F8020
0F8060
1F01C0
3F07C0
FFFFC0
000000
000000
00E000
01E000
00E000
006000
004000
018000
030000
ENDCHAR
STARTCHAR 013C
ENCODING 316
SWIDTH 270 0
DWIDTH 9 0
BBX 11 32 -1 -9
BITMAP
00E0
07E0
03E0
03C0
03C0
03C0
03C0
0780
0780
0780
0F00
0F00
0F00
0F00
1E00
1E00
1E00
3C00
3C00
3C80
3D00
7E00
3C00
0000
0000
7000
7800
7800
3800
3000
6000
8000
ENDCHAR
STARTCHAR 013D
ENCODING 317
SWIDTH 600 0
DWIDTH 20 0
BBX 23 23 -1 0
BITMAP
00001C
03FF3E
00FC3E
00F83E
00F81E
00F80C
00F00C
01F018
01F070
01F0C0
03E000
03E000
03E000
03C000
07C000
07C000
07C000
0F8010
0F8020
0F8060
1F00E0
1F87C0
FFFFC0
ENDCHAR
STARTCHAR 013E
ENCODING 318
SWIDTH 510 0
DWIDTH 17 0
BBX 16 23 1 0
BITMAP
038E
1F9F
0F9F
079F
0F0F
0F07
0F06
1E0C
1E38
1E20
1E00
3C00
3C00
3C00
7800
7800
7800
F800
F000
F000
F200
F400
F800
ENDCHAR
STARTCHAR 013F
ENCODING 319
SWIDTH 600 0
DWIDTH 20 0
BBX 20 22 -1 0
BITMAP
03FF00
00FC00
00F800
00F800
00F800
01F000
01F000
01F000
01E700
03EF00
03EF00
03E700
07C000
07C000
07C000
0F8000
0F8010
0F8020
0F8060
1F01C0
3F07C0
FFFFC0
ENDCHAR
STARTCHAR 0140
ENCODING 320
SWIDTH 360 0
DWIDTH 12 0
BBX 12 23 0 0
BITMAP
01C0
0FC0
07C0
0780
0780
0780
0780
0F00
0F00
0F60
1EF0
1EF0
1E60
1E00
3C00
3C00
3C00
7800
7800
7900
7A00
FC00
7800
ENDCHAR
STARTCHAR 0141
ENCODING 321
SWIDTH 600 0
DWIDTH 20 0
BBX 20 22 -1 0
BITMAP
03FF00
00FC00
00F800
00F800
00F800
01F100
01F200
01FC00
01F800
03E000
03E000
03E000
0FC000
1FC000
37C000
478000
0F8010
0F8020
0F8060
1F01E0
3F87C0
FFFFC0
ENDCHAR
STARTCHAR 0142
ENCODING 322
SWIDTH 270 0
DWIDTH 9 0
BBX 10 22 0 0
BITMAP
01C0
0FC0
07C0
0780
0780
0780
0F80
0F40
0FC0
0F00
1E00
1E00
3E00
FC00
BC00
3C00
3C00
7800
7900
7A00
7C00
7800
ENDCHAR
STARTCHAR 0143
ENCODING 323
SWIDTH 720 0
DWIDTH 24 0
BBX 28 31 -1 0
BITMAP
00007800
0000F800
0000F000
0000E000
0001C000
00018000
00000000
00000000
00000000
07F807F0
01F803C0
00FC0180
00FC0100
00BE0100
01BE0300
011F0200
011F0200
030F0200
030F8400
02078400
0207C400
0607CC00
0403E800
0403E800
0C01F800
0801F000
0800F000
1800F000
18006000
38006000
FE002000
ENDCHAR
STARTCHAR 0144
ENCODING 324
SWIDTH 540 0
DWIDTH 18 0
BBX 16 23 1 0
BITMAP
003E
003C
0078
0070
0060
00C0
0000
0000
0F0E
7E3E
1E7E
1EDE
3F9E
3D1E
3E3C
3C3C
7C3C
787C
7878
F879
F07A
F07C
F078
ENDCHAR
STARTCHAR 0145
ENCODING 325
SWIDTH 720 0
DWIDTH 24 0
BBX 28 31 -1 -9
BITMAP
07F807F0
01F803C0
00FC0180
00FC0100
00BE0100
01BE0300
011F0200
011F0200
030F0200
030F8400
02078400
0207C400
0607CC00
0403E800
0403E800
0C01F800
0801F000
0800F000
1800F000
18006000
38006000
FE002000
00000000
00000000
00700000
00780000
00780000
00300000
00300000
00600000
00800000
ENDCHAR
STARTCHAR 0146
ENCODING 326
SWIDTH 540 0
DWIDTH 18 0
BBX 16 24 1 -9
BITMAP
0F0E
7E3E
1E7E
1EDE
3F9E
3D1E
3E3C
3C3C
7C3C
787C
7878
F879
F07A
F07C
F078
0000
0000
0E00
0F00
0F00
0600
0600
0C00
1000
ENDCHAR
STARTCHAR 0147
ENCODING 327
SWIDTH 720 0
DWIDTH 24 0
BBX 28 30 -1 0
BITMAP
00060C00
00071800
00077800
0003F000
0003E000
00000000
00000000
00000000
07F807F0
01F803C0
00FC0180
00FC0100
00BE0100
01BE0300
011F0200
011F0200
030F0200
030F8400
02078400
0207C400
0607CC00
0403E800
0403E800
0C01F800
0801F000
0800F000
1800F000
18006000
38006000
FE002000
ENDCHAR
STARTCHAR 0148
ENCODING 328
SWIDTH 540 0
DWIDTH 18 0
BBX 16 22 1 0
BITMAP
0306
038E
03BC
01F8
01F0
0000
0000
0F0E
7E3E
1E7E
1EDE
3F9E
3D1E
3E3C
3C3C
7C3C
787C
7878
F879
F07A
F07C
F078
ENDCHAR
STARTCHAR 0149
ENCODING 329
SWIDTH 720 0
DWIDTH 24 0
BBX 20 23 2 0
BITMAP
380000
7C0000
7C0000
7C0000
3C0000
1C0000
180000
300000
E070E0
83F1F0
01F3F0
01E4F0
01E9E0
01F1E0
03E1E0
03E3E0
03C3C0
07C3C0
0783C0
078790
0787A0
0F07C0
0F0780
ENDCHAR
STARTCHAR 014A
ENCODING 330
SWIDTH 780 0
DWIDTH 26 0
BBX 27 23 -1 0
BITMAP
00003E00
03FC4700
00F98380
00FA03C0
00FC03C0
00F803C0
01F803C0
01F007E0
01F007C0
01E007C0
03E007C0
03E00FC0
03E00FC0
07C00F80
07C00F80
07C01F00
0F801F00
0F801E00
0F873C00
0F073C00
1F0F3800
3F8F6000
FFE78000
ENDCHAR
STARTCHAR 014B
ENCODING 331
SWIDTH 540 0
DWIDTH 18 0
BBX 15 22 1 -7
BITMAP
0F1E
7E3E
1E7E
1EDE
3D9E
3D1E
3E3C
3C3C
7C3C
7878
7878
F078
F0F8
F0F0
F0F0
01E0
01E0
01E0
3BC0
3B80
3300
3E00
ENDCHAR
STARTCHAR 014C
ENCODING 332
SWIDTH 720 0
DWIDTH 24 0
BBX 22 28 2 0
BITMAP
003FF8
007FF8
007FF0
000000
000000
001F80
0061E0
01C0F0
0380F8
0F80F8
0F0078
1F00FC
3E00FC
3E00FC
7C00FC
7C00F8
FC00F8
FC01F8
F801F0
F801F0
F803E0
F803E0
F807C0
F80780
780F00
781E00
3C3800
0FE000
ENDCHAR
STARTCHAR 014D
ENCODING 333
SWIDTH 510 0
DWIDTH 17 0
BBX 16 20 1 0
BITMAP
07FF
07FF
07FF
0000
0000
01F0
0738
0E1C
1C3C
3C3E
783C
783C
F83C
F07C
F078
F0F0
F0F0
F1E0
7180
3E00
ENDCHAR
STARTCHAR 014E
ENCODING 334
SWIDTH 720 0
DWIDTH 24 0
BBX 22 30 2 0
BITMAP
001010
001860
001FE0
001FC0
000F00
000000
000000
001F80
0061E0
01C0F0
0380F8
0F80F8
0F0078
1F00FC
3E00FC
3E00FC
7C00FC
7C00F8
FC00F8
FC01F8
F801F0
F801F0
F803E0
F803E0
F807C0
F80780
780F00
781E00
3C3800
0FE000
ENDCHAR
STARTCHAR 014F
ENCODING 335
SWIDTH 510 0
DWIDTH 17 0
BBX 15 22 1 0
BITMAP
0202
0304
03FC
01F8
00F0
0000
0000
01F0
0738
0E1C
1C3C
3C3E
783C
783C
F83C
F07C
F078
F0F0
F0F0
F1E0
7180
3E00
ENDCHAR
STARTCHAR 0150
ENCODING 336
SWIDTH 720 0
DWIDTH 24 0
BBX 22 31 2 0
BITMAP
000FBC
000F78
000E70
001C70
0018E0
0010C0
000000
000000
001F80
0061E0
01C0F0
0380F8
0F80F8
0F0078
1F00FC
3E00FC
3E00FC
7C00FC
7C00F8
FC00F8
FC01F8
F801F0
F801F0
F803E0
F803E0
F807C0
F80780
780F00
781E00
3C3800
0FE000
ENDCHAR
STARTCHAR 0151
ENCODING 337
SWIDTH 510 0
DWIDTH 17 0
BBX 19 23 1 0
BITMAP
007BE0
00F7C0
00E780
00E700
01C600
018C00
000000
000000
01F000
073800
0E1C00
1C3C00
3C3E00
783C00
783C00
F83C00
F07C00
F07800
F0F000
F0F000
F1E000
718000
3E0000
ENDCHAR
STARTCHAR 0152
ENCODING 338
SWIDTH 930 0
DWIDTH 31 0
BBX 29 22 2 0
BITMAP
001FFFF8
00F1F878
01E0F818
07C0F818
0F80F810
1F00F000
1F01F040
3E01F080
7E01E080
7C03E380
7C03FF00
FC03E300
F803C100
F807C100
F807C200
F8078000
F80F8020
780F8040
780F80C0
381F03C0
1C3F0F80
07FFFF80
ENDCHAR
STARTCHAR 0153
ENCODING 339
SWIDTH 720 0
DWIDTH 24 0
BBX 23 15 1 0
BITMAP
01F07C
07399E
0E3F1E
1C3E1C
3C3E3C
783C38
783C70
F83DE0
F07F00
F07800
F07800
F0F808
F1FC30
71BFE0
3E1F80
ENDCHAR
STARTCHAR 0154
ENCODING 340
SWIDTH 660 0
DWIDTH 22 0
BBX 22 31 -1 0
BITMAP
0003E0
0003C0
000380
000700
000600
000400
000000
000000
000000
03FFE0
00F8F8
00F878
00F87C
00F07C
01F07C
01F07C
01E0F8
03E1F0
03E3E0
03FF00
03CF00
07CF80
07CF80
078780
0F87C0
0F87C0
0F87C0
0F03C0
1F03E0
3F83F0
FFE3F8
ENDCHAR
STARTCHAR 0155
ENCODING 341
SWIDTH 390 0
DWIDTH 13 0
BBX 13 23 1 0
BITMAP
00F8
00F0
00E0
01C0
0180
0100
0000
0000
1E70
7CF0
3CF0
3DF0
3D60
3A00
3A00
7C00
7C00
7800
7800
F000
F000
F000
F000
ENDCHAR
STARTCHAR 0156
ENCODING 342
SWIDTH 660 0
DWIDTH 22 0
BBX 22 31 -1 -9
BITMAP
03FFE0
00F8F8
00F878
00F87C
00F07C
01F07C
01F07C
01E0F8
03E1F0
03E3E0
03FF00
03CF00
07CF80
07CF80
078780
0F87C0
0F87C0
0F87C0
0F03C0
1F03E0
3F83F0
FFE3F8
000000
000000
007000
007800
007800
003000
003000
006000
008000
ENDCHAR
STARTCHAR 0157
ENCODING 343
SWIDTH 390 0
DWIDTH 13 0
BBX 14 24 -1 -9
BITMAP
079C
1F3C
0F3C
0F7C
0F58
0E80
0E80
1F00
1F00
1E00
1E00
3C00
3C00
3C00
3C00
0000
0000
3000
7800
7800
3800
3000
6000
8000
ENDCHAR
STARTCHAR 0158
ENCODING 344
SWIDTH 660 0
DWIDTH 22 0
BBX 22 30 -1 0
BITMAP
003830
0018E0
001DC0
001FC0
000F80
000000
000000
000000
03FFE0
00F8F8
00F878
00F87C
00F07C
01F07C
01F07C
01E0F8
03E1F0
03E3E0
03FF00
03CF00
07CF80
07CF80
078780
0F87C0
0F87C0
0F87C0
0F03C0
1F03E0
3F83F0
FFE3F8
ENDCHAR
STARTCHAR 0159
ENCODING 345
SWIDTH 390 0
DWIDTH 13 0
BBX 12 22 1 0
BITMAP
1830
1C70
0CE0
0FC0
0F80
0000
0000
1E70
7CF0
3CF0
3DF0
3D60
3A00
3A00
7C00
7C00
7800
7800
F000
F000
F000
F000
ENDCHAR
STARTCHAR 015A
ENCODING 346
SWIDTH 540 0
DWIDTH 18 0
BBX 20 31 -1 0
BITMAP
0007C0
000780
000F00
000E00
000C00
001800
000000
000000
007E10
00F1F0
01E0F0
03C060
03C060
07C020
07C020
07E020
03F000
03F800
01F800
00FC00
007E00
007F00
003F80
201F80
200F80
200F80
700F80
700F00
780F00
7C3E00
83F000
ENDCHAR
STARTCHAR 015B
ENCODING 347
SWIDTH 390 0
DWIDTH 13 0
BBX 13 23 0 0
BITMAP
0078
00F8
00F0
00E0
00C0
0180
0000
0000
07D0
1C70
1C30
3C10
3E10
1F00
1F80
0FC0
07C0
03E0
81E0
41C0
C1C0
F180
9F00
ENDCHAR
STARTCHAR 015C
ENCODING 348
SWIDTH 540 0
DWIDTH 18 0
BBX 20 30 -1 0
BITMAP
0003C0
0007C0
000EE0
001860
003060
000000
000000
007E10
00F1F0
01E0F0
03C060
03C060
07C020
07C020
07E020
03F000
03F800
01F800
00FC00
007E00
007F00
003F80
201F80
200F80
200F80
700F80
700F00
780F00
7C3E00
83F000
ENDCHAR
STARTCHAR 015D
ENCODING 349
SWIDTH 390 0
DWIDTH 13 0
BBX 13 22 0 0
BITMAP
00F0
01F0
03B8
0618
0C08
0000
0000
07D0
1C70
1C30
3C10
3E10
1F00
1F80
0FC0
07C0
03E0
81E0
41C0
C1C0
F180
9F00
ENDCHAR
STARTCHAR 015E
ENCODING 350
SWIDTH 540 0
DWIDTH 18 0
BBX 20 29 -1 -6
BITMAP
007E10
00F1F0
01E0F0
03C060
03C060
07C020
07C020
07E020
03F000
03F800
01F800
00FC00
007E00
007F00
003F80
201F80
200F80
200F80
700F80
700F00
780F00
7C3E00
C3F800
018000
03C000
00E000
00E000
01E000
0F8000
ENDCHAR
STARTCHAR 015F
ENCODING 351
SWIDTH 390 0
DWIDTH 13 0
BBX 12 21 0 -6
BITMAP
07D0
1C70
1C30
3C10
3E10
1F00
1F80
0FC0
07C0
03E0
81E0
41C0
C1C0
F180
9F00
0C00
1E00
0E00
0700
0E00
7C00
ENDCHAR
STARTCHAR 0160
ENCODING 352
SWIDTH 540 0
DWIDTH 18 0
BBX 20 30 -1 0
BITMAP
0060C0
007180
007780
003F00
003E00
000000
000000
007E10
00F1F0
01E0F0
03C060
03C060
07C020
07C020
07E020
03F000
03F800
01F800
00FC00
007E00
007F00
003F80
201F80
200F80
200F80
700F80
700F00
780F00
7C3E00
83F000
ENDCHAR
STARTCHAR 0161
ENCODING 353
SWIDTH 390 0
DWIDTH 13 0
BBX 13 22 0 0
BITMAP
0C18
0E38
0EF0
07E0
07C0
0000
0000
07D0
1C70
1C30
3C10
3E10
1F00
1F80
0FC0
07C0
03E0
81E0
41C0
C1C0
F180
9F00
ENDCHAR
STARTCHAR 0162
ENCODING 354
SWIDTH 600 0
DWIDTH 20 0
BBX 20 28 3 -6
BITMAP
3FFFF0
3CF8E0
30F860
60F860
41F020
81F040
01F000
01E000
03E000
03E000
03E000
07C000
07C000
07C000
078000
0F8000
0F8000
0F8000
1F0000
1F0000
3F0000
FFE000
080000
3C0000
0E0000
0E0000
0E0000
FC0000
ENDCHAR
STARTCHAR 0163
ENCODING 355
SWIDTH 270 0
DWIDTH 9 0
BBX 12 25 -2 -6
BITMAP
0020
0060
00E0
01C0
07F0
0FF0
07C0
0780
0780
0780
0F00
0F00
0F00
1F00
1E00
1E40
1E80
1F00
1E00
0800
3C00
0E00
0E00
0E00
FC00
ENDCHAR
STARTCHAR 0164
ENCODING 356
SWIDTH 600 0
DWIDTH 20 0
BBX 20 30 3 0
BITMAP
00C180
00E300
00EF00
007E00
007C00
000000
000000
000000
3FFFF0
3CF8E0
30F860
60F860
41F020
81F040
01F000
01E000
03E000
03E000
03E000
07C000
07C000
07C000
078000
0F8000
0F8000
0F8000
1F0000
1F0000
3F0000
FFE000
ENDCHAR
STARTCHAR 0165
ENCODING 357
SWIDTH 540 0
DWIDTH 18 0
BBX 17 23 1 0
BITMAP
000700
000F80
000F80
000F80
010780
030300
070300
0E0600
3F8C00
7FB000
3E0000
3C0000
3C0000
3C0000
780000
780000
780000
F80000
F00000
F20000
F40000
F80000
F00000
ENDCHAR
STARTCHAR 0166
ENCODING 358
SWIDTH 600 0
DWIDTH 20 0
BBX 20 22 3 0
BITMAP
3FFFF0
3CF9E0
70F860
60F860
41F020
81F040
01F000
03E000
03E000
03E000
7FFE00
07C000
07C000
07C000
0F8000
0F8000
0F8000
0F0000
1F0000
1F0000
3F0000
FFC000
ENDCHAR
STARTCHAR 0167
ENCODING 359
SWIDTH 270 0
DWIDTH 9 0
BBX 10 19 0 0
BITMAP
0080
0180
0380
0F00
3FC0
3FC0
1E00
1E00
1E00
FF80
3C00
3C00
3C00
7C00
7800
7900
7A00
7C00
7800
ENDCHAR
STARTCHAR 0168
ENCODING 360
SWIDTH 720 0
DWIDTH 24 0
BBX 24 29 3 0
BITMAP
001E20
003FE0
007FE0
0047C0
000000
000000
000000
7FF0FF
1FC03C
0F8018
0F8010
1F0010
1F0030
1F0020
1E0020
3E0060
3E0040
3C0040
7C00C0
7C0080
780080
F80080
F80100
F80100
F80300
F80600
7E0C00
3FF800
0FE000
ENDCHAR
STARTCHAR 0169
ENCODING 361
SWIDTH 540 0
DWIDTH 18 0
BBX 16 21 1 0
BITMAP
01F1
03FF
03FE
023C
0000
0000
0F0F
7E0F
1E1E
1E1E
3C1E
3C3E
3C3C
3C7C
78FC
78F8
7978
F27A
FCFA
F8FC
7070
ENDCHAR
STARTCHAR 016A
ENCODING 362
SWIDTH 720 0
DWIDTH 24 0
BBX 24 28 3 0
BITMAP
007FF0
00FFF0
00FFE0
000000
000000
000000
7FF0FF
1FC03C
0F8018
0F8010
1F0010
1F0030
1F0020
1E0020
3E0060
3E0040
3C0040
7C00C0
7C0080
780080
F80080
F80100
F80100
F80300
F80600
7E0C00
3FF800
0FE000
ENDCHAR
STARTCHAR 016B
ENCODING 363
SWIDTH 540 0
DWIDTH 18 0
BBX 17 20 1 0
BITMAP
07FF80
07FF00
07FF00
000000
000000
0F0F00
7E0F00
1E1E00
1E1E00
3C1E00
3C3E00
3C3C00
3C7C00
78FC00
78F800
797800
F27A00
FCFA00
F8FC00
707000
ENDCHAR
STARTCHAR 016C
ENCODING 364
SWIDTH 720 0
DWIDTH 24 0
BBX 24 30 3 0
BITMAP
001020
001860
001FC0
001FC0
000F00
000000
000000
000000
7FF0FF
1FC03C
0F8018
0F8010
1F0010
1F0030
1F0020
1E0020
3E0060
3E0040
3C0040
7C00C0
7C0080
780080
F80080
F80100
F80100
F80300
F80600
7E0C00
3FF800
0FE000
ENDCHAR
STARTCHAR 016D
ENCODING 365
SWIDTH 540 0
DWIDTH 18 0
BBX 16 22 1 0
BITMAP
0101
0186
01FE
01FC
00F0
0000
0000
0F0F
7E0F
1E1E
1E1E
3C1E
3C3E
3C3C
3C7C
78FC
78F8
7978
F27A
FCFA
F8FC
7070
ENDCHAR
STARTCHAR 016E
ENCODING 366
SWIDTH 720 0
DWIDTH 24 0
BBX 24 32 3 0
BITMAP
000E00
001100
003080
002080
003080
001100
000E00
000000
000000
000000
7FF0FF
1FC03C
0F8018
0F8010
1F0010
1F0030
1F0020
1E0020
3E0060
3E0040
3C0040
7C00C0
7C0080
780080
F80080
F80100
F80100
F80300
F80600
7E0C00
3FF800
0FE000
ENDCHAR
STARTCHAR 016F
ENCODING 367
SWIDTH 540 0
DWIDTH 18 0
BBX 16 24 1 0
BITMAP
00F0
0198
0108
010C
0108
0198
00F0
0000
0000
0F0F
7E0F
1E1E
1E1E
3C1E
3C3E
3C3C
3C7C
78FC
78F8
7978
F27A
FCFA
F8FC
7070
ENDCHAR
STARTCHAR 0170
ENCODING 368
SWIDTH 720 0
DWIDTH 24 0
BBX 24 31 3 0
BITMAP
003FF0
003DE0
0079C0
007380
006300
00C200
000000
000000
000000
7FF0FF
1FC03C
0F8018
0F8010
1F0010
1F0030
1F0020
1E0020
3E0060
3E0040
3C0040
7C00C0
7C0080
780080
F80080
F80100
F80100
F80300
F80600
7E0C00
3FF800
0FE000
ENDCHAR
STARTCHAR 0171
ENCODING 369
SWIDTH 540 0
DWIDTH 18 0
BBX 18 23 1 0
BITMAP
00FBC0
00F780
00E780
01C700
018E00
018C00
000000
000000
0F0F00
7E0F00
1E1E00
1E1E00
3C1E00
3C3E00
3C3C00
3C7C00
78FC00
78F800
797800
F27A00
FCFA00
F8FC00
707000
ENDCHAR
STARTCHAR 0172
ENCODING 370
SWIDTH 720 0
DWIDTH 24 0
BBX 24 29 3 -7
BITMAP
7FF0FF
1FC03C
0F8018
0F8010
1F0010
1F0030
1F0020
1E0020
3E0060
3E0040
3C0040
7C00C0
7C0080
780080
F80080
F80100
F80100
F80300
F80600
7E0C00
3FF800
0FF000
004000
018000
038000
030000
070000
070000
03C000
ENDCHAR
STARTCHAR 0173
ENCODING 371
SWIDTH 540 0
DWIDTH 18 0
BBX 16 22 1 -7
BITMAP
0F0F
7E0F
1E1E
1E1E
3C1E
3C3E
3C3C
3C7C
78FC
78F8
7978
F27A
FCFA
F8FC
7078
0020
00C0
01C0
0180
0380
0380
01E0
ENDCHAR
STARTCHAR 0174
ENCODING 372
SWIDTH 870 0
DWIDTH 29 0
BBX 29 30 4 0
BITMAP
0001E000
0003F000
00077000
000E3000
00181800
00000000
00000000
00000000
FF9FF1F8
7E0FC0F0
3E0F8060
3C0F8040
3C0F8080
3C0F8180
3C0F8300
3C1F8600
7C3F8400
7C2F8C00
7C4F9800
7C8F1000
7D8F2000
7D0F4000
7E0FC000
7C1F8000
7C1F0000
781E0000
701E0000
601C0000
C0180000
C0100000
ENDCHAR
STARTCHAR 0175
ENCODING 373
SWIDTH 660 0
DWIDTH 22 0
BBX 21 22 1 0
BITMAP
000780
000FC0
001DC0
0038C0
006060
000000
000000
1C0830
FC1878
3C1878
3C3C78
3C7C30
3C7C30
3CBC20
3D3C20
3E3C40
3E3C80
3C3D00
383E00
383C00
301800
201000
ENDCHAR
STARTCHAR 0176
ENCODING 374
SWIDTH 600 0
DWIDTH 20 0
BBX 21 30 3 0
BITMAP
000F00
001F00
003B80
006180
00C080
000000
000000
000000
7FF3F8
3F81E0
1F80C0
0F8080
0F8100
0F8300
0F8200
078400
07CC00
07C800
07D000
03E000
03E000
07C000
07C000
07C000
078000
0F8000
0F8000
0F8000
1F8000
FFE000
ENDCHAR
STARTCHAR 0177
ENCODING 375
SWIDTH 450 0
DWIDTH 15 0
BBX 18 29 -3 -7
BITMAP
001F00
003F00
007B00
00E180
008180
000000
000000
038380
0FC780
03C7C0
03C380
03C180
03C180
03C100
03C300
01C200
01E400
01E400
01E800
01F000
01F000
01E000
01C000
018000
010000
610000
F20000
FC0000
700000
ENDCHAR
STARTCHAR 0178
ENCODING 376
SWIDTH 600 0
DWIDTH 20 0
BBX 21 29 3 0
BITMAP
00E380
01E780
01E780
00E380
000000
000000
000000
7FF3F8
3F81E0
1F80C0
0F8080
0F8100
0F8300
0F8200
078400
07CC00
07C800
07D000
03E000
03E000
07C000
07C000
07C000
078000
0F8000
0F8000
0F8000
1F8000
FFE000
ENDCHAR
STARTCHAR 0179
ENCODING 377
SWIDTH 600 0
DWIDTH 20 0
BBX 23 31 -1 0
BITMAP
0003E0
0003C0
000780
000700
000600
000C00
000000
000000
000000
01FFFE
03C0FE
0300FC
0201F8
0403F0
0007E0
000FC0
001FC0
001F80
003F00
007E00
00FC00
01FC00
01F800
03F000
07E000
0FC020
1FC060
1F80C0
3F01C0
7E0FC0
FFFF80
ENDCHAR
STARTCHAR 017A
ENCODING 378
SWIDTH 390 0
DWIDTH 13 0
BBX 14 26 0 -3
BITMAP
007C
0078
00F0
00E0
00C0
0180
0000
0000
1FF8
1FF0
3FE0
3FC0
2080
0080
0100
0200
0400
0800
1000
1800
3C60
7CF0
FCF0
1EF0
0EE0
03C0
ENDCHAR
STARTCHAR 017B
ENCODING 379
SWIDTH 600 0
DWIDTH 20 0
BBX 23 29 -1 0
BITMAP
000F00
000F00
000F00
000F00
000000
000000
000000
01FFFE
03C0FE
0300FC
0201F8
0403F0
0007E0
000FC0
001FC0
001F80
003F00
007E00
00FC00
01FC00
01F800
03F000
07E000
0FC020
1FC060
1F80C0
3F01C0
7E0FC0
FFFF80
ENDCHAR
STARTCHAR 017C
ENCODING 380
SWIDTH 390 0
DWIDTH 13 0
BBX 13 24 0 -3
BITMAP
01C0
03E0
03E0
01C0
0000
0000
1FF8
1FF0
3FE0
3FC0
2080
0080
0100
0200
0400
0800
1000
1800
3C60
7CF0
FCF0
1EF0
0EE0
03C0
ENDCHAR
STARTCHAR 017D
ENCODING 381
SWIDTH 600 0
DWIDTH 20 0
BBX 23 30 -1 0
BITMAP
001830
001C60
001DE0
000FC0
000F80
000000
000000
000000
01FFFE
03C0FE
0300FC
0201F8
0403F0
0007E0
000FC0
001FC0
001F80
003F00
007E00
00FC00
01FC00
01F800
03F000
07E000
0FC020
1FC060
1F80C0
3F01C0
7E0FC0
FFFF80
ENDCHAR
STARTCHAR 017E
ENCODING 382
SWIDTH 390 0
DWIDTH 13 0
BBX 13 25 0 -3
BITMAP
0C18
0E38
0EF0
07E0
07C0
0000
0000
1FF8
1FF0
3FE0
3FC0
2080
0080
0100
0200
0400
0800
1000
1800
3C60
7CF0
FCF0
1EF0
0EE0
03C0
ENDCHAR
STARTCHAR 017F
ENCODING 383
SWIDTH 330 0
DWIDTH 11 0
BBX 22 30 -5 -7
BITMAP
0000F8
00039C
00071C
000F18
000E00
001E00
001E00
003C00
003C00
003C00
007800
007800
007800
00F800
00F000
00F000
00F000
01F000
01E000
01E000
01E000
03E000
03C000
03C000
038000
078000
E70000
E70000
EE0000
F80000
ENDCHAR
STARTCHAR 0180
ENCODING 384
SWIDTH 510 0
DWIDTH 17 0
BBX 15 23 0 0
BITMAP
01C0
0FC0
03C0
0780
1FFC
0780
0780
0F00
0F3C
0FFE
1F1E
1E1E
1E1E
1E1E
3C1E
3C1E
3C1E
783C
783C
7878
78F0
F1E0
1F80
ENDCHAR
STARTCHAR 0181
ENCODING 385
SWIDTH 720 0
DWIDTH 24 0
BBX 22 22 1 0
BITMAP
1FFFE0
38F8F8
38F878
78F07C
31F07C
01F07C
01F0F8
01E0F8
03E1F0
03E3C0
03FE00
07C780
07C1E0
07C1F0
0781F0
0F81F0
0F81F0
0F01F0
1F03E0
1F07C0
3F1F80
FFFE00
ENDCHAR
STARTCHAR 0182
ENCODING 386
SWIDTH 630 0
DWIDTH 21 0
BBX 23 22 -1 0
BITMAP
03FFFE
00F83C
00F80C
00F80C
01F008
01F008
01F000
01F000
03E000
03E000
03FF00
03C7C0
07C3E0
07C1F0
07C1F0
0F81F0
0F81F0
0F83F0
0F03E0
1F07C0
3F0F80
FFFE00
ENDCHAR
STARTCHAR 0183
ENCODING 387
SWIDTH 510 0
DWIDTH 17 0
BBX 18 22 0 0
BITMAP
03FFC0
03C3C0
03C1C0
078080
078080
078080
0F0000
0F3C00
0FFE00
1F1E00
1E1E00
1E1E00
1E1E00
3C1E00
3C1E00
3C1E00
783C00
783C00
787800
78F000
F1E000
1F8000
ENDCHAR
STARTCHAR 0184
ENCODING 388
SWIDTH 630 0
DWIDTH 21 0
BBX 20 22 -1 0
BITMAP
000C00
003800
00F800
03F800
07F000
07F000
03F000
03F000
03E000
03E000
03FF00
03C7C0
07C3E0
07C1F0
0781F0
0F81F0
0F81F0
0F83F0
1F03E0
1F07C0
3F0F80
FFFE00
ENDCHAR
STARTCHAR 0185
ENCODING 389
SWIDTH 510 0
DWIDTH 17 0
BBX 15 22 0 0
BITMAP
00C0
01C0
07C0
1F80
3F80
1F80
1F00
0F3C
0FFE
0F1E
1E1E
1E1E
1E1E
1C1E
3C1E
3C1E
383C
783C
7878
78F0
F1E0
1F80
ENDCHAR
STARTCHAR 0186
ENCODING 390
SWIDTH 660 0
DWIDTH 22 0
BBX 22 23 0 0
BITMAP
003F00
00FFC0
0183F0
0201F0
0400F8
0800F8
00007C
00007C
00007C
00007C
0000FC
0000FC
0000F8
0000F8
0001F8
0001F0
4003E0
6003E0
6007C0
600F80
701E00
783800
8FE000
ENDCHAR
STARTCHAR 0187
ENCODING 391
SWIDTH 660 0
DWIDTH 22 0
BBX 28 28 2 0
BITMAP
000000E0
00000370
00000270
000004F0
00000460
001FCC00
00787800
01E03800
07C01800
0F801800
1F001800
1F001000
3E000000
7E000000
7C000000
7C000000
FC000000
FC000000
F8000000
F8000000
F8000000
F8000000
7C004000
7C008000
3E010000
3F060000
0FFC0000
03F00000
ENDCHAR
STARTCHAR 0188
ENCODING 392
SWIDTH 450 0
DWIDTH 15 0
BBX 21 20 1 0
BITMAP
0000F0
000138
000138
000278
000270
01F200
071C00
0E0C00
1C0400
380400
780000
780000
F00000
F00000
F00000
F00000
F01000
F86000
7FC000
3E0000
ENDCHAR
STARTCHAR 0189
ENCODING 393
SWIDTH 720 0
DWIDTH 24 0
BBX 24 22 -1 0
BITMAP
03FFC0
00F8F0
00F87C
00F83E
00F83E
01F01F
01F01F
01F01F
01E01F
03E01F
1FFF1F
03E01F
07C03F
07C03F
07C03E
0F807C
0F807C
0F80F8
0F01F0
1F03E0
3F8780
FFFC00
ENDCHAR
STARTCHAR 018A
ENCODING 394
SWIDTH 780 0
DWIDTH 26 0
BBX 24 22 1 0
BITMAP
0FFF80
38F8F0
38F87C
78F83C
30F03E
01F01F
01F01F
01F01F
03E01F
03E01F
03E01F
03C03F
07C03F
07C03E
07C03E
0F807C
0F8078
0F80F8
1F81F0
1F03C0
3F0F80
FFFC00
ENDCHAR
STARTCHAR 018B
ENCODING 395
SWIDTH 630 0
DWIDTH 21 0
BBX 24 22 0 0
BITMAP
03FFFF
0781F8
0601F0
0401F0
0403E0
0803E0
0003E0
0003E0
0007C0
0007C0
03FFC0
1F0F80
3E0F80
7C0F80
7C0F00
F81F00
F81F00
F81F00
F81E00
7C3E00
7E3E00
1FFF80
ENDCHAR
STARTCHAR 018C
ENCODING 396
SWIDTH 510 0
DWIDTH 17 0
BBX 17 22 1 0
BITMAP
07FF80
0F0F00
0C0F00
080F00
080F00
101E00
001E00
03DE00
073C00
1E3C00
1C3C00
3C3C00
787800
787800
F87800
F0F000
F0F000
F1F000
F2F400
F5E400
F9F800
70E000
ENDCHAR
STARTCHAR 018D
ENCODING 397
SWIDTH 510 0
DWIDTH 17 0
BBX 16 22 0 -7
BITMAP
00F8
039E
070F
0E0F
1E0F
3C0F
3C1F
7C1F
781E
783C
7878
7870
7DC0
3F00
1E00
0F00
0700
0380
6180
F080
7980
1F00
ENDCHAR
STARTCHAR 018E
ENCODING 398
SWIDTH 660 0
DWIDTH 22 0
BBX 25 22 0 0
BITMAP
01FFFF80
01E07C00
0180F800
0200F800
0200F800
0001F000
0081F000
0081F000
0081E000
01C3E000
01FFE000
0183E000
0107C000
0207C000
0207C000
00078000
400F8000
400F8000
E00F8000
F00F0000
F81F8000
FFFFE000
ENDCHAR
STARTCHAR 018F
ENCODING 399
SWIDTH 720 0
DWIDTH 24 0
BBX 22 23 2 0
BITMAP
023F00
03C3C0
0301E0
0600F0
0400F8
0400F8
0800F8
0000FC
0000FC
0000FC
FFFFFC
FC00FC
F800F8
F801F8
F801F8
F801F0
F803F0
F803E0
F807C0
780F80
3C1F00
3C3C00
0FF000
ENDCHAR
STARTCHAR 0190
ENCODING 400
SWIDTH 510 0
DWIDTH 17 0
BBX 19 23 0 0
BITMAP
003F20
007FE0
01F0C0
03E040
03C040
07C040
07C000
078000
07C000
03C000
01E000
01F800
07C000
1F0000
3E0000
7C0000
780000
F80000
F80200
F80C00
FC3800
7FE000
1F0000
ENDCHAR
STARTCHAR 0191
ENCODING 401
SWIDTH 660 0
DWIDTH 22 0
BBX 27 29 -3 -7
BITMAP
007FFFE0
001F01C0
001F00C0
001F00C0
001E0040
001E0040
003E0400
003E0800
003C3800
007FF800
007C3000
00781000
00F81000
00F82000
00F80000
00F00000
01F00000
01F00000
01F00000
03E00000
03E00000
03E00000
07C00000
07C00000
07800000
E7800000
EF000000
CE000000
F8000000
ENDCHAR
STARTCHAR 0192
ENCODING 402
SWIDTH 510 0
DWIDTH 17 0
BBX 17 30 0 -7
BITMAP
000F00
001300
003780
007300
007000
007000
00F000
01F000
07FC00
07FC00
01E000
01E000
03E000
03E000
03E000
03C000
03C000
07C000
07C000
07C000
078000
078000
078000
0F8000
070000
070000
660000
E60000
EC0000
700000
ENDCHAR
STARTCHAR 0193
ENCODING 403
SWIDTH 720 0
DWIDTH 24 0
BBX 29 28 2 0
BITMAP
00000070
000001B8
00000138
00000278
00000230
001FE600
00783C00
01E01C00
07C00C00
0F800C00
1F000800
3F000800
3E000000
7E000000
7C000000
7C000000
FC000000
FC0FFC00
F803F000
F803E000
F803E000
7803E000
7C03C000
3C07C000
3C07C000
1E078000
0F0F8000
03FC0000
ENDCHAR
STARTCHAR 0194
ENCODING 404
SWIDTH 690 0
DWIDTH 23 0
BBX 25 29 3 -7
BITMAP
FFC03F80
3F001E00
3F000C00
1E001800
1F001000
1F002000
1F006000
1F00C000
1F018000
0F010000
0F830000
0F860000
0F8C0000
0F880000
0F900000
07B00000
07E00000
07C00000
07C00000
07C00000
07C00000
07C00000
0FC00000
0BE00000
1BE00000
33C00000
33C00000
37800000
1E000000
ENDCHAR
STARTCHAR 0195
ENCODING 405
SWIDTH 780 0
DWIDTH 26 0
BBX 25 23 1 0
BITMAP
03C00000
1F800000
07800000
07800000
07800000
0F000000
0F000000
0F000000
0F0E0F80
1E3E0F00
1E7E0F00
1EDE0F00
3D9E1E00
3D1E1E00
3E3C1E00
3C3C3E00
7C3C3C00
78783C00
78783800
F0787800
F0787000
F078E000
F01F8000
ENDCHAR
STARTCHAR 0196
ENCODING 406
SWIDTH 270 0
DWIDTH 9 0
BBX 10 23 0 0
BITMAP
01C0
0FC0
07C0
0780
0780
0780
0780
0F00
0F00
0F00
1E00
1E00
1E00
1E00
3C00
3C00
3C00
7800
7800
7900
7A00
FC00
7800
ENDCHAR
STARTCHAR 0197
ENCODING 407
SWIDTH 390 0
DWIDTH 13 0
BBX 16 22 -1 0
BITMAP
03FF
00FC
00F8
00F8
00F8
01F0
01F0
01F0
01E0
03E0
1FFC
03C0
07C0
07C0
07C0
0F80
0F80
0F80
0F00
1F00
3F80
FFE0
ENDCHAR
STARTCHAR 0198
ENCODING 408
SWIDTH 660 0
DWIDTH 22 0
BBX 27 23 -1 0
BITMAP
000F8000
003DDFE0
0079CF80
00F98E00
00F80C00
01F01000
01F06000
01F08000
01F10000
03E60000
03EF0000
03FF0000
03FF0000
07CF8000
07CF8000
07CF8000
0F87C000
0F87C000
0F87C000
1F03E000
1F03E000
3F87F000
FFEFF800
ENDCHAR
STARTCHAR 0199
ENCODING 409
SWIDTH 510 0
DWIDTH 17 0
BBX 17 23 0 0
BITMAP
003E00
007700
01E700
01C700
03C000
078000
078000
078000
0F3F80
0F0E00
0F0800
1F1000
1E2000
1E6000
1EE000
3FF000
3CF000
3CF000
78F200
787A00
787C00
787800
F03000
ENDCHAR
STARTCHAR 019A
ENCODING 410
SWIDTH 270 0
DWIDTH 9 0
BBX 10 23 0 0
BITMAP
01C0
0FC0
07C0
0780
0780
0780
0780
0F00
0F00
0F00
0F00
FFC0
1E00
1E00
3C00
3C00
3C00
7800
7800
7900
7A00
7C00
7800
ENDCHAR
STARTCHAR 019B
ENCODING 411
SWIDTH 450 0
DWIDTH 15 0
BBX 15 23 -1 0
BITMAP
00E0
01E0
03F6
0238
0210
0030
0050
0090
0130
0620
0060
00E0
01E0
01E0
03E0
07E0
0FA0
1F20
1F20
3E22
7C3E
F83C
F818
ENDCHAR
STARTCHAR 019C
ENCODING 412
SWIDTH 840 0
DWIDTH 28 0
BBX 29 22 1 0
BITMAP
0FF7FFF8
07E3E3F0
07C3E3E0
07C3E3E0
07C7C3E0
0F87C3C0
0F87C7C0
0F8F87C0
1F0F8780
1F0F8F80
1F0F0F80
1E1F0F00
3E1F1F00
3E3E1F00
3E3E3F00
7C7E3E00
7CBE7E00
7CFCBE00
797D3C00
FE7F7C00
7C7E7F00
78387800
ENDCHAR
STARTCHAR 019D
ENCODING 413
SWIDTH 720 0
DWIDTH 24 0
BBX 33 29 -6 -7
BITMAP
003FC03F80
000FC01E00
0007E00C00
0007E00800
0005F00800
000DF01800
0008F81000
0008F81000
0008FC3000
00187C2000
00107E2000
00103E6000
00303F6000
00201F4000
00201FC000
00600FC000
00600F8000
0040078000
0040078000
00C0030000
0080030000
0080010000
0180000000
0100000000
0100000000
E300000000
E200000000
E400000000
7800000000
ENDCHAR
STARTCHAR 019E
ENCODING 414
SWIDTH 540 0
DWIDTH 18 0
BBX 16 22 1 -7
BITMAP
1E0E
3E3F
5E7F
9E5F
1E9E
1F1E
3E1E
3E3E
3C3C
7C3C
783C
7878
7878
F078
F0F8
00F0
00F0
00F0
01F0
01E0
01E0
03E0
ENDCHAR
STARTCHAR 019F
ENCODING 415
SWIDTH 720 0
DWIDTH 24 0
BBX 22 23 2 0
BITMAP
001F80
0071E0
01C0F0
0380F8
0F80F8
0F0078
1F00FC
3E00FC
3E00FC
7E00FC
7C00F8
FFFFF8
FC01F8
F801F0
F801F0
F803E0
F803E0
F807C0
F80780
780F00
781E00
3C3800
0FE000
ENDCHAR
STARTCHAR 01A0
ENCODING 416
SWIDTH 720 0
DWIDTH 24 0
BBX 25 24 2 0
BITMAP
00000380
001F8380
0071E380
01C0F180
0380FF00
0F80F800
0F007800
1F00FC00
3E00FC00
3E00FC00
7C00FC00
7C00F800
FC00F800
FC01F800
F801F000
F801F000
F803E000
F803E000
F807C000
F8078000
780F0000
781E0000
3C3C0000
0FE00000
ENDCHAR
STARTCHAR 01A1
ENCODING 417
SWIDTH 540 0
DWIDTH 18 0
BBX 19 17 1 0
BITMAP
0001C0
0001C0
01F1E0
073CC0
0E1F80
1C3C00
3C3E00
783C00
783C00
F83C00
F07C00
F07800
F0F000
F0F000
F1E000
718000
3E0000
ENDCHAR
STARTCHAR 01A2
ENCODING 418
SWIDTH 1020 0
DWIDTH 34 0
BBX 33 30 2 -7
BITMAP
001FE00380
00F03FFF80
03C01F1F00
07801F1F00
0F003E1F00
1E003E1F00
3E003E3E00
7C007C3E00
7C007C3E00
FC007C3C00
F8007C7C00
F800F87C00
F800F87C00
F800F8F800
F800F0F800
F801F0F800
F801F0F000
F801F1F000
7C03E1F000
7C03E1F000
3E03E3E000
0F07C3E000
03FE03E000
000007C000
000007C000
000007C000
000007C000
00000F8000
00001FC000
00007FF000
ENDCHAR
STARTCHAR 01A3
ENCODING 419
SWIDTH 720 0
DWIDTH 24 0
BBX 23 22 1 -7
BITMAP
01F80E
070FFE
0E0F3C
1C0F3C
3C1F3C
781E38
781E78
F01E78
F03C78
F03CF0
F038F0
F070F0
F071E0
78C1E0
1F01E0
0001C0
0003C0
0003C0
0003C0
000780
000FC0
003FE0
ENDCHAR
STARTCHAR 01A4
ENCODING 420
SWIDTH 660 0
DWIDTH 22 0
BBX 22 22 1 0
BITMAP
1FFFE0
38F8F0
78F878
78F07C
31F07C
01F07C
01F07C
01E0FC
03E0F8
03E1F0
03E3E0
07FF80
07C000
07C000
078000
0F8000
0F8000
0F0000
1F0000
1F0000
3F0000
FFE000
ENDCHAR
STARTCHAR 01A5
ENCODING 421
SWIDTH 510 0
DWIDTH 17 0
BBX 20 30 -4 -7
BITMAP
0003E0
000F70
001E70
003C60
003C00
007800
007800
00F000
00F1C0
00F7E0
01F9E0
01E1F0
01E1F0
01E1F0
03C1E0
03C1E0
03C1E0
0783C0
0783C0
078780
078700
0F8E00
0FF800
0F0000
1F0000
1E0000
1E0000
3E0000
3E0000
FF8000
ENDCHAR
STARTCHAR 01A6
ENCODING 422
SWIDTH 600 0
DWIDTH 20 0
BBX 21 25 -1 -3
BITMAP
03FF00
00FC00
00F800
00F800
00FFC0
00F1F0
01F0F8
01F0F8
01E0F8
03E0F8
03E0F8
03C1F0
07C1F0
07C7C0
07FF00
0F9F00
0F8F00
0F8F80
0F0F80
1F0780
3F87C0
FFC7C0
0007C0
0003E0
0003F8
ENDCHAR
STARTCHAR 01A7
ENCODING 423
SWIDTH 540 0
DWIDTH 18 0
BBX 19 23 0 0
BITMAP
011F80
03E3E0
0381E0
0301E0
0603E0
0403E0
0807C0
000F80
003F00
007E00
01FC00
03F000
0FE000
1F8000
3F0000
7E0100
7C0100
F80300
F00600
F00E00
F01E00
F87C00
3F8400
ENDCHAR
STARTCHAR 01A8
ENCODING 424
SWIDTH 390 0
DWIDTH 13 0
BBX 13 15 0 0
BITMAP
08F0
0F38
0C38
1078
11F0
07F0
1FE0
3F80
7F00
7C00
F040
E0C0
C180
C380
7C80
ENDCHAR
STARTCHAR 01A9
ENCODING 425
SWIDTH 600 0
DWIDTH 20 0
BBX 24 22 -2 0
BITMAP
01FFFF
01F00F
00F803
00F802
007C02
007C00
003E00
003E00
001E00
001F00
000E00
001800
003000
006000
00C000
018000
030010
040030
0FFFF0
3FFFE0
7FFFE0
FFFFC0
ENDCHAR
STARTCHAR 01AA
ENCODING 426
SWIDTH 360 0
DWIDTH 12 0
BBX 10 30 2 -7
BITMAP
1F00
6380
4380
83C0
C7C0
7F80
0780
0780
0F80
0F00
0F00
0F00
1E00
1E00
1E00
3E00
3C00
3C00
3C00
7C00
7800
7800
7800
F000
F000
F000
F000
E180
7780
3F00
ENDCHAR
STARTCHAR 01AB
ENCODING 427
SWIDTH 270 0
DWIDTH 9 0
BBX 12 26 -2 -7
BITMAP
0020
0060
00E0
01C0
07F0
0FF0
07C0
0780
0780
0780
0F00
0F00
0F00
1F00
1E00
1E40
1EC0
1F80
1F80
0380
0380
0700
0700
6600
EC00
7800
ENDCHAR
STARTCHAR 01AC
ENCODING 428
SWIDTH 600 0
DWIDTH 20 0
BBX 20 22 3 0
BITMAP
3FFFF0
70F8E0
F0F860
F0F820
E1F040
01F000
01F000
01E000
03E000
03E000
03E000
07C000
07C000
07C000
078000
0F8000
0F8000
0F8000
1F0000
1F0000
3F8000
FFE000
ENDCHAR
STARTCHAR 01AD
ENCODING 429
SWIDTH 270 0
DWIDTH 9 0
BBX 15 23 1 0
BITMAP
007C
01EE
03CE
078C
0700
0F00
0F00
1E00
7F80
7F80
3E00
3C00
3C00
3C00
7800
7800
7800
F800
F000
F200
F400
F800
F000
ENDCHAR
STARTCHAR 01AE
ENCODING 430
SWIDTH 600 0
DWIDTH 20 0
BBX 19 29 4 -7
BITMAP
7FFFE0
79F1C0
C1F0C0
81F040
83E080
03E000
03E000
03C000
07C000
07C000
07C000
0F8000
0F8000
0F8000
0F0000
1F0000
1F0000
1F0000
3E0000
3E0000
3E0000
3C0000
7C0000
7C0000
780000
780000
798000
7B8000
1F0000
ENDCHAR
STARTCHAR 01AF
ENCODING 431
SWIDTH 780 0
DWIDTH 26 0
BBX 28 27 3 0
BITMAP
00000060
000000E0
000000F0
00000070
00000060
7FF0FFC0
1FC03C00
0F801800
0F801000
1F001000
1F003000
1F002000
3E002000
3E006000
3E004000
3C004000
7C00C000
7C008000
78008000
F8018000
F8010000
F8010000
F8020000
78060000
7E0C0000
3FF80000
0FE00000
ENDCHAR
STARTCHAR 01B0
ENCODING 432
SWIDTH 600 0
DWIDTH 20 0
BBX 21 15 1 0
BITMAP
0F0F70
7E0F78
1E1E30
3E1FE0
3C1E00
3C3C00
3C3C00
7C7C00
78BC00
78F800
797800
F27A00
FCFA00
F8FC00
707000
ENDCHAR
STARTCHAR 01B1
ENCODING 433
SWIDTH 750 0
DWIDTH 25 0
BBX 25 22 2 0
BITMAP
0FF9FF80
1FF1FF00
1FF1FF00
1FF3FF00
30320200
20E38200
03C1E000
0F80F000
1F00F800
3E00F800
7E00F800
7C00F800
7C00F800
FC00F800
FC01F800
FC01F000
F801F000
7803E000
7C07C000
3C078000
1E1E0000
07F80000
ENDCHAR
STARTCHAR 01B2
ENCODING 434
SWIDTH 720 0
DWIDTH 24 0
BBX 21 23 3 0
BITMAP
0003E0
7FF7F0
1FC790
0F8710
1F0018
1F0018
1F0010
1E0010
3E0010
3E0010
3E0030
7C0030
7C0020
7C0060
780040
F800C0
F80080
F80180
F80300
7C0600
7E1C00
3FF800
0FE000
ENDCHAR
STARTCHAR 01B3
ENCODING 435
SWIDTH 660 0
DWIDTH 22 0
BBX 22 23 3 0
BITMAP
00001C
7FE07C
3F807C
1F00FC
1F019C
0F8300
0F8200
0F8600
0F8C00
07C800
07D000
07F000
07E000
07C000
07C000
07C000
078000
0F8000
0F8000
0F8000
1F0000
3F8000
FFE000
ENDCHAR
STARTCHAR 01B4
ENCODING 436
SWIDTH 450 0
DWIDTH 15 0
BBX 30 30 -3 -7
BITMAP
00000038
000000CC
0000018C
0000010C
00000200
00000400
00000400
00000800
03801000
0FC03000
03C02000
03C04000
03C08000
03C08000
03C10000
03C20000
01E60000
01E40000
01E80000
01F80000
01F00000
01E00000
01C00000
01C00000
01800000
01000000
63000000
FE000000
FC000000
70000000
ENDCHAR
STARTCHAR 01B5
ENCODING 437
SWIDTH 600 0
DWIDTH 20 0
BBX 23 22 -1 0
BITMAP
01FFFE
03C0FE
0300FC
0201F8
0603F0
0407E0
000FE0
000FC0
001F80
003F00
0FFFF0
00FC00
01FC00
01F800
03F000
07E000
0FC020
1FC060
1F80C0
3F01C0
7E0FC0
FFFF80
ENDCHAR
STARTCHAR 01B6
ENCODING 438
SWIDTH 390 0
DWIDTH 13 0
BBX 13 18 0 -3
BITMAP
1FF8
1FF0
3FE0
3FE0
3040
2080
0100
0300
7FE0
0400
0800
1000
3800
7C60
FCF0
1EF0
0EE0
03C0
ENDCHAR
STARTCHAR 01B7
ENCODING 439
SWIDTH 540 0
DWIDTH 18 0
BBX 23 29 -3 -7
BITMAP
00FFFE
00F07C
0180F8
0101F0
0203F0
0007E0
000FC0
001F80
003F00
007E00
007C00
00FE00
001F80
0007C0
0007C0
0003E0
0003E0
0003E0
0003E0
0003E0
0003C0
0007C0
0007C0
000F80
000F80
801F00
707E00
3FF800
0FE000
ENDCHAR
STARTCHAR 01B8
ENCODING 440
SWIDTH 540 0
DWIDTH 18 0
BBX 22 29 -1 -7
BITMAP
03FFFC
01F078
01F818
00F818
00F808
00FC00
007C00
007C00
007E00
003E00
003E00
00FF00
03F000
0FC000
1F0000
3E0000
7C0000
7C0000
F80000
F80000
F00000
F00000
F00000
F00000
F80000
F80100
7E0E00
3FF800
0FE000
ENDCHAR
STARTCHAR 01B9
ENCODING 441
SWIDTH 480 0
DWIDTH 16 0
BBX 17 22 -1 -7
BITMAP
0FFF80
0FFF80
078180
07C100
03C100
03E000
01E000
01F000
00F000
07F000
0F8000
3E0000
7C0000
780000
F80000
F00000
F00000
F00000
F00800
F01000
786000
1F8000
ENDCHAR
STARTCHAR 01BA
ENCODING 442
SWIDTH 480 0
DWIDTH 16 0
BBX 17 22 -1 -7
BITMAP
0FFF80
0FFF00
181E00
103C00
107800
01F000
03E000
03F800
003C00
001E00
001C00
003C00
007800
07C000
1E0000
780000
780000
F00000
F00800
F81000
7C2000
1FC000
ENDCHAR
STARTCHAR 01BB
ENCODING 443
SWIDTH 510 0
DWIDTH 17 0
BBX 16 23 0 0
BITMAP
00F8
01FE
03FE
063F
0C1F
080F
000F
000E
001E
001C
1FFE
0030
0060
00E0
01C0
0380
0304
0604
0808
1FF8
3FF8
7FF0
FFF0
ENDCHAR
STARTCHAR 01BC
ENCODING 444
SWIDTH 480 0
DWIDTH 16 0
BBX 15 22 1 0
BITMAP
1FFE
07FE
07FE
0C0C
0C04
0804
0F00
1FC0
1FF0
1FF8
03F8
00FC
007C
003C
003C
003C
0038
0038
6070
F8E0
FF80
7E00
ENDCHAR
STARTCHAR 01BD
ENCODING 445
SWIDTH 390 0
DWIDTH 13 0
BBX 14 15 -1 0
BITMAP
1FFC
0FF8
0FF8
0808
0808
0F00
1FC0
1FF0
1FF0
01F0
0070
0030
7060
F8C0
7F00
ENDCHAR
STARTCHAR 01BE
ENCODING 446
SWIDTH 360 0
DWIDTH 12 0
BBX 10 19 1 0
BITMAP
0100
0300
0700
0E00
3F80
7F80
1E00
3C00
3E00
3F00
1F80
0F80
07C0
83C0
83C0
C1C0
C1C0
E380
9E00
ENDCHAR
STARTCHAR 01BF
ENCODING 447
SWIDTH 510 0
DWIDTH 17 0
BBX 20 22 -4 -7
BITMAP
0031C0
01F7E0
07FFE0
01F1F0
01E1F0
01E1F0
01E1E0
03C1E0
03C1C0
03C1C0
078380
078300
078600
0F1800
0F7000
0F8000
1E0000
1E0000
1E0000
3E0000
780000
800000
ENDCHAR
STARTCHAR 01C0
ENCODING 448
SWIDTH 210 0
DWIDTH 7 0
BBX 2 23 3 0
BITMAP
C0
C0
C0
C0
C0
C0
C0
C0
C0
C0
C0
C0
C0
C0
C0
C0
C0
C0
C0
C0
C0
C0
C0
ENDCHAR
STARTCHAR 01C1
ENCODING 449
SWIDTH 330 0
DWIDTH 11 0
BBX 6 23 3 0
BITMAP
CC
CC
CC
CC
CC
CC
CC
CC
CC
CC
CC
CC
CC
CC
CC
CC
CC
CC
CC
CC
CC
CC
CC
ENDCHAR
STARTCHAR 01C2
ENCODING 450
SWIDTH 240 0
DWIDTH 8 0
BBX 8 23 0 0
BITMAP
18
18
18
18
18
18
18
18
18
FF
FF
18
18
18
FF
FF
18
18
18
18
18
18
18
ENDCHAR
STARTCHAR 01C3
ENCODING 451
SWIDTH 390 0
DWIDTH 13 0
BBX 10 23 2 0
BITMAP
0180
0380
07C0
0780
0780
0780
0700
0700
0F00
0E00
0E00
0C00
0C00
0C00
0800
0800
1000
1000
0000
7000
F800
F800
7000
ENDCHAR
STARTCHAR 01C4
ENCODING 452
SWIDTH 1320 0
DWIDTH 44 0
BBX 47 30 -1 0
BITMAP
000000001838
000000001C70
000000000EE0
000000000FC0
000000000F80
000000000000
000000000000
000000000000
07FFC001FFFE
00F8F003C0FC
00F87C0301FC
00F83C0601F8
00F03E0403F0
01F01F0007E0
01F01F000FC0
01F01F001FC0
01E01F003F80
03E01F003F00
03E01F007E00
03E03F00FC00
07C03F01F800
07C03E03F800
07C03E03F000
07807C07E000
0F80780FC020
0F80F81F8060
0F81F03F80C0
1F03C03F01C0
3F87807E0F80
FFFC00FFFF80
ENDCHAR
STARTCHAR 01C5
ENCODING 453
SWIDTH 1110 0
DWIDTH 37 0
BBX 39 25 -1 -3
BITMAP
07FFC00706
00F8F0031C
00F87C03B8
00F83C03F0
00F03E01F0
01F01F0000
01F01F0000
01F01F0FFC
01E01F0FF8
03E01F1FF0
03E01F1FE0
03E03F1040
07C03F0080
07C03E0080
07C03E0100
07807C0200
0F80780400
0F80F80800
0F81F00C00
1F03C01E30
3F87803E78
FFFC007E78
0000000E70
0000000770
00000001E0
ENDCHAR
STARTCHAR 01C6
ENCODING 454
SWIDTH 870 0
DWIDTH 29 0
BBX 30 26 1 -3
BITMAP
00078000
001F8C1C
000F0E38
000F0770
000F07E0
000E07C0
001E0000
001E0000
03DE3FF0
073C3FE0
1E3C3FE0
1C3C3FC0
3C386080
78780100
78780200
F8780400
F0F00400
F0F00800
F1F01000
F2E43000
F5EC7860
FDF8FCE0
70E0FCE0
00001CE0
00000EC0
00000780
ENDCHAR
STARTCHAR 01C7
ENCODING 455
SWIDTH 1110 0
DWIDTH 37 0
BBX 41 22 -1 0
BITMAP
03FF0003FF80
00FC0000FE00
00F800007C00
00F80000F800
00F80000F800
01F00000F800
01F00001F000
01F00001F000
01E00001F000
03E00003E000
03E00003E000
03E00003E000
07C00003C000
07C00007C000
07C00007C000
0F800007C000
0F80138F8000
0F80278F8000
0F80678F0000
1F01C79E0000
3F07C73C0000
FFFFC1F00000
ENDCHAR
STARTCHAR 01C8
ENCODING 456
SWIDTH 870 0
DWIDTH 29 0
BBX 31 30 -1 -7
BITMAP
0000001C
03FF003E
00FC003E
00F8001C
00F80000
00F80000
01F00000
01F00000
01F0003C
01E001FC
03E00078
03E00078
03E00078
07C000F0
07C000F0
07C000F0
0F8000F0
0F8011E0
0F8021E0
0F8061E0
1F01C1E0
3F07C3C0
FFFFC3C0
000003C0
00000780
00000780
00006700
0000EF00
0000EE00
00007800
ENDCHAR
STARTCHAR 01C9
ENCODING 457
SWIDTH 540 0
DWIDTH 18 0
BBX 19 30 0 -7
BITMAP
01C1C0
0FC3E0
07C3E0
0781C0
078000
078000
078000
0F0000
0F0380
0F1F80
1E0780
1E0780
1E0F00
1E0F00
3C0F00
3C0F00
3C1E00
781E00
781E00
793E00
7A3C00
FC3C00
783C00
007800
007800
007800
0E7000
0EE000
0CC000
0F8000
ENDCHAR
STARTCHAR 01CA
ENCODING 458
SWIDTH 1200 0
DWIDTH 40 0
BBX 44 22 -1 0
BITMAP
07F807F03FF0
01F803C00FC0
00FC01800F80
00FC01000F80
00BE01000F80
01BE03001F00
011F02001F00
011F02001F00
030F02003E00
030F84003E00
020784003E00
0207C4003C00
0607CC007C00
0403E8007C00
0403E8007C00
0C01F800F800
0801F030F800
0800F078F000
1800F079F000
18006071E000
38006073C000
FE00203F0000
ENDCHAR
STARTCHAR 01CB
ENCODING 459
SWIDTH 990 0
DWIDTH 33 0
BBX 35 30 -1 -7
BITMAP
00000001C0
07F807F3E0
01F803C3E0
00FC0181C0
00FC010000
00BE010000
01BE030000
011F020000
011F020380
030F021F80
030F840780
0207840780
0207C40F00
0607CC0F00
0403E80F00
0403E80F00
0C01F81E00
0801F01E00
0800F01E00
1800F03E00
1800603C00
3800603C00
FE00203C00
0000007800
0000007800
0000007800
00000E7000
00000EE000
00000CC000
00000F8000
ENDCHAR
STARTCHAR 01CC
ENCODING 460
SWIDTH 840 0
DWIDTH 28 0
BBX 27 30 1 -7
BITMAP
000001C0
000003E0
000003E0
000001C0
00000000
00000000
00000000
00000000
0F0E03C0
7E3E0FC0
1E7E0780
1EDE0780
3F9E0780
3D1E0780
3E3C0F00
3C3C0F00
7C3C0F00
787C0F00
78781E00
F8791E00
F07A1E00
F07C3C00
F0783C00
00003C00
00003800
00007800
00067800
000E7000
000EE000
00078000
ENDCHAR
STARTCHAR 01CD
ENCODING 461
SWIDTH 660 0
DWIDTH 22 0
BBX 26 30 -2 0
BITMAP
000060C0
000071C0
00007780
00003F00
00003E00
00000000
00000000
00000800
00001800
00003800
00007800
0000F000
0001F000
0001F000
0002F000
0006F000
000CF000
0018F000
0010F000
0031F000
0061F000
00C1F000
01FFF000
0101F000
0201F000
0601F000
0C01F000
1801F000
3803F800
FE0FFC00
ENDCHAR
STARTCHAR 01CE
ENCODING 462
SWIDTH 510 0
DWIDTH 17 0
BBX 16 22 1 0
BITMAP
0183
0186
01DE
00FC
00F8
0000
0000
03DE
065C
1E3C
1C3C
3C3C
7878
7878
F878
F0F0
F0F0
F1F0
F2F4
F3EC
FDF8
70E0
ENDCHAR
STARTCHAR 01CF
ENCODING 463
SWIDTH 390 0
DWIDTH 13 0
BBX 17 30 -1 0
BITMAP
00C180
00E380
006700
007E00
007C00
000000
000000
000000
03FF00
00FC00
00F800
00F800
00F000
01F000
01F000
01F000
03E000
03E000
03E000
03E000
07C000
07C000
07C000
0F8000
0F8000
0F8000
0F8000
1F0000
3F8000
FFE000
ENDCHAR
STARTCHAR 01D0
ENCODING 464
SWIDTH 270 0
DWIDTH 9 0
BBX 12 22 1 0
BITMAP
3070
38E0
1DC0
1F80
1F00
0000
0000
0E00
7E00
3E00
3C00
3C00
3C00
3C00
7800
7800
7800
F000
F200
F400
F800
F000
ENDCHAR
STARTCHAR 01D1
ENCODING 465
SWIDTH 720 0
DWIDTH 24 0
BBX 22 30 2 0
BITMAP
001830
001C60
001DE0
000FC0
000F80
000000
000000
001F80
0061E0
01C0F0
0380F8
0F80F8
0F0078
1F00FC
3E00FC
3E00FC
7C00FC
7C00F8
FC00F8
FC01F8
F801F0
F801F0
F803E0
F803E0
F807C0
F80780
780F00
781E00
3C3800
0FE000
ENDCHAR
STARTCHAR 01D2
ENCODING 466
SWIDTH 510 0
DWIDTH 17 0
BBX 16 22 1 0
BITMAP
0303
018E
01DC
01F8
00F8
0000
0000
01F0
0738
0E1C
1C3C
3C3E
783C
783C
F83C
F07C
F078
F0F0
F0F0
F1E0
7180
3E00
ENDCHAR
STARTCHAR 01D3
ENCODING 467
SWIDTH 720 0
DWIDTH 24 0
BBX 24 30 3 0
BITMAP
003060
0038C0
003BC0
001F80
001F00
000000
000000
000000
7FF0FF
1FC03C
0F8018
0F8010
1F0010
1F0030
1F0020
1E0020
3E0060
3E0040
3C0040
7C00C0
7C0080
780080
F80080
F80100
F80100
F80300
F80600
7E0C00
3FF800
0FE000
ENDCHAR
STARTCHAR 01D4
ENCODING 468
SWIDTH 540 0
DWIDTH 18 0
BBX 16 22 1 0
BITMAP
0307
038E
01DC
01F8
00F0
0000
0000
0F0F
7E0F
1E1E
1E1E
3C1E
3C3E
3C3C
3C7C
78FC
78F8
7978
F27A
FCFA
F8FC
7070
ENDCHAR
STARTCHAR 01D5
ENCODING 469
SWIDTH 720 0
DWIDTH 24 0
BBX 24 29 3 0
BITMAP
001FE0
003FC0
000000
003180
003180
000000
000000
7FF0FF
1FC03C
0F8018
0F8010
1F0010
1F0030
1F0020
1E0020
3E0060
3E0040
3C0040
7C00C0
7C0080
780080
F80080
F80100
F80100
F80300
F80600
7E0C00
3FF800
0FE000
ENDCHAR
STARTCHAR 01D6
ENCODING 470
SWIDTH 540 0
DWIDTH 18 0
BBX 17 26 1 0
BITMAP
03FF80
03FF80
07FF80
000000
000000
030C00
079E00
079E00
030C00
000000
000000
0F0F00
7E0F00
1E1E00
1E1E00
3C1E00
3C3E00
3C3C00
3C7C00
78FC00
78F800
797800
F27A00
FCFA00
F8FC00
707000
ENDCHAR
STARTCHAR 01D7
ENCODING 471
SWIDTH 720 0
DWIDTH 24 0
BBX 24 29 3 0
BITMAP
000780
000700
000600
003180
003180
000000
000000
7FF0FF
1FC03C
0F8018
0F8010
1F0010
1F0030
1F0020
1E0020
3E0060
3E0040
3C0040
7C00C0
7C0080
780080
F80080
F80100
F80100
F80300
F80600
7E0C00
3FF800
0FE000
ENDCHAR
STARTCHAR 01D8
ENCODING 472
SWIDTH 540 0
DWIDTH 18 0
BBX 16 28 1 0
BITMAP
001F
001E
003C
0038
0030
0060
0000
030C
079E
079E
030C
0000
0000
0F0F
7E0F
1E1E
1E1E
3C1E
3C3E
3C3C
3C7C
78FC
78F8
7978
F27A
FCFA
F8FC
7070
ENDCHAR
STARTCHAR 01D9
ENCODING 473
SWIDTH 720 0
DWIDTH 24 0
BBX 24 29 3 0
BITMAP
0008C0
000F80
000F00
003180
003180
000000
000000
7FF0FF
1FC03C
0F8018
0F8010
1F0010
1F0030
1F0020
1E0020
3E0060
3E0040
3C0040
7C00C0
7C0080
780080
F80080
F80100
F80100
F80300
F80600
7E0C00
3FF800
0FE000
ENDCHAR
STARTCHAR 01DA
ENCODING 474
SWIDTH 540 0
DWIDTH 18 0
BBX 17 28 1 0
BITMAP
018380
01C700
00EE00
00FC00
00F800
000000
000000
030C00
079E00
079E00
030C00
000000
000000
0F0F00
7E0F00
1E1E00
1E1E00
3C1E00
3C3E00
3C3C00
3C7C00
78FC00
78F800
797800
F27A00
FCFA00
F8FC00
707000
ENDCHAR
STARTCHAR 01DB
ENCODING 475
SWIDTH 720 0
DWIDTH 24 0
BBX 24 29 3 0
BITMAP
000E00
000600
000200
003180
003180
000000
000000
7FF0FF
1FC03C
0F8018
0F8010
1F0010
1F0030
1F0020
1E0020
3E0060
3E0040
3C0040
7C00C0
7C0080
780080
F80080
F80100
F80100
F80300
F80600
7E0C00
3FF800
0FE000
ENDCHAR
STARTCHAR 01DC
ENCODING 476
SWIDTH 540 0
DWIDTH 18 0
BBX 16 28 1 0
BITMAP
00F0
00F0
0078
0038
0018
0008
0000
030C
079E
079E
030C
0000
0000
0F0F
7E0F
1E1E
1E1E
3C1E
3C3E
3C3C
3C7C
78FC
78F8
7978
F27A
FCFA
F8FC
7070
ENDCHAR
STARTCHAR 01DD
ENCODING 477
SWIDTH 450 0
DWIDTH 15 0
BBX 14 15 0 0
BITMAP
03F0
0FF8
10F8
607C
007C
007C
03F8
0E78
3C78
78F0
F0E0
F1C0
F380
F700
7C00
ENDCHAR
STARTCHAR 01DE
ENCODING 478
SWIDTH 660 0
DWIDTH 22 0
BBX 26 30 -2 0
BITMAP
00003FC0
00007F80
00000000
00006300
00006300
00000000
00000000
00000800
00001800
00003800
00007800
0000F000
0001F000
0001F000
0002F000
0006F000
000CF000
0018F000
0010F000
0031F000
0061F000
00C1F000
01FFF000
0101F000
0201F000
0601F000
0C01F000
1801F000
3803F800
FE0FFC00
ENDCHAR
STARTCHAR 01DF
ENCODING 479
SWIDTH 510 0
DWIDTH 17 0
BBX 17 26 1 0
BITMAP
03FF80
07FF00
07FF00
000000
000000
071C00
079E00
079E00
071C00
000000
000000
03DE00
065C00
1E3C00
1C3C00
3C3C00
787800
787800
F87800
F0F000
F0F000
F1F000
F2F400
F3EC00
FDF800
70E000
ENDCHAR
STARTCHAR 01E0
ENCODING 480
SWIDTH 660 0
DWIDTH 22 0
BBX 26 30 -2 0
BITMAP
00003FC0
00003FC0
00000000
00000C00
00000C00
00000000
00000000
00000800
00001800
00003800
00007800
0000F000
0001F000
0001F000
0002F000
0006F000
000CF000
0018F000
0010F000
0031F000
0061F000
00C1F000
01FFF000
0101F000
0201F000
0601F000
0C01F000
1801F000
3803F800
FE0FFC00
ENDCHAR
STARTCHAR 01E1
ENCODING 481
SWIDTH 510 0
DWIDTH 17 0
BBX 18 26 1 0
BITMAP
03FFC0
03FF80
03FF80
000000
000000
007000
00F800
00F800
007000
000000
000000
03DE00
065C00
1E3C00
1C3C00
3C3C00
787800
787800
F87800
F0F000
F0F000
F1F000
F2F400
F3EC00
FDF800
70E000
ENDCHAR
STARTCHAR 01E2
ENCODING 482
SWIDTH 930 0
DWIDTH 31 0
BBX 33 28 -2 0
BITMAP
00000FFF00
00000FFE00
00000FFE00
0000000000
0000000000
0000000000
0003FFFF80
00007F0780
00007F0180
0000DF0180
00009E0100
00013E0000
00023E0800
00043C0800
000C7C1800
00187C3000
00107FF000
0020F87000
0040F83000
00FFF82000
0100F02000
0101F00000
0201F00200
0401E00400
0803E00C00
1803E03C00
3807E0F800
FE1FFFF800
ENDCHAR
STARTCHAR 01E3
ENCODING 483
SWIDTH 720 0
DWIDTH 24 0
BBX 23 20 1 0
BITMAP
007FF0
007FF0
00FFF0
000000
000000
03DE7C
073F9E
0E3F1E
1C3E1C
3C3C3C
783C38
787C70
F879E0
F07F00
F0F800
F0F800
F17808
F27C30
FC7FE0
781F80
ENDCHAR
STARTCHAR 01E4
ENCODING 484
SWIDTH 720 0
DWIDTH 24 0
BBX 23 23 2 0
BITMAP
001FE2
00783C
01E01C
07C00C
0F800C
1F0008
3F0008
3E0000
7E0000
7C0000
7C0000
FC0000
FC0FFC
F803F0
F803E0
F803E0
7803E0
7C1FF8
3C07C0
3C07C0
1E0780
0F0F80
03FC00
ENDCHAR
STARTCHAR 01E5
ENCODING 485
SWIDTH 510 0
DWIDTH 17 0
BBX 20 22 -3 -7
BITMAP
007E00
01E3F0
03C3F0
07C3C0
0783C0
0787C0
0787C0
078F80
038F00
00FC00
030000
060000
0FC000
0FF800
07FE00
03FF00
1C7F00
380F00
FFFF80
780E00
3C1C00
0FF000
ENDCHAR
STARTCHAR 01E6
ENCODING 486
SWIDTH 720 0
DWIDTH 24 0
BBX 23 30 2 0
BITMAP
000C0C
000638
000770
0007E0
0003C0
000000
000000
000000
001FF6
00F83C
01E01C
07C00C
0F800C
1F0008
3F0008
3E0000
7E0000
7C0000
FC0000
FC0FFC
FC03F0
F803E0
F803E0
7803E0
7C07C0
7C07C0
3C07C0
1E07C0
0F0F80
03FF80
ENDCHAR
STARTCHAR 01E7
ENCODING 487
SWIDTH 510 0
DWIDTH 17 0
BBX 19 29 -2 -7
BITMAP
00C0C0
006380
007700
007E00
003C00
000000
000000
00FC00
03C7E0
0787E0
0F8780
0F0780
0F0F80
0F0F00
0F1F00
071E00
03F800
060000
0C0000
1F8000
1FF800
0FFC00
1FFE00
707E00
E01E00
E00E00
701C00
783800
1FE000
ENDCHAR
STARTCHAR 01E8
ENCODING 488
SWIDTH 660 0
DWIDTH 22 0
BBX 26 30 -1 0
BITMAP
000E0C00
00063800
00077000
0007F000
0003E000
00000000
00000000
00000000
03FF7FC0
00FC3E00
00F81800
00F83000
00F84000
01F08000
01F10000
01F20000
01EE0000
03FF0000
03FF0000
03FF0000
07CF8000
07CF8000
07CF8000
07878000
0F87C000
0F87C000
0F03E000
1F03E000
3F87F000
FFEFF800
ENDCHAR
STARTCHAR 01E9
ENCODING 489
SWIDTH 510 0
DWIDTH 17 0
BBX 18 30 0 0
BITMAP
00E0C0
006380
007700
007E00
003E00
000000
000000
01E000
0FC000
03C000
03C000
07C000
078000
078000
078000
0F3F80
0F0E00
0F0C00
1F1000
1E2000
1E6000
1EE000
3DF000
3EF000
3CF000
7CF200
787A00
787C00
787800
F03000
ENDCHAR
STARTCHAR 01EA
ENCODING 490
SWIDTH 720 0
DWIDTH 24 0
BBX 22 30 2 -7
BITMAP
001F80
0061E0
01C0F0
0380F8
0F80F8
0F0078
1F00FC
3E00FC
3E00FC
7C00FC
7C00F8
FC00F8
FC01F8
F801F0
F801F0
F803E0
F803E0
F807C0
F80780
780F00
781E00
3C3800
0FF000
006000
00C000
018000
038000
070000
078000
03E000
ENDCHAR
STARTCHAR 01EB
ENCODING 491
SWIDTH 510 0
DWIDTH 17 0
BBX 15 22 1 -7
BITMAP
01F0
0738
0E1C
1C3C
3C3E
783C
783C
F83C
F07C
F078
F0F0
F0F0
F1E0
7180
3F00
0600
0C00
1800
3800
7000
7900
3E00
ENDCHAR
STARTCHAR 01EC
ENCODING 492
SWIDTH 720 0
DWIDTH 24 0
BBX 22 35 2 -7
BITMAP
007FF8
007FF0
007FF0
000000
000000
001F80
0061E0
01C0F0
0380F8
0F80F8
0F0078
1F00FC
3E00FC
3E00FC
7C00FC
7C00F8
FC00F8
FC01F8
F801F0
F801F0
F803E0
F803E0
F807C0
F80780
780F00
781E00
3C3800
0FF000
006000
00C000
018000
038000
070000
078000
03E000
ENDCHAR
STARTCHAR 01ED
ENCODING 493
SWIDTH 510 0
DWIDTH 17 0
BBX 16 27 1 -7
BITMAP
07FF
07FF
07FF
0000
0000
01F0
0738
0E1C
1C3C
3C3E
783C
783C
F83C
F07C
F078
F0F0
F0F0
F1E0
7180
3F00
0600
0C00
1800
3800
7000
7900
3E00
ENDCHAR
STARTCHAR 01EE
ENCODING 494
SWIDTH 540 0
DWIDTH 18 0
BBX 23 37 -3 -7
BITMAP
000C1C
000E38
000770
0007E0
0007C0
000000
000000
000000
00FFFE
00F07C
0180F8
0101F0
0203F0
0007E0
000FC0
001F80
003F00
007E00
007C00
00FE00
001F80
0007C0
0007C0
0003E0
0003E0
0003E0
0003E0
0003E0
0003C0
0007C0
0007C0
000F80
000F80
801F00
707E00
3FF800
0FE000
ENDCHAR
STARTCHAR 01EF
ENCODING 495
SWIDTH 480 0
DWIDTH 16 0
BBX 19 29 -3 -7
BITMAP
003060
0038E0
003BC0
001F80
001F00
000000
000000
03FFE0
03FFE0
0307C0
040F80
041F00
003C00
007800
00F000
01E000
03F800
007C00
003E00
003E00
001E00
001E00
001E00
003C00
003C00
807800
407800
61E000
1F8000
ENDCHAR
STARTCHAR 01F0
ENCODING 496
SWIDTH 270 0
DWIDTH 9 0
BBX 18 29 -5 -7
BITMAP
00C0C0
006380
007700
007E00
003E00
000000
000000
003C00
01F800
007800
007800
007800
00F000
00F000
00F000
01E000
01E000
01E000
01E000
03C000
03C000
03C000
038000
078000
078000
E70000
EE0000
CE0000
780000
ENDCHAR
STARTCHAR 01F1
ENCODING 497
SWIDTH 1320 0
DWIDTH 44 0
BBX 47 22 -1 0
BITMAP
07FFC001FFFE
00F8F003C0FC
00F87C0301FC
00F83C0601F8
00F03E0403F0
01F01F0007E0
01F01F000FC0
01F01F001FC0
01E01F003F80
03E01F003F00
03E01F007E00
03E03F00FC00
07C03F01F800
07C03E03F800
07C03E03F000
07807C07E000
0F80780FC020
0F80F81F8060
0F81F03F80C0
1F03C03F01C0
3F87807E0F80
FFFC00FFFF80
ENDCHAR
STARTCHAR 01F2
ENCODING 498
SWIDTH 1110 0
DWIDTH 37 0
BBX 38 25 -1 -3
BITMAP
07FFC00000
00F8F00000
00F87C0000
00F83C0000
00F03E0000
01F01F0000
01F01F0000
01F01F0FFC
01E01F0FF8
03E01F1FF0
03E01F1FE0
03E03F1040
07C03F0080
07C03E0080
07C03E0100
07807C0200
0F80780400
0F80F80800
0F81F00C00
1F03C01E30
3F87803E78
FFFC007E78
0000000E70
0000000770
00000001E0
ENDCHAR
STARTCHAR 01F3
ENCODING 499
SWIDTH 870 0
DWIDTH 29 0
BBX 28 26 1 -3
BITMAP
00078000
001F8000
000F0000
000F0000
000F0000
000E0000
001E0000
001E0000
03DE3FF0
073C3FE0
1E3C3FE0
1C3C3FC0
3C386080
78780100
78780200
F8780400
F0F00400
F0F00800
F1F01000
F2E43000
F5EC7860
FDF8FCE0
70E0FCE0
00001CE0
00000EC0
00000780
ENDCHAR
STARTCHAR 01F4
ENCODING 500
SWIDTH 720 0
DWIDTH 24 0
BBX 23 31 2 0
BITMAP
0000F8
0000F0
0000E0
0001C0
000180
000180
000000
000000
000000
001FF6
00F83C
01E01C
07C00C
0F800C
1F0008
3F0008
3E0000
7E0000
7C0000
FC0000
FC0FFC
FC03F0
F803E0
F803E0
7803E0
7C07C0
7C07C0
3C07C0
1E07C0
0F0F80
03FF80
ENDCHAR
STARTCHAR 01F5
ENCODING 501
SWIDTH 510 0
DWIDTH 17 0
BBX 19 30 -2 -7
BITMAP
000780
000F80
000F00
000E00
001C00
001800
000000
000000
00FC00
03C7E0
0787E0
0F8780
0F0780
0F0F80
0F0F00
0F1F00
071E00
03F800
060000
0C0000
1F8000
1FF800
0FFC00
1FFE00
707E00
E01E00
E00E00
701C00
783800
1FE000
ENDCHAR
STARTCHAR 01F6
ENCODING 502
SWIDTH 960 0
DWIDTH 32 0
BBX 33 22 -1 0
BITMAP
03FF3FF800
00FC0FE000
00F807C000
00F807C000
00F80F8000
01F00F8000
01F00F8000
01F00F0780
03E01F0780
03E01F0F00
03FFFF0F00
03C03E0F00
07C03E1F00
07C03E1E00
07C07C1E00
0F807C1E00
0F807C3C00
0F80783C00
1F00F87800
1F00787000
3F8078E000
FFE01F8000
ENDCHAR
STARTCHAR 01F7
ENCODING 503
SWIDTH 690 0
DWIDTH 23 0
BBX 26 30 -3 -7
BITMAP
00063E00
003E7F80
00FF8F80
003F0FC0
003C07C0
003C07C0
007C07C0
007C0F80
00780F80
00F80F80
00F80F00
00F00F00
00F01E00
01F01E00
01F03C00
01E03800
03E07000
03E0E000
03E1C000
07C38000
07C60000
07D80000
07E00000
0F800000
0F800000
0F000000
1F000000
1F000000
7C000000
C0000000
ENDCHAR
STARTCHAR 01F8
ENCODING 504
SWIDTH 720 0
DWIDTH 24 0
BBX 28 31 -1 0
BITMAP
000F8000
00078000
00038000
00018000
0000C000
0000C000
00000000
00000000
00000000
07F807F0
01F803C0
00FC0180
00FC0100
00BE0100
01BE0300
011F0200
011F0200
030F0200
030F8400
02078400
0207C400
0607CC00
0403E800
0403E800
0C01F800
0801F000
0800F000
1800F000
18006000
38006000
FE002000
ENDCHAR
STARTCHAR 01F9
ENCODING 505
SWIDTH 540 0
DWIDTH 18 0
BBX 16 23 1 0
BITMAP
03C0
01E0
00E0
0060
0070
0030
0000
0000
0F0E
7E3E
1E7E
1EDE
3F9E
3D1E
3E3C
3C3C
7C3C
787C
7878
F879
F07A
F07C
F078
ENDCHAR
STARTCHAR 01FA
ENCODING 506
SWIDTH 660 0
DWIDTH 22 0
BBX 26 34 -2 0
BITMAP
000003C0
000007C0
00000780
00000700
00000600
00001C00
00002200
00004300
00004300
00004300
00002200
00001C00
00001800
00003800
00007800
0000F000
0001F000
0001F000
0002F000
0006F000
000CF000
0018F000
0010F000
0031F000
0061F000
00C1F000
01FFF000
0101F000
0201F000
0601F000
0C01F000
1801F000
3803F800
FE0FFC00
ENDCHAR
STARTCHAR 01FB
ENCODING 507
SWIDTH 510 0
DWIDTH 17 0
BBX 16 31 1 0
BITMAP
000F
001F
001E
001C
0038
0030
0000
0070
0088
018C
0104
018C
0088
0070
0000
0000
03DE
065C
1E3C
1C3C
3C3C
7878
7878
F878
F0F0
F0F0
F1F0
F2F4
F3EC
FDF8
70E0
ENDCHAR
STARTCHAR 01FC
ENCODING 508
SWIDTH 930 0
DWIDTH 31 0
BBX 33 31 -2 0
BITMAP
000001F000
000001E000
000003C000
0000038000
0000030000
0000060000
0000000000
0000000000
0000000000
0003FFFF80
00007F0780
00007F0180
0000DF0180
00009E0100
00013E0000
00023E0800
00043C0800
000C7C1800
00187C3000
00107FF000
0020F87000
0040F83000
00FFF82000
0100F02000
0101F00000
0201F00200
0401E00400
0803E00C00
1803E03C00
3807E0F800
FE1FFFF800
ENDCHAR
STARTCHAR 01FD
ENCODING 509
SWIDTH 720 0
DWIDTH 24 0
BBX 23 23 1 0
BITMAP
0003C0
000780
000780
000700
000E00
000C00
000000
000000
03DE7C
073F9E
0E3F1E
1C3E1C
3C3C3C
783C38
787C70
F879E0
F07F00
F0F800
F0F800
F17808
F27C30
FC7FE0
781F80
ENDCHAR
STARTCHAR 01FE
ENCODING 510
SWIDTH 720 0
DWIDTH 24 0
BBX 23 31 1 0
BITMAP
0001F0
0001E0
0003C0
000380
000300
000200
000000
000000
000FC2
0070F4
00E078
03C07C
07C07C
07807C
0F80FE
1F017E
1F027E
3E047C
3E087C
7E107C
7E30FC
7C60F8
7CC0F8
7D81F0
7F01E0
7E03E0
7C03C0
3C0780
3C0E00
6E1C00
C7E000
ENDCHAR
STARTCHAR 01FF
ENCODING 511
SWIDTH 510 0
DWIDTH 17 0
BBX 15 23 1 0
BITMAP
003E
003C
0078
0070
0060
00C0
0000
0000
01F2
073C
0E1C
1C3C
3C3E
787C
78BC
F93C
FA7C
F478
F870
F0F0
F1E0
F180
BE00
ENDCHAR
STARTCHAR 0200
ENCODING 512
SWIDTH 660 0
DWIDTH 22 0
BBX 24 31 -2 0
BITMAP
000FBE
00079E
00038E
0001C6
0000C3
000043
000000
000000
000008
000018
000038
000078
0000F0
0001F0
0001F0
0002F0
0006F0
000CF0
0018F0
0010F0
0031F0
0061F0
00C1F0
01FFF0
0101F0
0201F0
0601F0
0C01F0
1801F0
3803F8
FE0FFC
ENDCHAR
STARTCHAR 0201
ENCODING 513
SWIDTH 510 0
DWIDTH 17 0
BBX 15 23 1 0
BITMAP
1E78
0F78
073C
071C
030C
0184
0000
0000
03DE
065C
1E3C
1C3C
3C3C
7878
7878
F878
F0F0
F0F0
F1F0
F2F4
F3EC
FDF8
70E0
ENDCHAR
STARTCHAR 0202
ENCODING 514
SWIDTH 660 0
DWIDTH 22 0
BBX 25 31 -2 0
BITMAP
00001E00
00003F00
00007F80
00006380
00008180
00008080
00000000
00000000
00000800
00001800
00003800
00007800
0000F000
0001F000
0001F000
0002F000
0006F000
000CF000
0018F000
0010F000
0031F000
0061F000
00C1F000
01FFF000
0101F000
0201F000
0601F000
0C01F000
1801F000
3803F800
FE0FFC00
ENDCHAR
STARTCHAR 0203
ENCODING 515
SWIDTH 510 0
DWIDTH 17 0
BBX 15 23 1 0
BITMAP
0078
00FC
01FC
030C
0204
0404
0000
0000
03DE
065C
1E3C
1C3C
3C3C
7878
7878
F878
F0F0
F0F0
F1F0
F2F4
F3EC
FDF8
70E0
ENDCHAR
STARTCHAR 0204
ENCODING 516
SWIDTH 660 0
DWIDTH 22 0
BBX 23 31 -1 0
BITMAP
007DE0
003CF0
001C70
000C70
000630
000618
000000
000000
000000
03FFFE
00F81E
00F806
00F804
00F804
01F000
01F020
01F020
01E040
03E1C0
03FFC0
03E180
07C080
07C080
07C080
078000
0F8008
0F8010
0F8030
1F00E0
3F03E0
FFFFE0
ENDCHAR
STARTCHAR 0205
ENCODING 517
SWIDTH 450 0
DWIDTH 15 0
BBX 14 23 1 0
BITMAP
1E78
0F78
073C
071C
030C
0184
0000
0000
00F8
0338
0E3C
1C38
3C78
7870
78E0
F3C0
FE00
F000
F000
F010
F860
7FC0
3E00
ENDCHAR
STARTCHAR 0206
ENCODING 518
SWIDTH 660 0
DWIDTH 22 0
BBX 23 31 -1 0
BITMAP
0000F0
0003F8
0003F8
000618
000408
000808
000000
000000
000000
03FFFE
00F81E
00F806
00F804
00F804
01F000
01F020
01F020
01E040
03E1C0
03FFC0
03E180
07C080
07C080
07C080
078000
0F8008
0F8010
0F8030
1F00E0
3F03E0
FFFFE0
ENDCHAR
STARTCHAR 0207
ENCODING 519
SWIDTH 450 0
DWIDTH 15 0
BBX 15 23 1 0
BITMAP
0078
00FC
01FE
0186
0102
0202
0000
0000
00F8
0338
0E3C
1C38
3C78
7870
78E0
F3C0
FE00
F000
F000
F010
F860
7FC0
3E00
ENDCHAR
STARTCHAR 0208
ENCODING 520
SWIDTH 390 0
DWIDTH 13 0
BBX 16 31 -1 0
BITMAP
079E
039E
03CF
01C7
00C3
0061
0000
0000
0000
03FF
00FC
00F8
00F8
00F0
01F0
01F0
01F0
03E0
03E0
03E0
03E0
07C0
07C0
07C0
0F80
0F80
0F80
0F80
1F00
3F80
FFE0
ENDCHAR
STARTCHAR 0209
ENCODING 521
SWIDTH 270 0
DWIDTH 9 0
BBX 12 23 -1 0
BITMAP
F3C0
79C0
39E0
18E0
1C60
0C30
0000
0000
0380
1F80
0F80
0F00
0F00
0F00
0F00
1E00
1E00
1E00
3C00
3C80
3D00
3E00
3C00
ENDCHAR
STARTCHAR 020A
ENCODING 522
SWIDTH 390 0
DWIDTH 13 0
BBX 16 31 -1 0
BITMAP
001E
007F
007F
00C3
0081
0101
0000
0000
0000
03FF
00FC
00F8
00F8
00F0
01F0
01F0
01F0
03E0
03E0
03E0
03E0
07C0
07C0
07C0
0F80
0F80
0F80
0F80
1F00
3F80
FFE0
ENDCHAR
STARTCHAR 020B
ENCODING 523
SWIDTH 270 0
DWIDTH 9 0
BBX 10 23 1 0
BITMAP
0700
1F80
1FC0
30C0
2040
4040
0000
0000
0E00
7E00
3E00
3C00
3C00
3C00
3C00
7800
7800
7800
F000
F200
F400
F800
F000
ENDCHAR
STARTCHAR 020C
ENCODING 524
SWIDTH 720 0
DWIDTH 24 0
BBX 22 31 2 0
BITMAP
01E780
00E780
00F3C0
0071C0
0030C0
001840
000000
000000
001F80
0061E0
01C0F0
0380F8
0F80F8
0F0078
1F00FC
3E00FC
3E00FC
7C00FC
7C00F8
FC00F8
FC01F8
F801F0
F801F0
F803E0
F803E0
F807C0
F80780
780F00
781E00
3C3800
0FE000
ENDCHAR
STARTCHAR 020D
ENCODING 525
SWIDTH 510 0
DWIDTH 17 0
BBX 15 23 1 0
BITMAP
3EF8
1E78
0E38
071C
030C
0104
0000
0000
01F0
0738
0E1C
1C3C
3C3E
783C
783C
F83C
F07C
F078
F0F0
F0F0
F1E0
7180
3E00
ENDCHAR
STARTCHAR 020E
ENCODING 526
SWIDTH 720 0
DWIDTH 24 0
BBX 22 31 2 0
BITMAP
000780
000FC0
001FE0
001860
003020
002020
000000
000000
001F80
0061E0
01C0F0
0380F8
0F80F8
0F0078
1F00FC
3E00FC
3E00FC
7C00FC
7C00F8
FC00F8
FC01F8
F801F0
F801F0
F803E0
F803E0
F807C0
F80780
780F00
781E00
3C3800
0FE000
ENDCHAR
STARTCHAR 020F
ENCODING 527
SWIDTH 510 0
DWIDTH 17 0
BBX 15 23 1 0
BITMAP
0078
00FC
01FE
018E
0206
0202
0000
0000
01F0
0738
0E1C
1C3C
3C3E
783C
783C
F83C
F07C
F078
F0F0
F0F0
F1E0
7180
3E00
ENDCHAR
STARTCHAR 0210
ENCODING 528
SWIDTH 660 0
DWIDTH 22 0
BBX 22 31 -1 0
BITMAP
01F7C0
00F3C0
0071C0
0038E0
001860
000820
000000
000000
000000
03FFE0
00F8F8
00F878
00F87C
00F07C
01F07C
01F07C
01E0F8
03E1F0
03E3E0
03FF00
03CF00
07CF80
07CF80
078780
0F87C0
0F87C0
0F87C0
0F03C0
1F03E0
3F83F0
FFE3F8
ENDCHAR
STARTCHAR 0211
ENCODING 529
SWIDTH 390 0
DWIDTH 13 0
BBX 12 23 1 0
BITMAP
F7C0
F3C0
79C0
38E0
1860
0820
0000
0000
1E70
7CF0
3CF0
3DF0
3D60
3A00
3A00
7C00
7C00
7800
7800
F000
F000
F000
F000
ENDCHAR
STARTCHAR 0212
ENCODING 530
SWIDTH 660 0
DWIDTH 22 0
BBX 22 31 -1 0
BITMAP
0003C0
0007E0
000FF0
000C30
000810
001010
000000
000000
000000
03FFE0
00F8F8
00F878
00F87C
00F07C
01F07C
01F07C
01E0F8
03E1F0
03E3E0
03FF00
03CF00
07CF80
07CF80
078780
0F87C0
0F87C0
0F87C0
0F03C0
1F03E0
3F83F0
FFE3F8
ENDCHAR
STARTCHAR 0213
ENCODING 531
SWIDTH 390 0
DWIDTH 13 0
BBX 12 23 1 0
BITMAP
03C0
07E0
0FF0
0C30
1030
1010
0000
0000
1E70
7CF0
3CF0
3DF0
3D60
3A00
3A00
7C00
7C00
7800
7800
F000
F000
F000
F000
ENDCHAR
STARTCHAR 0214
ENCODING 532
SWIDTH 720 0
DWIDTH 24 0
BBX 24 31 3 0
BITMAP
03CF00
01CF00
01E780
00E380
006180
003080
000000
000000
000000
7FF0FF
1FC03C
0F8018
0F8010
1F0010
1F0030
1F0020
1E0020
3E0060
3E0040
3C0040
7C00C0
7C0080
780080
F80080
F80100
F80100
F80300
F80600
7E0C00
3FF800
0FE000
ENDCHAR
STARTCHAR 0215
ENCODING 533
SWIDTH 540 0
DWIDTH 18 0
BBX 16 23 1 0
BITMAP
1E78
0F78
073C
071C
030C
0184
0000
0000
0F0F
7E0F
1E1E
1E1E
3C1E
3C3E
3C3C
3C7C
78FC
78F8
7978
F27A
FCFA
F8FC
7070
ENDCHAR
STARTCHAR 0216
ENCODING 534
SWIDTH 720 0
DWIDTH 24 0
BBX 24 31 3 0
BITMAP
000780
000FC0
001FC0
0010E0
002060
002040
000000
000000
000000
7FF0FF
1FC03C
0F8018
0F8010
1F0010
1F0030
1F0020
1E0020
3E0060
3E0040
3C0040
7C00C0
7C0080
780080
F80080
F80100
F80100
F80300
F80600
7E0C00
3FF800
0FE000
ENDCHAR
STARTCHAR 0217
ENCODING 535
SWIDTH 540 0
DWIDTH 18 0
BBX 16 23 1 0
BITMAP
0078
00FC
01FC
030E
0206
0204
0000
0000
0F0F
7E0F
1E1E
1E1E
3C1E
3C3E
3C3C
3C7C
78FC
78F8
7978
F27A
FCFA
F8FC
7070
ENDCHAR
STARTCHAR 0218
ENCODING 536
SWIDTH 540 0
DWIDTH 18 0
BBX 20 32 -1 -9
BITMAP
007E10
00F1F0
01E0F0
03C060
03C060
07C020
07C020
07E020
03F000
03F800
01F800
00FC00
007E00
007F00
003F80
201F80
200F80
200F80
700F80
700F00
780F00
7C3E00
C3F800
000000
000000
018000
03C000
03C000
01C000
018000
030000
040000
ENDCHAR
STARTCHAR 0219
ENCODING 537
SWIDTH 390 0
DWIDTH 13 0
BBX 12 24 0 -9
BITMAP
07D0
1C70
1C30
3C10
3E10
1F00
1F80
0FC0
07C0
03E0
81E0
41C0
C1C0
F180
9F00
0000
0000
1C00
3C00
1C00
0C00
0C00
3000
6000
ENDCHAR
STARTCHAR 021A
ENCODING 538
SWIDTH 600 0
DWIDTH 20 0
BBX 20 31 3 -9
BITMAP
3FFFF0
3CF8E0
30F860
60F860
41F020
81F040
01F000
01E000
03E000
03E000
03E000
07C000
07C000
07C000
078000
0F8000
0F8000
0F8000
1F0000
1F0000
3F0000
FFE000
000000
000000
180000
3C0000
3C0000
1C0000
180000
300000
400000
ENDCHAR
STARTCHAR 021B
ENCODING 539
SWIDTH 270 0
DWIDTH 9 0
BBX 11 28 -1 -9
BITMAP
0040
00C0
01C0
0380
0FE0
1FE0
0F80
0F00
0F00
0F00
1E00
1E00
1E00
3E00
3C00
3C80
3D00
3E00
3C00
0000
0000
3800
7800
3800
1800
1000
6000
C000
ENDCHAR
STARTCHAR 021C
ENCODING 540
SWIDTH 570 0
DWIDTH 19 0
BBX 22 30 -2 -7
BITMAP
008FE0
00F0F8
01C078
01807C
01007C
02007C
000078
0000F8
0000F0
0001E0
0003C0
000780
001E00
00FE00
030F00
000780
000780
0007C0
0007C0
0007C0
000780
000F80
000F80
001F00
003E00
007C00
00F000
03C000
3F0000
E00000
ENDCHAR
STARTCHAR 021D
ENCODING 541
SWIDTH 450 0
DWIDTH 15 0
BBX 17 22 -3 -7
BITMAP
027E00
038F00
020F80
020F80
000F80
000F00
000E00
001C00
003000
01C000
067800
003C00
003C00
003C00
003C00
007800
00F800
00E000
03C000
070000
1C0000
E00000
ENDCHAR
STARTCHAR 021E
ENCODING 542
SWIDTH 780 0
DWIDTH 26 0
BBX 29 30 -1 0
BITMAP
00030700
00038E00
0001DC00
0001F800
0001F000
00000000
00000000
00000000
03FF3FF8
00FC07E0
00F807C0
00F807C0
00F80F80
01F00F80
01F00F80
01F00F00
01E01F00
03E01F00
03FFFF00
03C03E00
07C03E00
07C03E00
07807C00
0F807C00
0F807C00
0F807800
0F00F800
1F00F800
3F81F800
FFE7FE00
ENDCHAR
STARTCHAR 021F
ENCODING 543
SWIDTH 540 0
DWIDTH 18 0
BBX 17 30 1 0
BITMAP
018380
01C700
00EE00
00FC00
00F800
000000
000000
03C000
1F8000
078000
078000
078000
0F0000
0F0000
0F0000
0E1E00
1E3E00
1E7E00
1EDE00
3D9E00
3D1E00
3E3C00
3C3C00
7C3C00
787800
787800
F07A00
F07A00
F0FC00
F07000
ENDCHAR
STARTCHAR 0220
ENCODING 544
SWIDTH 750 0
DWIDTH 25 0
BBX 26 30 -1 -7
BITMAP
00007E00
03FDFF80
00FF0F80
00F807C0
00F80780
00F80F80
00F00F80
01F00F80
01F00F00
01E01F00
03E01F00
03E01F00
03E03E00
07C03E00
07C03E00
07C03C00
07807C00
0F807C00
0F807C00
0F80F800
1F00F800
3F80F800
FFE0F000
0001F000
0001F000
0001F000
0003E000
0003E000
0007F000
001FF800
ENDCHAR
STARTCHAR 0221
ENCODING 545
SWIDTH 510 0
DWIDTH 17 0
BBX 17 30 1 -7
BITMAP
000780
001F80
000F00
000F00
000F00
000E00
001E00
001E00
03DE00
073C00
1E3C00
1C3C00
3C3C00
783800
787800
F87800
F0F000
F0F000
F1F000
F1F000
F7E000
F9E000
71E000
01E000
03FC00
03FE00
03C600
078400
0DCC00
08F800
ENDCHAR
STARTCHAR 0222
ENCODING 546
SWIDTH 660 0
DWIDTH 22 0
BBX 20 23 1 0
BITMAP
000180
0039E0
00E0F0
03C0F0
0780F0
0F80F0
0F80F0
0F01F0
0F01E0
0F03C0
078780
01FE00
0F0780
1E03C0
3C03C0
7803C0
F803C0
F803C0
F807C0
F80780
780F00
7C3E00
1FF000
ENDCHAR
STARTCHAR 0223
ENCODING 547
SWIDTH 540 0
DWIDTH 18 0
BBX 19 23 0 0
BITMAP
004180
01C1C0
0381E0
0781E0
0F01E0
0F01E0
0F01C0
070380
078700
01FC00
070E00
0E0F00
1C0700
380780
780780
780780
780F00
F00F00
F00E00
781C00
781800
3C7000
1FC000
ENDCHAR
STARTCHAR 0224
ENCODING 548
SWIDTH 600 0
DWIDTH 20 0
BBX 23 29 -1 -7
BITMAP
01FFFE
03C0FE
0300FC
0201F8
0403F0
0007E0
000FC0
001FC0
001F80
003F00
007E00
00FC00
01FC00
01F800
03F000
07E000
0FC000
1FC000
1F8000
3F0000
7E0000
FFFFC0
0001E0
0001E0
0001E0
0001C0
000180
000300
000400
ENDCHAR
STARTCHAR 0225
ENCODING 549
SWIDTH 390 0
DWIDTH 13 0
BBX 13 22 0 -7
BITMAP
1FF8
1FF0
3FE0
3FC0
3080
2100
0100
0200
0400
0800
1000
1FC0
3FE0
7FE0
FFF0
00F0
00E0
00E0
00C0
0080
0100
0200
ENDCHAR
STARTCHAR 0226
ENCODING 550
SWIDTH 660 0
DWIDTH 22 0
BBX 23 29 -2 0
BITMAP
00001C
00001E
00001E
00001E
000000
000000
000008
000018
000038
000078
0000F0
0001F0
0001F0
0002F0
0006F0
000CF0
0018F0
0010F0
0031F0
0061F0
00C1F0
01FFF0
0101F0
0201F0
0601F0
0C01F0
1801F0
3803F8
FE0FFC
ENDCHAR
STARTCHAR 0227
ENCODING 551
SWIDTH 510 0
DWIDTH 17 0
BBX 15 21 1 0
BITMAP
00E0
01F0
01F0
00E0
0000
0000
03DE
065C
1E3C
1C3C
3C3C
7878
7878
F878
F0F0
F0F0
F1F0
F2F4
F3EC
FDF8
70E0
ENDCHAR
STARTCHAR 0228
ENCODING 552
SWIDTH 660 0
DWIDTH 22 0
BBX 23 29 -1 -7
BITMAP
03FFFE
00F81E
00F806
00F804
00F804
01F000
01F020
01F020
01E040
03E1C0
03FFC0
03E180
07C080
07C080
07C080
0F8000
0F8008
0F8010
0F8030
1F00E0
3F03E0
FFFFE0
004000
01E000
007000
007000
007000
00F000
07E000
ENDCHAR
STARTCHAR 0229
ENCODING 553
SWIDTH 450 0
DWIDTH 15 0
BBX 15 22 0 -7
BITMAP
007C
019C
071E
0E1C
1E3C
3C38
3C70
79E0
7F00
7800
7800
7808
7C30
3FE0
1F00
0800
3C00
0E00
0F00
0F00
0E00
FC00
ENDCHAR
STARTCHAR 022A
ENCODING 554
SWIDTH 720 0
DWIDTH 24 0
BBX 22 30 2 0
BITMAP
000FF0
000FF0
000000
0018C0
0018E0
000000
000000
001F80
0061E0
01C0F0
0380F8
0F80F8
0F0078
1F00FC
3E00FC
3E00FC
7C00FC
7C00F8
FC00F8
FC01F8
F801F0
F801F0
F803E0
F803E0
F807C0
F80780
780F00
781E00
3C3800
0FE000
ENDCHAR
STARTCHAR 022B
ENCODING 555
SWIDTH 510 0
DWIDTH 17 0
BBX 17 26 1 0
BITMAP
03FF80
03FF80
07FF80
000000
000000
030C00
079E00
079E00
030C00
000000
000000
01F000
073800
0E1C00
1C3C00
3C3E00
783C00
783C00
F83C00
F07C00
F07800
F0F000
F0F000
F1E000
718000
3E0000
ENDCHAR
STARTCHAR 022C
ENCODING 556
SWIDTH 720 0
DWIDTH 24 0
BBX 22 30 2 0
BITMAP
000FF0
001FE0
000000
001E20
0023C0
000000
000000
001F80
0061E0
01C0F0
0380F8
0F80F8
0F0078
1F00FC
3E00FC
3E00FC
7C00FC
7C00F8
FC00F8
FC01F8
F801F0
F801F0
F803E0
F803E0
F807C0
F80780
780F00
781E00
3C3800
0FE000
ENDCHAR
STARTCHAR 022D
ENCODING 557
SWIDTH 510 0
DWIDTH 17 0
BBX 17 26 1 0
BITMAP
03FF80
03FF80
07FF80
000000
000000
03E200
07FE00
07FC00
047800
000000
000000
01F000
073800
0E1C00
1C3C00
3C3E00
783C00
783C00
F83C00
F07C00
F07800
F0F000
F0F000
F1E000
718000
3E0000
ENDCHAR
STARTCHAR 022E
ENCODING 558
SWIDTH 720 0
DWIDTH 24 0
BBX 22 29 2 0
BITMAP
000700
000F80
000F80
000700
000000
000000
001F80
0061E0
01C0F0
0380F8
0F80F8
0F0078
1F00FC
3E00FC
3E00FC
7C00FC
7C00F8
FC00F8
FC01F8
F801F0
F801F0
F803E0
F803E0
F807C0
F80780
780F00
781E00
3C3800
0FE000
ENDCHAR
STARTCHAR 022F
ENCODING 559
SWIDTH 510 0
DWIDTH 17 0
BBX 15 21 1 0
BITMAP
0070
00F0
00F8
0070
0000
0000
01F0
0738
0E1C
1C3C
3C3E
783C
783C
F83C
F07C
F078
F0F0
F0F0
F1E0
7180
3E00
ENDCHAR
STARTCHAR 0230
ENCODING 560
SWIDTH 720 0
DWIDTH 24 0
BBX 22 30 2 0
BITMAP
000FF0
000FF0
000000
000700
000700
000000
000000
001F80
0061E0
01C0F0
0380F8
0F80F8
0F0078
1F00FC
3E00FC
3E00FC
7C00FC
7C00F8
FC00F8
FC01F8
F801F0
F801F0
F803E0
F803E0
F807C0
F80780
780F00
781E00
3C3800
0FE000
ENDCHAR
STARTCHAR 0231
ENCODING 561
SWIDTH 510 0
DWIDTH 17 0
BBX 17 26 1 0
BITMAP
03FF80
03FF80
07FF80
000000
000000
007000
00F800
00F800
007000
000000
000000
01F000
073800
0E1C00
1C3C00
3C3E00
783C00
783C00
F83C00
F07C00
F07800
F0F000
F0F000
F1E000
718000
3E0000
ENDCHAR
STARTCHAR 0232
ENCODING 562
SWIDTH 600 0
DWIDTH 20 0
BBX 21 28 3 0
BITMAP
01FFC0
01FFC0
01FFC0
000000
000000
000000
7FF3F8
3F81E0
1F80C0
0F8080
0F8100
0F8300
0F8200
078400
07CC00
07C800
07D000
03E000
03E000
07C000
07C000
07C000
078000
0F8000
0F8000
0F8000
1F8000
FFE000
ENDCHAR
STARTCHAR 0233
ENCODING 563
SWIDTH 450 0
DWIDTH 15 0
BBX 19 27 -3 -7
BITMAP
00FFE0
00FFE0
00FFE0
000000
000000
038380
0FC780
03C7C0
03C380
03C180
03C180
03C100
03C300
01C200
01E400
01E400
01E800
01F000
01F000
01E000
01C000
018000
010000
610000
F20000
FC0000
700000
ENDCHAR
STARTCHAR 0234
ENCODING 564
SWIDTH 270 0
DWIDTH 9 0
BBX 13 30 -3 -7
BITMAP
0038
01F8
00F8
00F0
00F0
00F0
00F0
01E0
01E0
01E0
01E0
03C0
03C0
03C0
0780
0780
0780
0780
0F00
0F00
0F00
1E00
1E00
1E00
1FC0
1FE0
1C60
3C60
5C40
8F80
ENDCHAR
STARTCHAR 0235
ENCODING 565
SWIDTH 540 0
DWIDTH 18 0
BBX 16 22 1 -7
BITMAP
0F0E
7E3E
1E7E
1EDE
1F9E
3D1E
3E3C
3C3C
7C3C
787C
7878
F878
F078
F0F0
F0F0
00F0
00FE
00FF
00E3
01E3
02E2
047C
ENDCHAR
STARTCHAR 0236
ENCODING 566
SWIDTH 270 0
DWIDTH 9 0
BBX 11 19 -1 0
BITMAP
0040
00C0
01C0
0380
0FE0
1FE0
0F80
0F00
0F00
0F00
1E00
1E00
1E00
1FC0
1FE0
1C60
3C60
5C40
8F80
ENDCHAR
STARTCHAR 0237
ENCODING 567
SWIDTH 270 0
DWIDTH 9 0
BBX 14 22 -5 -7
BITMAP
003C
01F8
0078
0078
0078
00F0
00F0
00F0
01E0
01E0
01E0
01E0
03C0
03C0
03C0
0780
0780
0780
0700
EE00
EE00
F800
ENDCHAR
STARTCHAR 0238
ENCODING 568
SWIDTH 720 0
DWIDTH 24 0
BBX 22 23 1 0
BITMAP
000780
001F80
000F00
000F00
000F00
000F00
001E00
001E00
03DE70
073FF8
1E3E7C
1C3C3C
3C3C3C
78783C
78783C
F8783C
F0F078
F0F078
F1F0F0
F2F0F0
F4F1E0
F87380
703F00
ENDCHAR
STARTCHAR 0239
ENCODING 569
SWIDTH 720 0
DWIDTH 24 0
BBX 22 22 1 -7
BITMAP
03DE78
065EFC
0E3F3C
1C3C3C
3C3C3C
78383C
78783C
F8783C
F0F878
F0F078
F1F070
F2F0F0
F5E1E0
FDF380
71FF00
01E000
03C000
03C000
03C000
07C000
0FC000
1FE000
ENDCHAR
STARTCHAR 023A
ENCODING 570
SWIDTH 660 0
DWIDTH 22 0
BBX 26 24 -2 -1
BITMAP
00001840
00001880
00003900
00007A00
0000F400
0001FC00
0001F800
0002F000
0004F000
000CF000
0019F000
0033F000
0027F000
004DF000
00FFF000
0121F000
0341F000
0681F000
0581F000
0F01F000
1E01F000
3C03F000
FE0FFC00
10000000
ENDCHAR
STARTCHAR 023B
ENCODING 571
SWIDTH 660 0
DWIDTH 22 0
BBX 22 27 2 -2
BITMAP
000020
000020
001FE4
007878
01E0B8
07C198
0F8118
1F0318
1F0210
3E0600
7E0400
7C0C00
7C0800
FC1800
FC1000
F83000
F82000
F86000
F84000
7CC000
7C8040
3F8180
3F0700
0FFE00
03F000
060000
040000
ENDCHAR
STARTCHAR 023C
ENCODING 572
SWIDTH 510 0
DWIDTH 17 0
BBX 13 27 2 -6
BITMAP
0020
0020
0060
0040
0040
00C0
01F0
0798
1EB8
1D78
3930
7900
7200
F200
F200
F600
F400
F410
FC60
7FC0
3F00
0800
1000
1000
1000
3000
2000
ENDCHAR
STARTCHAR 023D
ENCODING 573
SWIDTH 600 0
DWIDTH 20 0
BBX 20 22 -1 0
BITMAP
03FF00
00FC00
00F800
00F800
00F800
01F000
01F000
01F000
01E000
03E000
1FFF00
03C000
07C000
07C000
07C000
0F8000
0F8010
0F8020
0F8060
1F01C0
3F07C0
FFFFC0
ENDCHAR
STARTCHAR 023E
ENCODING 574
SWIDTH 600 0
DWIDTH 20 0
BBX 24 24 -1 -1
BITMAP
000002
03FFFF
03CF9E
060F9E
040FB2
041F64
001FC0
001F80
001F00
003E00
003E00
003E00
007C00
007C00
007C00
00F800
01F800
02F800
04F800
09F000
11F000
23F800
4FFE00
800000
ENDCHAR
STARTCHAR 023F
ENCODING 575
SWIDTH 390 0
DWIDTH 13 0
BBX 12 22 0 -7
BITMAP
0790
1C70
1C30
3C10
3E10
3F00
1F80
0FC0
07C0
03E0
81E0
41C0
C1C0
F180
9F00
1000
1000
11C0
11C0
11C0
0BC0
0F80
ENDCHAR
STARTCHAR 0240
ENCODING 576
SWIDTH 390 0
DWIDTH 13 0
BBX 13 22 0 -7
BITMAP
1FF8
1FF0
3FE0
3FC0
3080
2100
0200
0400
0800
1000
1800
1C00
3C00
7C00
9C00
0E00
0E00
0600
0630
0678
0270
01E0
ENDCHAR
STARTCHAR 0241
ENCODING 577
SWIDTH 510 0
DWIDTH 17 0
BBX 18 23 0 0
BITMAP
00FC00
030700
0E0380
0F0380
0F03C0
0E03C0
0003C0
0003C0
000780
000780
000F00
001F00
007E00
07F800
07E000
0F0000
0F0000
0F0000
1F0000
1E0000
1E0000
3E0000
FF0000
ENDCHAR
STARTCHAR 0242
ENCODING 578
SWIDTH 450 0
DWIDTH 15 0
BBX 13 15 2 0
BITMAP
0FC0
70F0
E078
E078
E078
00F0
00F0
01E0
03C0
1F00
1E00
3C00
3C00
7C00
FE00
ENDCHAR
STARTCHAR 0243
ENCODING 579
SWIDTH 660 0
DWIDTH 22 0
BBX 22 22 -1 0
BITMAP
03FFE0
00F8F8
00F87C
00F87C
00F87C
00F07C
01F07C
01F0F8
01E1F0
01E3C0
03FE00
03E3C0
03C1E0
03C1F0
07C1F0
07C1F8
3FF9F0
0F81F0
0F83F0
1F03E0
1F0FC0
FFFE00
ENDCHAR
STARTCHAR 0244
ENCODING 580
SWIDTH 720 0
DWIDTH 24 0
BBX 25 22 2 0
BITMAP
3FF87F80
0FE01E00
07C00C00
07C00800
0F800800
0F801800
0F801000
0F001000
1F003000
1F002000
FFFFFC00
3E006000
3E004000
3E004000
7C004000
7C008000
7C008000
7C018000
7C030000
3F0E0000
1FFC0000
07F00000
ENDCHAR
STARTCHAR 0245
ENCODING 581
SWIDTH 660 0
DWIDTH 22 0
BBX 22 23 -2 0
BITMAP
000010
000030
000030
000070
0000F0
0001F0
0003F0
0005F0
0009F0
0009F0
0011F0
0021F0
0041F0
0081F0
0181F0
0101F0
0201F0
0401F0
0801F0
1801F0
3001F0
7803F0
FC0FFC
ENDCHAR
STARTCHAR 0246
ENCODING 582
SWIDTH 660 0
DWIDTH 22 0
BBX 23 26 -1 -2
BITMAP
000002
000004
03FFFE
00F81E
00F81E
00F826
00F864
01F044
01F090
01F1A0
01E120
03E2E0
03FFE0
03ECC0
07C840
07D040
07F080
0FE000
0FC008
0F8010
0F8030
1F00E0
3F83E0
FFFFE0
0C0000
080000
ENDCHAR
STARTCHAR 0247
ENCODING 583
SWIDTH 450 0
DWIDTH 15 0
BBX 14 27 1 -6
BITMAP
0020
0020
0020
0040
0040
0040
00F8
03B8
0EBC
1D38
3D78
7970
7AE0
F3C0
FE00
F400
F400
F410
F860
7F80
3E00
1000
1000
1000
2000
2000
2000
ENDCHAR
STARTCHAR 0248
ENCODING 584
SWIDTH 510 0
DWIDTH 17 0
BBX 20 22 0 0
BITMAP
007FF0
001FC0
001F80
001F00
001F00
001E00
003E00
003E00
003E00
007C00
03FF80
007C00
007800
00F800
00F800
00F000
61F000
F1F000
F3E000
E3C000
E78000
3E0000
ENDCHAR
STARTCHAR 0249
ENCODING 585
SWIDTH 270 0
DWIDTH 9 0
BBX 15 29 -5 -7
BITMAP
001C
003E
003E
001C
0000
0000
0000
003C
01F8
0078
0078
00F8
00F0
00F0
07FC
01E0
01E0
01E0
01E0
03C0
03C0
03C0
0780
0780
0780
0700
EE00
EE00
F800
ENDCHAR
STARTCHAR 024A
ENCODING 586
SWIDTH 780 0
DWIDTH 26 0
BBX 24 30 2 -7
BITMAP
001FFF
00F03F
03C01F
07801F
0F003E
1E003E
3E003E
7C003C
7C007C
FC007C
F8007C
F800F8
F800F8
F800F8
F800F0
F801F0
F801F0
F801F0
7C03E0
7C03E0
3E03E0
0F07C0
03FFC0
0007C0
0007C0
000780
000780
0007B8
0007B8
0001F0
ENDCHAR
STARTCHAR 024B
ENCODING 587
SWIDTH 510 0
DWIDTH 17 0
BBX 15 22 1 -7
BITMAP
03DE
065E
0E3C
1C3C
3C3C
7838
7878
F878
F0F8
F0F0
F1F0
F2F0
F4E0
FDE0
71E0
01C0
01C0
03C0
03DC
03BC
0198
01F0
ENDCHAR
STARTCHAR 024C
ENCODING 588
SWIDTH 660 0
DWIDTH 22 0
BBX 22 22 -1 0
BITMAP
03FFE0
00F8F8
00F87C
00F87C
00F07C
01F07C
01F07C
01F0F8
01E0F0
03E3E0
1FFF80
03CF00
07CF80
07CF80
07C780
0F87C0
0F87C0
0F87C0
0F03C0
1F03E0
3F83F0
FFE3F8
ENDCHAR
STARTCHAR 024D
ENCODING 589
SWIDTH 390 0
DWIDTH 13 0
BBX 13 15 0 0
BITMAP
0F38
3E78
1E78
1EF8
1FB0
1D00
1E00
FFC0
3C00
3C00
3C00
7800
7800
7800
7800
ENDCHAR
STARTCHAR 024E
ENCODING 590
SWIDTH 600 0
DWIDTH 20 0
BBX 21 22 3 0
BITMAP
7FF3F8
3F81E0
1F80C0
0F8080
0F8180
FFFFF0
0F8600
078400
07CC00
07D800
07F000
03E000
03E000
07C000
07C000
07C000
0F8000
0F8000
0F8000
1F0000
3F8000
FFE000
ENDCHAR
STARTCHAR 024F
ENCODING 591
SWIDTH 450 0
DWIDTH 15 0
BBX 18 22 -3 -7
BITMAP
038380
0FC780
03C7C0
03C380
03C180
03C180
03C100
0FFFC0
01E200
01E400
01EC00
01E800
01F000
01F000
01E000
01C000
018000
010000
630000
FE0000
F80000
700000
ENDCHAR
STARTCHAR 0250
ENCODING 592
SWIDTH 450 0
DWIDTH 15 0
BBX 14 15 1 0
BITMAP
1C78
7DFC
BF3C
3C3C
3C38
3870
78E0
7B80
7C00
F060
F0E0
F0E0
F1C0
F180
7E00
ENDCHAR
STARTCHAR 0251
ENCODING 593
SWIDTH 510 0
DWIDTH 17 0
BBX 15 15 1 0
BITMAP
03DE
065C
1E3C
1C3C
3C3C
7878
7878
F878
F0F0
F0F0
F1F0
F2F4
F3EC
FDF8
70E0
ENDCHAR
STARTCHAR 0252
ENCODING 594
SWIDTH 510 0
DWIDTH 17 0
BBX 15 15 1 0
BITMAP
1E3C
3E7C
5EFE
9FBE
1F1E
3E1E
3C3C
3C3C
783C
7878
7878
78F0
F8E0
F9C0
F700
ENDCHAR
STARTCHAR 0253
ENCODING 595
SWIDTH 510 0
DWIDTH 17 0
BBX 16 23 0 0
BITMAP
003E
00F7
01E7
03C7
03C6
0780
0780
0F00
0F3C
0FFE
1F1E
1F1E
1E1E
1E1E
3C1E
3C1E
3C1E
783C
783C
7878
78F0
F1E0
1F80
ENDCHAR
STARTCHAR 0254
ENCODING 596
SWIDTH 450 0
DWIDTH 15 0
BBX 14 15 0 0
BITMAP
03E0
0FF8
18F8
207C
003C
003C
003C
0078
0078
7070
70F0
F0E0
E1C0
6380
3E00
ENDCHAR
STARTCHAR 0255
ENCODING 597
SWIDTH 450 0
DWIDTH 15 0
BBX 15 16 -1 -1
BITMAP
007C
01C6
038E
070E
0E1E
1E0C
1E00
3C00
3C00
3DF0
3E18
3C08
3E18
5FF0
8FC0
8000
ENDCHAR
STARTCHAR 0256
ENCODING 598
SWIDTH 510 0
DWIDTH 17 0
BBX 17 30 1 -7
BITMAP
000780
001F80
000F00
000F00
000F00
000E00
001E00
001E00
03DE00
073C00
1E3C00
1C3C00
3C3800
787800
787800
F87800
F0F000
F0F000
F1F000
F2E000
F5E000
F9E000
71E000
01C000
03C000
03C000
039800
03BC00
03B800
01F000
ENDCHAR
STARTCHAR 0257
ENCODING 599
SWIDTH 510 0
DWIDTH 17 0
BBX 22 23 1 0
BITMAP
000078
0001CC
00039C
00078C
000F00
000F00
001E00
001E00
03DE00
073C00
1E3C00
1C3C00
3C3C00
787800
787800
F87800
F0F000
F0F000
F1F000
F2F400
F5E400
F9F800
70E000
ENDCHAR
STARTCHAR 0258
ENCODING 600
SWIDTH 450 0
DWIDTH 15 0
BBX 14 15 0 0
BITMAP
07C0
0E70
1E38
1E38
1C38
1C3C
1E3C
0F78
03F8
0078
00F0
81F0
C3E0
7FC0
3F00
ENDCHAR
STARTCHAR 0259
ENCODING 601
SWIDTH 450 0
DWIDTH 15 0
BBX 14 15 0 0
BITMAP
03F0
0FF8
187C
207C
003C
007C
03FC
0E78
3C78
78F0
70E0
F1E0
F1C0
F300
7C00
ENDCHAR
STARTCHAR 025A
ENCODING 602
SWIDTH 570 0
DWIDTH 19 0
BBX 21 15 0 0
BITMAP
03F000
0FF800
187D00
207F00
003F08
00FFF0
03FBF0
0E79C0
1C7800
38F000
70E000
F1E000
F18000
F30000
7C0000
ENDCHAR
STARTCHAR 025B
ENCODING 603
SWIDTH 420 0
DWIDTH 14 0
BBX 14 15 0 0
BITMAP
03E0
0F38
1E3C
1C1C
1C18
1C00
0E00
07C0
3C00
7800
F800
F000
F030
7840
1F80
ENDCHAR
STARTCHAR 025C
ENCODING 604
SWIDTH 420 0
DWIDTH 14 0
BBX 13 15 0 0
BITMAP
03E0
0C70
1C78
3878
3070
00F0
00E0
1F80
01E0
01E0
01E0
01E0
83E0
47C0
3F00
ENDCHAR
STARTCHAR 025D
ENCODING 605
SWIDTH 540 0
DWIDTH 18 0
BBX 20 15 0 0
BITMAP
03E000
0C7000
1C7A00
387E00
307E00
00F610
00E7E0
1F87C0
01E380
01E000
01E000
01E000
83E000
47C000
3F0000
ENDCHAR
STARTCHAR 025E
ENCODING 606
SWIDTH 450 0
DWIDTH 15 0
BBX 13 15 1 0
BITMAP
03F0
0FF8
1FF8
3FF8
7818
6018
C030
8FC0
8020
8030
E070
FFF0
7FE0
7FC0
1F80
ENDCHAR
STARTCHAR 025F
ENCODING 607
SWIDTH 270 0
DWIDTH 9 0
BBX 14 22 -5 -7
BITMAP
003C
01F8
0078
0078
00F8
00F0
00F0
00F0
01E0
01E0
01E0
01E0
0FF8
0FF0
03C0
0380
0780
0780
0700
EE00
EC00
F800
ENDCHAR
STARTCHAR 0260
ENCODING 608
SWIDTH 510 0
DWIDTH 17 0
BBX 24 30 -1 -7
BITMAP
00001F
000073
0000E7
0001E3
0001C0
0003C0
000380
000780
00E780
019700
078F00
070F00
0F0F00
1E1E00
1E1E00
3E1E00
3C3C00
3C3C00
3C7C00
3CBC00
3D7800
3E7800
1C7800
007000
00F000
40E000
E0E000
E1C000
F30000
7C0000
ENDCHAR
STARTCHAR 0261
ENCODING 609
SWIDTH 510 0
DWIDTH 17 0
BBX 17 22 -1 -7
BITMAP
00E780
019700
078F00
070F00
0F0F00
1E1E00
1E1E00
3E1E00
3C3C00
3C3C00
3C7C00
3CBC00
3D7800
3E7800
1C7800
007000
00F000
40E000
E0E000
E1C000
F30000
7C0000
ENDCHAR
STARTCHAR 0262
ENCODING 610
SWIDTH 510 0
DWIDTH 17 0
BBX 16 15 1 0
BITMAP
01F9
0F0E
1E06
3C02
7802
7800
F000
F000
F0FE
F03C
F03C
F078
7078
38F0
0FE0
ENDCHAR
STARTCHAR 0263
ENCODING 611
SWIDTH 480 0
DWIDTH 16 0
BBX 17 22 1 -7
BITMAP
FF8F80
3E0300
3C0200
3C0400
3C0800
1E1800
1E3000
1E2000
1E4000
1E8000
1F8000
0F0000
0F0000
0F0000
0F0000
1F0000
1F0000
2F8000
470000
470000
4F0000
7C0000
ENDCHAR
STARTCHAR 0264
ENCODING 612
SWIDTH 450 0
DWIDTH 15 0
BBX 15 15 1 0
BITMAP
3E1C
7F22
8F42
0F80
0780
0780
0780
0F80
0F80
1780
2780
2780
6780
6700
3E00
ENDCHAR
STARTCHAR 0265
ENCODING 613
SWIDTH 540 0
DWIDTH 18 0
BBX 16 22 1 -7
BITMAP
1E0F
3E0F
5E0F
9E1E
1E1E
3C1E
3C3C
3C7C
787C
78BC
7978
FB78
FE78
FCF0
70F0
00F0
00F0
01E0
01E0
01E0
01F8
03C0
ENDCHAR
STARTCHAR 0266
ENCODING 614
SWIDTH 540 0
DWIDTH 18 0
BBX 16 23 1 0
BITMAP
003C
00E6
01CE
038E
0786
0F80
0F00
0F00
1F0E
1E3E
1E7E
1EDE
3D9E
3D1E
3E3C
7C3C
7C3C
7878
7878
F079
F07A
F07C
F078
ENDCHAR
STARTCHAR 0267
ENCODING 615
SWIDTH 540 0
DWIDTH 18 0
BBX 15 30 1 -7
BITMAP
003C
00E6
01CE
038E
0786
0F80
0F00
0F00
1F0E
1E3E
1E7E
1EDE
3D9E
3D1E
3E3C
7C3C
7C3C
787C
7878
F078
F078
F0F0
F0F0
00F0
01E0
01E0
01C0
3BC0
3B80
1E00
ENDCHAR
STARTCHAR 0268
ENCODING 616
SWIDTH 270 0
DWIDTH 9 0
BBX 10 22 0 0
BITMAP
0380
07C0
07C0
0380
0000
0000
0000
0700
3F00
1F00
1E00
1E00
1E00
1E00
FF00
3C00
3C00
7800
7900
7A00
7C00
7800
ENDCHAR
STARTCHAR 0269
ENCODING 617
SWIDTH 270 0
DWIDTH 9 0
BBX 7 15 1 0
BITMAP
0E
7E
3E
3C
3C
3C
3C
78
78
78
F0
F2
F4
F8
F0
ENDCHAR
STARTCHAR 026A
ENCODING 618
SWIDTH 300 0
DWIDTH 10 0
BBX 11 15 -1 0
BITMAP
0FE0
07C0
0780
0780
0780
0F00
0F00
0F00
1E00
1E00
1E00
3C00
3C00
7C00
FF00
ENDCHAR
STARTCHAR 026B
ENCODING 619
SWIDTH 270 0
DWIDTH 9 0
BBX 10 23 0 0
BITMAP
01C0
0FC0
07C0
0780
0780
0780
0700
0F00
0F00
3F40
7FC0
FFC0
9F80
1C00
3C00
3C00
3C00
7800
7800
7900
7A00
7C00
7800
ENDCHAR
STARTCHAR 026C
ENCODING 620
SWIDTH 270 0
DWIDTH 9 0
BBX 9 23 1 0
BITMAP
0380
1F80
0F80
0F00
0F00
0F00
0F00
1E00
1E00
1E00
7C00
BC00
BC00
FF00
7800
7800
7800
F000
F000
F200
F400
F800
F000
ENDCHAR
STARTCHAR 026D
ENCODING 621
SWIDTH 270 0
DWIDTH 9 0
BBX 11 30 -1 -7
BITMAP
00E0
07E0
03E0
03C0
03C0
03C0
03C0
0780
0780
0780
0F00
0F00
0F00
0F00
1E00
1E00
1E00
3C00
3C00
3C00
3800
7800
7800
7800
7000
F000
F000
E700
6700
3C00
ENDCHAR
STARTCHAR 026E
ENCODING 622
SWIDTH 600 0
DWIDTH 20 0
BBX 20 30 1 -7
BITMAP
038000
1F8000
0F8000
0F0000
0F0000
0F0000
0F0000
1E0000
1FFFF0
1FFFE0
3F07C0
3C0F80
3C1F00
3C3E00
787C00
78F800
79F000
F3F800
F07C00
F03E00
F21E00
FC1E00
F01E00
001E00
003E00
803C00
403C00
407800
20E000
1F8000
ENDCHAR
STARTCHAR 026F
ENCODING 623
SWIDTH 780 0
DWIDTH 26 0
BBX 23 15 1 0
BITMAP
1C1E1E
3E1E1E
5E1E1E
9E1E3C
3C3C3C
3C3C3C
3C7C7C
7C7878
78F8F8
797978
F97AF0
F2F2F0
FCFCF0
F8F9FC
70F1E0
ENDCHAR
STARTCHAR 0270
ENCODING 624
SWIDTH 780 0
DWIDTH 26 0
BBX 23 22 1 -7
BITMAP
1C1E1E
3E1E1E
5E1E1E
9E1E3C
3C3C3C
3C3C3C
3C7C7C
7C7878
78F8F8
797978
F97AF0
F2F2F0
FCFCF0
F8F8F0
70F1E0
0001E0
0001E0
0003C0
0003C0
0003C0
0007F0
000780
ENDCHAR
STARTCHAR 0271
ENCODING 625
SWIDTH 780 0
DWIDTH 26 0
BBX 24 22 0 -7
BITMAP
078E0E
3F1F1F
0F3F3F
0F5F5F
1E9E9E
1E9E9E
1F1F1E
1E3E3C
3E3E3C
3C3C3C
3C3C7C
787878
787878
7878F8
F8F8F0
0000F0
0000F0
0001E0
0001E0
0019C0
003B80
001E00
ENDCHAR
STARTCHAR 0272
ENCODING 626
SWIDTH 540 0
DWIDTH 18 0
BBX 23 22 -6 -7
BITMAP
001E1C
00FC7C
003CFC
003DBC
003F3C
007A3C
007C78
007878
00F878
00F0F8
00F0F0
01F0F2
01E0F4
01E0F8
01E0F0
03C000
03C000
03C000
078000
770000
EE0000
7C0000
ENDCHAR
STARTCHAR 0273
ENCODING 627
SWIDTH 540 0
DWIDTH 18 0
BBX 15 22 1 -7
BITMAP
0F0E
7E3E
1E7E
1EDE
1F9E
3D1E
3E3C
3C3C
7C3C
7878
7878
F878
F078
F0F0
F0F0
00F0
01E0
01E0
01E0
01CE
00CE
00F8
ENDCHAR
STARTCHAR 0274
ENCODING 628
SWIDTH 510 0
DWIDTH 17 0
BBX 19 15 -1 0
BITMAP
1F83E0
07C0C0
07C080
07E080
05E100
09F100
08F100
087A00
107A00
103E00
103C00
201C00
201C00
600C00
F80800
ENDCHAR
STARTCHAR 0275
ENCODING 629
SWIDTH 510 0
DWIDTH 17 0
BBX 15 15 1 0
BITMAP
01F0
0738
0E1C
1C3C
3C3E
783C
783C
FFFC
F07C
F078
F070
F0F0
F1E0
7180
3E00
ENDCHAR
STARTCHAR 0276
ENCODING 630
SWIDTH 660 0
DWIDTH 22 0
BBX 21 15 1 0
BITMAP
01FFF8
071F18
1E1E08
3C1E10
7C1E00
781E40
F83C40
F83FC0
F03CC0
F07C80
F07800
F07820
F0F860
79F0E0
1FFFC0
ENDCHAR
STARTCHAR 0277
ENCODING 631
SWIDTH 690 0
DWIDTH 23 0
BBX 21 15 1 0
BITMAP
00FF80
07C0E0
0F0070
3E1838
3C3838
787838
F87878
F07878
F07078
F060F8
F060F0
F041F0
F0A3E0
713FC0
3E1F00
ENDCHAR
STARTCHAR 0278
ENCODING 632
SWIDTH 660 0
DWIDTH 22 0
BBX 20 29 1 -7
BITMAP
003FC0
000F00
000F00
001E00
001E00
001E00
003C00
00FF80
07BDC0
0F3CE0
3E78F0
3C78F0
7878F0
F8F0F0
F8F0F0
F0F1F0
F1F1E0
F1E3E0
F1E3C0
F9E780
7BDE00
1FF000
03C000
07C000
078000
078000
078000
0F8000
3FC000
ENDCHAR
STARTCHAR 0279
ENCODING 633
SWIDTH 390 0
DWIDTH 13 0
BBX 12 15 0 0
BITMAP
00F0
00F0
00F0
01E0
01E0
01E0
03E0
03C0
05C0
07C0
CBC0
FB80
F380
E7E0
C700
ENDCHAR
STARTCHAR 027A
ENCODING 634
SWIDTH 390 0
DWIDTH 13 0
BBX 14 22 0 0
BITMAP
003C
003C
0038
0078
0078
0078
00F0
00F0
00F0
00F0
01E0
01E0
01E0
03E0
03C0
05C0
07C0
CBC0
FB80
F380
E7E0
C700
ENDCHAR
STARTCHAR 027B
ENCODING 635
SWIDTH 390 0
DWIDTH 13 0
BBX 12 22 0 -7
BITMAP
00F0
00F0
00F0
01E0
01E0
01E0
03E0
03C0
05C0
07C0
CBC0
FB80
F380
E780
C780
0700
0700
0700
0F00
0E70
0670
03C0
ENDCHAR
STARTCHAR 027C
ENCODING 636
SWIDTH 390 0
DWIDTH 13 0
BBX 14 22 -1 -7
BITMAP
079C
1F3C
0F3C
0F7C
0F58
0E80
0E80
1F00
1F00
1E00
1E00
3C00
3C00
3C00
3C00
7800
7800
7800
7800
F000
F000
F000
ENDCHAR
STARTCHAR 027D
ENCODING 637
SWIDTH 390 0
DWIDTH 13 0
BBX 13 22 0 -7
BITMAP
0F38
3E78
1E78
1EF8
1EB0
1D00
1D00
3E00
3E00
3C00
3C00
7800
7800
7800
7800
F000
F000
F000
E000
E700
EE00
7C00
ENDCHAR
STARTCHAR 027E
ENCODING 638
SWIDTH 420 0
DWIDTH 14 0
BBX 13 15 1 0
BITMAP
01F0
0638
0E38
1C18
1C00
3C00
3C00
3800
7800
7800
7000
F000
F000
F000
E000
ENDCHAR
STARTCHAR 027F
ENCODING 639
SWIDTH 390 0
DWIDTH 13 0
BBX 10 22 1 -7
BITMAP
1F00
7980
F1C0
E1C0
01C0
03C0
03C0
03C0
0780
0780
0780
0F00
0F00
0F00
0E00
1E00
1E00
1E00
3C00
3C00
3C00
7800
ENDCHAR
STARTCHAR 0280
ENCODING 640
SWIDTH 480 0
DWIDTH 16 0
BBX 16 15 -1 0
BITMAP
0FFC
079E
078F
078F
0F0F
0F1F
0F3E
0FF8
1EF0
1E78
1E78
3E78
3C3C
7C3C
FF3F
ENDCHAR
STARTCHAR 0281
ENCODING 641
SWIDTH 480 0
DWIDTH 16 0
BBX 20 15 -1 0
BITMAP
0FF3F0
07C7C0
078F80
078F00
079E00
0F3C00
0F7800
0FF800
1E3C00
1E3C00
1E3C00
1E3C00
3C7C00
3CF800
FFC000
ENDCHAR
STARTCHAR 0282
ENCODING 642
SWIDTH 390 0
DWIDTH 13 0
BBX 13 22 -1 -7
BITMAP
03C8
0E38
1E18
1E08
1F08
0F80
0FC0
07E0
03E0
01F0
40F0
60E0
60E0
78C0
FF80
E000
E000
E000
E000
CE00
DE00
7800
ENDCHAR
STARTCHAR 0283
ENCODING 643
SWIDTH 330 0
DWIDTH 11 0
BBX 22 30 -5 -7
BITMAP
0000F8
00039C
00071C
000F18
001E00
001E00
003E00
003C00
003C00
007C00
007C00
007800
007800
00F800
00F800
00F000
00F000
01F000
01F000
01E000
01E000
03E000
03C000
03C000
03C000
078000
E78000
E70000
EE0000
F80000
ENDCHAR
STARTCHAR 0284
ENCODING 644
SWIDTH 330 0
DWIDTH 11 0
BBX 22 30 -5 -7
BITMAP
0000F8
00039C
00071C
000F18
001E00
001E00
003E00
003C00
003C00
003C00
007C00
007800
007800
007800
00F800
00F000
00F000
00F000
01E000
01E000
07F800
0FF800
03C000
03C000
03C000
078000
E70000
E70000
EE0000
F80000
ENDCHAR
STARTCHAR 0285
ENCODING 645
SWIDTH 300 0
DWIDTH 10 0
BBX 10 22 -1 -7
BITMAP
1E00
7700
7380
E380
0380
0780
0780
0780
0F00
0F00
0F00
0F00
1E00
1E00
1E00
3C00
3C00
3C00
39C0
3BC0
3B80
1F00
ENDCHAR
STARTCHAR 0286
ENCODING 646
SWIDTH 330 0
DWIDTH 11 0
BBX 22 30 -5 -7
BITMAP
0000F8
00039C
00071C
000F18
001E00
001E00
003E00
003C00
003C00
003C00
007C00
007800
007800
007800
00F800
00F000
00F000
00F000
01F000
01E000
01E000
01E000
03C000
03C000
3FC000
7F8000
C78000
878000
CE8000
788000
ENDCHAR
STARTCHAR 0287
ENCODING 647
SWIDTH 270 0
DWIDTH 9 0
BBX 9 19 0 0
BITMAP
0780
1F80
1780
2780
0780
0F00
0F00
0F00
1F00
1E00
1E00
1E00
3C00
FF00
FE00
7800
7000
6000
4000
ENDCHAR
STARTCHAR 0288
ENCODING 648
SWIDTH 270 0
DWIDTH 9 0
BBX 11 26 -1 -7
BITMAP
0040
00C0
01C0
0380
0FE0
1FE0
0F80
0F00
0F00
0F00
1E00
1E00
1E00
3E00
3C00
3C00
3C00
7800
7800
7800
7800
F000
F300
F700
7700
3C00
ENDCHAR
STARTCHAR 0289
ENCODING 649
SWIDTH 540 0
DWIDTH 18 0
BBX 16 15 1 0
BITMAP
0F0F
7E0F
1E1E
1E1E
3E1E
3C1E
3C3C
FFFF
78BC
78F8
7978
F27A
FCFA
F8FC
7070
ENDCHAR
STARTCHAR 028A
ENCODING 650
SWIDTH 540 0
DWIDTH 18 0
BBX 19 15 0 0
BITMAP
1F8FE0
030E00
060700
1E0700
3C0780
3C0780
780780
780F80
780F00
F80F00
781F00
781E00
783C00
387000
0FC000
ENDCHAR
STARTCHAR 028B
ENCODING 651
SWIDTH 480 0
DWIDTH 16 0
BBX 14 15 1 0
BITMAP
1C78
3EE4
5EC4
9E04
3E04
3C04
3C04
7C0C
7808
7818
7810
7020
7060
7180
1F00
ENDCHAR
STARTCHAR 028C
ENCODING 652
SWIDTH 450 0
DWIDTH 15 0
BBX 14 15 0 0
BITMAP
0060
00E0
01E0
03E0
05E0
09E0
11E0
31E0
61E0
61E0
E1E0
E1E0
F0F0
F0FC
60E0
ENDCHAR
STARTCHAR 028D
ENCODING 653
SWIDTH 660 0
DWIDTH 22 0
BBX 21 15 0 0
BITMAP
004020
00C060
01C0E0
03E0E0
05E1E0
09E3E0
11E7E0
31E5E0
61E9E0
61F9E0
E1F1E0
E1E1E0
F1C1E0
F0C1F8
6081C0
ENDCHAR
STARTCHAR 028E
ENCODING 654
SWIDTH 450 0
DWIDTH 15 0
BBX 17 22 0 0
BITMAP
000380
000F80
001F80
003380
006000
00E000
01E000
01E000
03E000
07E000
0DE000
09E000
11E000
31E000
21E000
41E000
41E000
C1E000
E1E000
F1F000
F0FC00
60E000
ENDCHAR
STARTCHAR 028F
ENCODING 655
SWIDTH 390 0
DWIDTH 13 0
BBX 15 15 0 0
BITMAP
7FBE
3E18
3E18
1E10
1E20
1E40
1E80
0F80
0F00
0F00
1E00
1E00
1E00
3E00
FF00
ENDCHAR
STARTCHAR 0290
ENCODING 656
SWIDTH 390 0
DWIDTH 13 0
BBX 13 22 0 -7
BITMAP
1FF8
1FF0
3FE0
3FC0
3080
2100
0100
0200
0400
0810
1020
1FE0
3FE0
7FE0
FFC0
01C0
01C0
0380
0398
03B8
01B8
00F0
ENDCHAR
STARTCHAR 0291
ENCODING 657
SWIDTH 390 0
DWIDTH 13 0
BBX 13 17 0 -2
BITMAP
1FF8
1FF0
3FE0
3FC0
3080
2100
0100
0200
04E0
0910
1210
1FF0
3FF0
7FE0
FFC0
1000
2000
ENDCHAR
STARTCHAR 0292
ENCODING 658
SWIDTH 480 0
DWIDTH 16 0
BBX 19 22 -3 -7
BITMAP
03FFE0
03FFE0
0307C0
040F80
041F00
003C00
007800
00F000
01E000
03F800
007C00
003E00
003E00
001E00
001E00
001E00
003C00
003C00
807800
407800
61E000
1F8000
ENDCHAR
STARTCHAR 0293
ENCODING 659
SWIDTH 480 0
DWIDTH 16 0
BBX 17 22 -1 -7
BITMAP
0FFF80
0FFF80
0C1E00
103C00
107800
01F000
03E000
078000
0FE000
01F000
00F000
00F800
007800
007800
007800
7CF800
C3F000
81F000
81E000
C7E000
FFC000
7E4000
ENDCHAR
STARTCHAR 0294
ENCODING 660
SWIDTH 420 0
DWIDTH 14 0
BBX 16 23 -1 0
BITMAP
00F8
039C
030E
078E
070E
060F
000F
000E
001E
001E
003C
003C
0078
01F0
0FE0
0FC0
0F00
1E00
1E00
1E00
3C00
3C00
FF00
ENDCHAR
STARTCHAR 0295
ENCODING 661
SWIDTH 420 0
DWIDTH 14 0
BBX 13 23 2 0
BITMAP
01F0
0718
0E38
1C38
3C78
3830
7800
7000
F000
F000
F000
F000
F800
F800
7F00
3F00
1E00
1E00
1E00
3C00
3C00
7C00
FF00
ENDCHAR
STARTCHAR 0296
ENCODING 662
SWIDTH 420 0
DWIDTH 14 0
BBX 14 22 -1 0
BITMAP
03FC
00F0
00F0
01E0
01E0
01E0
03C0
03F0
03F8
00F8
007C
003C
003C
003C
0078
0078
7070
70F0
F0E0
E1C0
6380
3E00
ENDCHAR
STARTCHAR 0297
ENCODING 663
SWIDTH 450 0
DWIDTH 15 0
BBX 17 22 -1 -7
BITMAP
00FC00
03FE00
07C300
0F8100
0F0080
1E0080
1E0000
3E0000
3C0000
3C0000
3C0000
780000
780000
780000
F80000
F00000
F00800
F00800
F01000
786000
7FC000
1F8000
ENDCHAR
STARTCHAR 0298
ENCODING 664
SWIDTH 720 0
DWIDTH 24 0
BBX 22 23 2 0
BITMAP
001F80
0071E0
01C0F0
0380F8
0F80F8
0F0078
1F00FC
3E00FC
3E00FC
7C70FC
7CF8F8
FCF8F8
FCF9F8
F871F0
F801F0
F803E0
F803E0
F807C0
F80780
780F00
781E00
3C3800
0FE000
ENDCHAR
STARTCHAR 0299
ENCODING 665
SWIDTH 480 0
DWIDTH 16 0
BBX 16 15 -1 0
BITMAP
0FFC
079F
078F
078F
078F
0F1E
0F3C
0FE0
1E3C
1E1E
1E1E
3E1E
3C3E
3C7C
FFF0
ENDCHAR
STARTCHAR 029A
ENCODING 666
SWIDTH 450 0
DWIDTH 15 0
BBX 14 15 0 0
BITMAP
03F0
0FF8
1FFC
3FFC
381C
3004
3004
0F84
3008
4018
E070
FFE0
FFC0
FF80
3E00
ENDCHAR
STARTCHAR 029B
ENCODING 667
SWIDTH 510 0
DWIDTH 17 0
BBX 22 20 1 0
BITMAP
000078
00009C
00009C
00013C
000138
01F900
0F0E00
1E0600
3C0200
780200
780000
F00000
F00000
F0FE00
F03C00
F07C00
F07800
707800
38F000
0FE000
ENDCHAR
STARTCHAR 029C
ENCODING 668
SWIDTH 570 0
DWIDTH 19 0
BBX 21 15 -1 0
BITMAP
0FE7F8
07C3E0
0783C0
0783C0
0F03C0
0F0780
0F0780
0FFF80
1E0780
1E0F00
1E0F00
3C0F00
3C1E00
7C1E00
FF7F80
ENDCHAR
STARTCHAR 029D
ENCODING 669
SWIDTH 270 0
DWIDTH 9 0
BBX 16 29 -6 -7
BITMAP
000E
001F
001F
000E
0000
0000
0000
001E
00FC
003C
003C
003C
0078
0078
0078
00F0
00F0
00F0
00F0
01E0
01E0
01E0
03C0
3FF0
6380
C780
8700
CE00
7800
ENDCHAR
STARTCHAR 029E
ENCODING 670
SWIDTH 510 0
DWIDTH 17 0
BBX 16 22 0 -7
BITMAP
0E0F
1E0F
3F1F
2F1E
4F1E
0F1E
07BC
07FC
073C
067C
0478
0878
1878
78F0
FCF0
00F0
00F0
01E0
01E0
01E0
03F8
03C0
ENDCHAR
STARTCHAR 029F
ENCODING 671
SWIDTH 420 0
DWIDTH 14 0
BBX 13 15 -1 0
BITMAP
0FE0
07C0
0780
0780
0F80
0F00
0F00
0F00
1E00
1E00
1E00
3C08
3C08
7C38
FFF0
ENDCHAR
STARTCHAR 02A0
ENCODING 672
SWIDTH 510 0
DWIDTH 17 0
BBX 23 30 1 -7
BITMAP
00007C
0001CC
00038E
00078C
000700
000F00
000E00
001E00
03DE00
065E00
0E3C00
1C3C00
3C3C00
783800
787800
F87800
F0F800
F0F000
F1F000
F2F000
F5E000
FDE000
71E000
01C000
03C000
03C000
03C000
078000
0FC000
1FE000
ENDCHAR
STARTCHAR 02A1
ENCODING 673
SWIDTH 420 0
DWIDTH 14 0
BBX 16 23 -1 0
BITMAP
00F8
039C
030E
078E
070F
060F
000F
000E
001E
001E
003C
0078
00F8
0FE0
0FC0
0F00
1F00
7F80
1E00
1E00
3E00
3C00
FF00
ENDCHAR
STARTCHAR 02A2
ENCODING 674
SWIDTH 420 0
DWIDTH 14 0
BBX 13 23 2 0
BITMAP
01F0
0718
0E38
1C78
3838
7800
7800
F000
F000
F000
F000
F000
F800
7F00
3F00
1F00
1E00
7F80
1E00
3C00
3C00
7C00
FF00
ENDCHAR
STARTCHAR 02A3
ENCODING 675
SWIDTH 750 0
DWIDTH 25 0
BBX 23 25 1 -2
BITMAP
000780
001F80
000F00
000F00
000F00
000E00
001E00
001E00
03DFFE
073FFE
1E3FFC
1C3FF8
3C3C10
787820
787840
F87880
F0F100
F0F200
F1F300
F2F78C
F5EF9E
F9FF9E
70E79C
0001DC
0000F0
ENDCHAR
STARTCHAR 02A4
ENCODING 676
SWIDTH 810 0
DWIDTH 27 0
BBX 27 30 1 -7
BITMAP
00078000
001F8000
000F0000
000F0000
000F0000
000E0000
001E0000
001E0000
03DFFFE0
073FFFC0
1E3E0780
1C3C0F00
3C3C3E00
78787C00
7878F000
F879E000
F0F3F000
F0F0FC00
F1F03C00
F2F43E00
F5E43E00
F9F83E00
70E03E00
00003C00
00003C00
00803C00
00807800
0040F000
0021E000
001F8000
ENDCHAR
STARTCHAR 02A5
ENCODING 677
SWIDTH 750 0
DWIDTH 25 0
BBX 24 25 1 -2
BITMAP
000780
001F80
000F00
000F00
000F00
000E00
001E00
001E00
03DFFF
073FFE
1E3FFC
1C3FF8
3C3C10
787820
787840
F87840
F0F09C
F0F162
F1F2C6
F2F7FE
F5EFFE
F9FFFC
70FFF8
000200
000400
ENDCHAR
STARTCHAR 02A6
ENCODING 678
SWIDTH 600 0
DWIDTH 20 0
BBX 18 19 1 0
BITMAP
010000
030000
070000
0E0000
3FFE40
7FF1C0
3E70C0
3CF040
3CF840
3C7C00
787E00
783F00
781F00
F80F80
F00780
F00780
F00700
F00700
FFFC00
ENDCHAR
STARTCHAR 02A7
ENCODING 679
SWIDTH 510 0
DWIDTH 17 0
BBX 22 30 1 -7
BITMAP
0000F8
0003DC
00079C
000F1C
010F00
031E00
071E00
0E3E00
3FFC00
7FFC00
3E3C00
3C7C00
3C7800
3C7800
787800
78F800
78F000
F8F000
F0F000
F1F000
F7E000
FDE000
F1E000
03C000
03C000
038000
678000
E70000
EE0000
780000
ENDCHAR
STARTCHAR 02A8
ENCODING 680
SWIDTH 660 0
DWIDTH 22 0
BBX 20 19 1 0
BITMAP
010000
030000
070000
0E0000
3F83E0
7F8E30
3E1C70
3C38F0
3C70F0
3CF060
78E000
79E000
79E000
F9EF80
F1F0C0
F1E040
F3F0C0
FCFF80
F07E00
ENDCHAR
STARTCHAR 02A9
ENCODING 681
SWIDTH 780 0
DWIDTH 26 0
BBX 30 30 -5 -7
BITMAP
0000F800
00039C00
00079C00
000F1800
000E0000
001E0000
001E0000
003C0000
00FFFC38
01FFFC7C
007C7CFC
0078793C
00787A78
00787C78
00F8F478
00F0F8F8
00F0F0F0
00F1F0F0
01F1E0F0
01E1E1E0
01E1E1E0
01E3C1E0
03C3C3C0
03C003C0
03C003C0
07800780
07000780
E7006700
EE00EE00
F8007800
ENDCHAR
STARTCHAR 02AA
ENCODING 682
SWIDTH 600 0
DWIDTH 20 0
BBX 19 23 0 0
BITMAP
01C000
0FC000
07C000
078000
078000
078000
0F0000
0F0000
0F1FA0
0E38E0
1E7860
1E7860
1E7C40
3C7E00
3C3E00
3C1F00
380F80
780F80
780780
780380
F00380
700300
7FFE00
ENDCHAR
STARTCHAR 02AB
ENCODING 683
SWIDTH 510 0
DWIDTH 17 0
BBX 16 25 1 -2
BITMAP
0380
1F80
0F80
0F00
0F00
0F00
0F00
1E00
1FFF
1FFE
3FFC
3FF8
3C10
3C20
7840
7880
7880
F100
F300
F38C
F79E
FFDE
E3CE
01CC
0078
ENDCHAR
STARTCHAR 02AC
ENCODING 684
SWIDTH 510 0
DWIDTH 17 0
BBX 18 23 1 0
BITMAP
0308C0
0F19C0
0718C0
0738C0
077880
079880
079900
071A00
061C00
061800
041000
000000
308C00
F08E00
39CC00
39C400
3BC400
3DC800
39D000
39D000
31E000
20C000
208000
ENDCHAR
STARTCHAR 02AD
ENCODING 685
SWIDTH 480 0
DWIDTH 16 0
BBX 20 22 -1 0
BITMAP
03FFF0
07FFE0
07FFE0
07FFE0
0600E0
0C0040
080040
100040
000000
000000
000000
000000
000000
000000
3FFF00
7FFE00
7FFE00
7FFE00
600E00
C00400
800400
800400
ENDCHAR
STARTCHAR 02AE
ENCODING 686
SWIDTH 540 0
DWIDTH 18 0
BBX 19 22 -2 -7
BITMAP
1E01E0
7701E0
F381E0
E383C0
0383C0
0783C0
078780
078F80
0F0F80
0F1780
0F2F00
0F4F00
1FCF00
1F9E00
0E1E00
001E00
001E00
003C00
003C00
003C00
003F00
007800
ENDCHAR
STARTCHAR 02AF
ENCODING 687
SWIDTH 540 0
DWIDTH 18 0
BBX 19 22 -2 -7
BITMAP
1E01E0
7701E0
F381E0
E383C0
0383C0
0783C0
078780
078F80
0F0F80
0F1780
0F2F00
0F4F00
1FCF00
1F8E00
0E1E00
001E00
001E00
001C00
001C00
001CC0
001DC0
000F80
ENDCHAR
STARTCHAR 02B0
ENCODING 688
SWIDTH 300 0
DWIDTH 10 0
BBX 10 14 1 9
BITMAP
0C00
1C00
0C00
1C00
1800
19C0
3BC0
35C0
3980
3180
7380
6300
6340
E380
ENDCHAR
STARTCHAR 02B1
ENCODING 689
SWIDTH 300 0
DWIDTH 10 0
BBX 10 14 1 9
BITMAP
0380
0EC0
0CC0
1C00
1800
19C0
3BC0
3DC0
3980
7180
7380
6300
6340
E380
ENDCHAR
STARTCHAR 02B2
ENCODING 690
SWIDTH 180 0
DWIDTH 6 0
BBX 9 18 -1 5
BITMAP
0300
0380
0300
0000
0000
0300
0F00
0700
0600
0600
0E00
0C00
0C00
1C00
1800
D800
F000
E000
ENDCHAR
STARTCHAR 02B3
ENCODING 691
SWIDTH 210 0
DWIDTH 7 0
BBX 8 9 1 9
BITMAP
13
77
3A
30
30
70
60
60
E0
ENDCHAR
STARTCHAR 02B4
ENCODING 692
SWIDTH 210 0
DWIDTH 7 0
BBX 8 9 1 9
BITMAP
07
06
06
0E
14
1C
EC
EE
C8
ENDCHAR
STARTCHAR 02B5
ENCODING 693
SWIDTH 210 0
DWIDTH 7 0
BBX 8 13 1 5
BITMAP
07
06
06
0E
16
1C
EC
EC
CC
18
18
1B
0E
ENDCHAR
STARTCHAR 02B6
ENCODING 694
SWIDTH 300 0
DWIDTH 10 0
BBX 12 9 1 9
BITMAP
3EF0
1DC0
1980
3B80
3F00
3F00
7300
7700
FE00
ENDCHAR
STARTCHAR 02B7
ENCODING 695
SWIDTH 390 0
DWIDTH 13 0
BBX 13 9 2 9
BITMAP
2130
F338
7310
7710
7B20
73C0
73C0
6380
4200
ENDCHAR
STARTCHAR 02B8
ENCODING 696
SWIDTH 270 0
DWIDTH 9 0
BBX 11 13 0 5
BITMAP
0CC0
3CE0
0C40
0C40
0C80
0C80
0D00
0E00
0E00
0C00
C800
F000
E000
ENDCHAR
STARTCHAR 02B9
ENCODING 697
SWIDTH 270 0
DWIDTH 9 0
BBX 5 11 5 12
BITMAP
38
78
78
F8
F0
F0
E0
E0
C0
C0
80
ENDCHAR
STARTCHAR 02BA
ENCODING 698
SWIDTH 540 0
DWIDTH 18 0
BBX 13 11 5 12
BITMAP
3838
7C78
7C78
78F8
78F0
F0F0
F0E0
E0E0
E0C0
C0C0
C080
ENDCHAR
STARTCHAR 02BB
ENCODING 699
SWIDTH 330 0
DWIDTH 11 0
BBX 6 10 5 13
BITMAP
04
1C
30
60
E0
F0
F8
F8
F8
70
ENDCHAR
STARTCHAR 02BC
ENCODING 700
SWIDTH 330 0
DWIDTH 11 0
BBX 6 10 5 13
BITMAP
38
7C
7C
7C
3C
1C
18
30
60
80
ENDCHAR
STARTCHAR 02BD
ENCODING 701
SWIDTH 330 0
DWIDTH 11 0
BBX 6 12 6 11
BITMAP
38
78
FC
FC
F8
F0
C0
C0
40
40
20
20
ENDCHAR
STARTCHAR 02BE
ENCODING 702
SWIDTH 330 0
DWIDTH 11 0
BBX 4 6 7 17
BITMAP
C0
20
10
10
20
C0
ENDCHAR
STARTCHAR 02BF
ENCODING 703
SWIDTH 330 0
DWIDTH 11 0
BBX 4 6 7 17
BITMAP
30
40
C0
C0
40
30
ENDCHAR
STARTCHAR 02C0
ENCODING 704
SWIDTH 270 0
DWIDTH 9 0
BBX 9 14 2 9
BITMAP
0E00
1300
3980
3180
0300
0300
0700
0E00
3C00
3000
7000
6000
6000
E000
ENDCHAR
STARTCHAR 02C1
ENCODING 705
SWIDTH 270 0
DWIDTH 9 0
BBX 8 14 3 9
BITMAP
0F
19
33
63
60
E0
E0
60
78
38
38
30
30
70
ENDCHAR
STARTCHAR 02C2
ENCODING 706
SWIDTH 570 0
DWIDTH 19 0
BBX 18 15 1 3
BITMAP
000040
0003C0
000F80
007C00
01F000
0F8000
3E0000
F00000
3E0000
0F8000
01F000
007C00
000F80
0003C0
000040
ENDCHAR
STARTCHAR 02C3
ENCODING 707
SWIDTH 570 0
DWIDTH 19 0
BBX 18 15 1 3
BITMAP
C00000
F00000
7E0000
0F8000
03F000
007C00
001F80
0003C0
001F80
007C00
03F000
0F8000
7E0000
F00000
C00000
ENDCHAR
STARTCHAR 02C4
ENCODING 708
SWIDTH 570 0
DWIDTH 19 0
BBX 16 18 2 2
BITMAP
0180
0180
03C0
03C0
03E0
0760
0660
0E30
0C30
0C38
1C18
1818
380C
300C
300E
6006
6006
E007
ENDCHAR
STARTCHAR 02C5
ENCODING 709
SWIDTH 570 0
DWIDTH 19 0
BBX 16 18 2 2
BITMAP
E007
6006
6006
300E
300C
381C
1818
1818
0C38
0C30
0E30
0660
0760
03E0
03C0
03C0
0180
0180
ENDCHAR
STARTCHAR 02C6
ENCODING 710
SWIDTH 330 0
DWIDTH 11 0
BBX 10 5 3 17
BITMAP
0F00
1F80
3B80
6180
C0C0
ENDCHAR
STARTCHAR 02C7
ENCODING 711
SWIDTH 330 0
DWIDTH 11 0
BBX 9 5 4 17
BITMAP
C180
E380
EF00
7E00
7C00
ENDCHAR
STARTCHAR 02C8
ENCODING 712
SWIDTH 330 0
DWIDTH 11 0
BBX 2 5 8 18
BITMAP
C0
C0
C0
C0
C0
ENDCHAR
STARTCHAR 02C9
ENCODING 713
SWIDTH 330 0
DWIDTH 11 0
BBX 12 3 3 18
BITMAP
FFF0
FFE0
FFE0
ENDCHAR
STARTCHAR 02CA
ENCODING 714
SWIDTH 330 0
DWIDTH 11 0
BBX 6 6 7 16
BITMAP
7C
78
70
E0
C0
80
ENDCHAR
STARTCHAR 02CB
ENCODING 715
SWIDTH 330 0
DWIDTH 11 0
BBX 6 6 4 16
BITMAP
F8
78
38
1C
0C
04
ENDCHAR
STARTCHAR 02CC
ENCODING 716
SWIDTH 330 0
DWIDTH 11 0
BBX 1 5 3 -6
BITMAP
80
80
80
80
80
ENDCHAR
STARTCHAR 02CD
ENCODING 717
SWIDTH 330 0
DWIDTH 11 0
BBX 11 3 -3 -5
BITMAP
FFE0
FFE0
FFE0
ENDCHAR
STARTCHAR 02CE
ENCODING 718
SWIDTH 330 0
DWIDTH 11 0
BBX 5 6 0 -7
BITMAP
F0
F0
78
38
18
08
ENDCHAR
STARTCHAR 02CF
ENCODING 719
SWIDTH 330 0
DWIDTH 11 0
BBX 7 6 -1 -7
BITMAP
3E
3C
78
70
60
C0
ENDCHAR
STARTCHAR 02D0
ENCODING 720
SWIDTH 330 0
DWIDTH 11 0
BBX 7 15 2 0
BITMAP
1E
1E
0E
0C
0C
00
00
00
00
00
40
60
E0
E0
F0
ENDCHAR
STARTCHAR 02D1
ENCODING 721
SWIDTH 330 0
DWIDTH 11 0
BBX 4 5 5 10
BITMAP
F0
F0
70
60
60
ENDCHAR
STARTCHAR 02D2
ENCODING 722
SWIDTH 330 0
DWIDTH 11 0
BBX 3 6 4 2
BITMAP
C0
60
20
20
60
C0
ENDCHAR
STARTCHAR 02D3
ENCODING 723
SWIDTH 330 0
DWIDTH 11 0
BBX 3 6 4 2
BITMAP
60
C0
80
80
C0
60
ENDCHAR
STARTCHAR 02D4
ENCODING 724
SWIDTH 330 0
DWIDTH 11 0
BBX 7 6 2 3
BITMAP
38
38
38
38
FE
FE
ENDCHAR
STARTCHAR 02D5
ENCODING 725
SWIDTH 330 0
DWIDTH 11 0
BBX 7 6 2 3
BITMAP
FE
FE
38
38
38
38
ENDCHAR
STARTCHAR 02D6
ENCODING 726
SWIDTH 330 0
DWIDTH 11 0
BBX 7 6 2 3
BITMAP
38
38
FE
FE
38
38
ENDCHAR
STARTCHAR 02D7
ENCODING 727
SWIDTH 330 0
DWIDTH 11 0
BBX 12 3 -1 5
BITMAP
7FF0
FFF0
FFE0
ENDCHAR
STARTCHAR 02D8
ENCODING 728
SWIDTH 330 0
DWIDTH 11 0
BBX 9 5 4 18
BITMAP
8080
C180
FF00
7E00
3C00
ENDCHAR
STARTCHAR 02D9
ENCODING 729
SWIDTH 330 0
DWIDTH 11 0
BBX 5 4 6 19
BITMAP
70
F8
F8
70
ENDCHAR
STARTCHAR 02DA
ENCODING 730
SWIDTH 330 0
DWIDTH 11 0
BBX 7 7 5 16
BITMAP
38
66
42
C2
42
46
3C
ENDCHAR
STARTCHAR 02DB
ENCODING 731
SWIDTH 330 0
DWIDTH 11 0
BBX 7 8 0 -7
BITMAP
06
08
30
70
E0
E0
E0
78
ENDCHAR
STARTCHAR 02DC
ENCODING 732
SWIDTH 330 0
DWIDTH 11 0
BBX 10 4 3 17
BITMAP
3C40
7FC0
FFC0
8F80
ENDCHAR
STARTCHAR 02DD
ENCODING 733
SWIDTH 330 0
DWIDTH 11 0
BBX 10 6 5 17
BITMAP
73C0
F380
E700
C700
C600
8400
ENDCHAR
STARTCHAR 02DE
ENCODING 734
SWIDTH 330 0
DWIDTH 11 0
BBX 7 7 0 6
BITMAP
40
C0
40
E2
FE
7C
70
ENDCHAR
STARTCHAR 02DF
ENCODING 735
SWIDTH 390 0
DWIDTH 13 0
BBX 11 11 4 12
BITMAP
4040
E0E0
71C0
3B80
1F00
0E00
1F00
3B80
71C0
E0E0
4040
ENDCHAR
STARTCHAR 02E0
ENCODING 736
SWIDTH 300 0
DWIDTH 10 0
BBX 10 14 3 4
BITMAP
F9C0
7080
6100
7200
7400
7400
3800
3000
3000
3800
7800
B800
B800
F000
ENDCHAR
STARTCHAR 02E1
ENCODING 737
SWIDTH 180 0
DWIDTH 6 0
BBX 6 14 2 9
BITMAP
0C
38
18
18
38
30
30
70
60
60
E0
E0
D0
E0
ENDCHAR
STARTCHAR 02E2
ENCODING 738
SWIDTH 240 0
DWIDTH 8 0
BBX 7 9 2 9
BITMAP
3E
62
72
38
3C
1C
8C
8C
F8
ENDCHAR
STARTCHAR 02E3
ENCODING 739
SWIDTH 330 0
DWIDTH 11 0
BBX 10 9 2 9
BITMAP
18C0
7DC0
1E00
0E00
0C00
0E00
1600
E740
C380
ENDCHAR
STARTCHAR 02E4
ENCODING 740
SWIDTH 270 0
DWIDTH 9 0
BBX 9 14 3 9
BITMAP
0F00
1980
3380
7300
6000
6000
6000
7000
3800
1800
3800
3000
3000
F800
ENDCHAR
STARTCHAR 02E5
ENCODING 741
SWIDTH 390 0
DWIDTH 13 0
BBX 8 24 2 0
BITMAP
FF
FF
FF
03
03
03
03
03
03
03
03
03
03
03
03
03
03
03
03
03
03
03
03
03
ENDCHAR
STARTCHAR 02E6
ENCODING 742
SWIDTH 390 0
DWIDTH 13 0
BBX 8 24 2 0
BITMAP
03
03
03
03
03
FF
FF
FF
03
03
03
03
03
03
03
03
03
03
03
03
03
03
03
03
ENDCHAR
STARTCHAR 02E7
ENCODING 743
SWIDTH 390 0
DWIDTH 13 0
BBX 8 24 2 0
BITMAP
03
03
03
03
03
03
03
03
03
03
FF
FF
FF
03
03
03
03
03
03
03
03
03
03
03
ENDCHAR
STARTCHAR 02E8
ENCODING 744
SWIDTH 390 0
DWIDTH 13 0
BBX 8 24 2 0
BITMAP
03
03
03
03
03
03
03
03
03
03
03
03
03
03
03
03
FF
FF
FF
03
03
03
03
03
ENDCHAR
STARTCHAR 02E9
ENCODING 745
SWIDTH 390 0
DWIDTH 13 0
BBX 8 24 2 0
BITMAP
03
03
03
03
03
03
03
03
03
03
03
03
03
03
03
03
03
03
03
03
03
FF
FF
FF
ENDCHAR
STARTCHAR 02EA
ENCODING 746
SWIDTH 330 0
DWIDTH 11 0
BBX 7 14 2 0
BITMAP
80
80
80
80
80
80
80
80
80
80
80
80
FE
FE
ENDCHAR
STARTCHAR 02EB
ENCODING 747
SWIDTH 330 0
DWIDTH 11 0
BBX 7 14 2 0
BITMAP
80
80
80
80
80
80
FE
FE
80
80
80
80
80
80
ENDCHAR
STARTCHAR 02EC
ENCODING 748
SWIDTH 330 0
DWIDTH 11 0
BBX 10 5 -2 -7
BITMAP
C1C0
E380
7700
7E00
7C00
ENDCHAR
STARTCHAR 02ED
ENCODING 749
SWIDTH 330 0
DWIDTH 11 0
BBX 13 8 2 15
BITMAP
3FF8
7FF8
7FF0
0000
0000
7FF0
FFF0
FFE0
ENDCHAR
STARTCHAR 02EE
ENCODING 750
SWIDTH 510 0
DWIDTH 17 0
BBX 14 10 4 13
BITMAP
3878
3C78
7EFC
3E7C
3C3C
1C38
1830
3060
60C0
8100
ENDCHAR
STARTCHAR 02EF
ENCODING 751
SWIDTH 330 0
DWIDTH 11 0
BBX 6 5 0 -6
BITMAP
84
CC
6C
78
78
ENDCHAR
STARTCHAR 02F0
ENCODING 752
SWIDTH 330 0
DWIDTH 11 0
BBX 6 5 0 -6
BITMAP
78
78
6C
CC
84
ENDCHAR
STARTCHAR 02F1
ENCODING 753
SWIDTH 330 0
DWIDTH 11 0
BBX 4 7 1 -7
BITMAP
10
60
C0
80
C0
60
10
ENDCHAR
STARTCHAR 02F2
ENCODING 754
SWIDTH 330 0
DWIDTH 11 0
BBX 4 7 1 -7
BITMAP
80
E0
70
30
70
E0
80
ENDCHAR
STARTCHAR 02F3
ENCODING 755
SWIDTH 330 0
DWIDTH 11 0
BBX 7 6 -1 -7
BITMAP
38
44
C2
82
46
38
ENDCHAR
STARTCHAR 02F4
ENCODING 756
SWIDTH 330 0
DWIDTH 11 0
BBX 6 6 2 3
BITMAP
F0
78
38
18
1C
0C
ENDCHAR
STARTCHAR 02F5
ENCODING 757
SWIDTH 330 0
DWIDTH 11 0
BBX 12 6 -1 3
BITMAP
FBE0
79E0
38E0
1C60
0C30
0430
ENDCHAR
STARTCHAR 02F6
ENCODING 758
SWIDTH 330 0
DWIDTH 11 0
BBX 11 6 0 3
BITMAP
3DE0
39C0
7380
6380
6300
C600
ENDCHAR
STARTCHAR 02F7
ENCODING 759
SWIDTH 330 0
DWIDTH 11 0
BBX 10 4 -2 -6
BITMAP
78C0
FF80
FF80
8F00
ENDCHAR
STARTCHAR 02F8
ENCODING 760
SWIDTH 330 0
DWIDTH 11 0
BBX 9 13 3 10
BITMAP
0F00
1F80
1F80
0F00
0000
0000
0000
0000
0000
7800
FC00
FC00
7800
ENDCHAR
STARTCHAR 02F9
ENCODING 761
SWIDTH 330 0
DWIDTH 11 0
BBX 5 6 7 16
BITMAP
F8
F8
80
80
80
80
ENDCHAR
STARTCHAR 02FA
ENCODING 762
SWIDTH 330 0
DWIDTH 11 0
BBX 6 6 6 16
BITMAP
FC
FC
0C
0C
0C
0C
ENDCHAR
STARTCHAR 02FB
ENCODING 763
SWIDTH 330 0
DWIDTH 11 0
BBX 6 6 0 -7
BITMAP
C0
C0
C0
C0
FC
FC
ENDCHAR
STARTCHAR 02FC
ENCODING 764
SWIDTH 330 0
DWIDTH 11 0
BBX 5 6 0 -7
BITMAP
08
08
08
08
F8
F8
ENDCHAR
STARTCHAR 02FD
ENCODING 765
SWIDTH 390 0
DWIDTH 13 0
BBX 12 6 -1 -7
BITMAP
C070
C070
C070
C070
FFF0
FFF0
ENDCHAR
STARTCHAR 02FE
ENCODING 766
SWIDTH 390 0
DWIDTH 13 0
BBX 12 6 -1 -7
BITMAP
C000
C000
C000
C000
FFF0
FFF0
ENDCHAR
STARTCHAR 02FF
ENCODING 767
SWIDTH 330 0
DWIDTH 11 0
BBX 9 10 -1 -7
BITMAP
1000
2000
6000
4000
FF80
FF80
4000
6000
2000
1000
ENDCHAR
STARTCHAR 0300
ENCODING 768
SWIDTH 0 0
DWIDTH 0 0
BBX 6 6 -6 23
BITMAP
F8
78
38
1C
0C
04
ENDCHAR
STARTCHAR 0301
ENCODING 769
SWIDTH 0 0
DWIDTH 0 0
BBX 6 6 -2 23
BITMAP
3C
78
78
70
60
C0
ENDCHAR
STARTCHAR 0302
ENCODING 770
SWIDTH 0 0
DWIDTH 0 0
BBX 9 5 -2 17
BITMAP
0F00
1F00
3B80
6180
C180
ENDCHAR
STARTCHAR 0303
ENCODING 771
SWIDTH 0 0
DWIDTH 0 0
BBX 11 4 -9 24
BITMAP
3E20
7FE0
FFC0
8F80
ENDCHAR
STARTCHAR 0304
ENCODING 772
SWIDTH 0 0
DWIDTH 0 0
BBX 12 3 -3 18
BITMAP
7FF0
7FF0
FFE0
ENDCHAR
STARTCHAR 0305
ENCODING 773
SWIDTH 0 0
DWIDTH 0 0
BBX 17 2 -4 23
BITMAP
FFFF80
FFFF80
ENDCHAR
STARTCHAR 0306
ENCODING 774
SWIDTH 0 0
DWIDTH 0 0
BBX 9 6 -1 17
BITMAP
8080
C080
E300
7F00
7E00
3C00
ENDCHAR
STARTCHAR 0307
ENCODING 775
SWIDTH 0 0
DWIDTH 0 0
BBX 5 4 1 19
BITMAP
70
F0
F8
70
ENDCHAR
STARTCHAR 0308
ENCODING 776
SWIDTH 0 0
DWIDTH 0 0
BBX 10 4 -2 19
BITMAP
6180
F3C0
F3C0
7180
ENDCHAR
STARTCHAR 0309
ENCODING 777
SWIDTH 0 0
DWIDTH 0 0
BBX 7 5 -3 24
BITMAP
7C
C6
0C
10
20
ENDCHAR
STARTCHAR 030A
ENCODING 778
SWIDTH 0 0
DWIDTH 0 0
BBX 7 6 0 17
BITMAP
78
C4
86
86
C4
78
ENDCHAR
STARTCHAR 030B
ENCODING 779
SWIDTH 0 0
DWIDTH 0 0
BBX 11 6 -1 17
BITMAP
3DE0
39C0
7380
6380
6300
C600
ENDCHAR
STARTCHAR 030C
ENCODING 780
SWIDTH 0 0
DWIDTH 0 0
BBX 9 5 -1 18
BITMAP
C180
E380
EF00
7E00
7C00
ENDCHAR
STARTCHAR 030D
ENCODING 781
SWIDTH 0 0
DWIDTH 0 0
BBX 2 5 2 18
BITMAP
C0
C0
C0
C0
C0
ENDCHAR
STARTCHAR 030E
ENCODING 782
SWIDTH 0 0
DWIDTH 0 0
BBX 5 5 1 18
BITMAP
98
98
98
98
98
ENDCHAR
STARTCHAR 030F
ENCODING 783
SWIDTH 0 0
DWIDTH 0 0
BBX 12 6 -4 17
BITMAP
F3C0
79E0
38E0
18E0
1C60
0C30
ENDCHAR
STARTCHAR 0310
ENCODING 784
SWIDTH 0 0
DWIDTH 0 0
BBX 9 9 -1 17
BITMAP
0C00
1E00
1E00
8C80
C080
E300
7F00
7E00
3C00
ENDCHAR
STARTCHAR 0311
ENCODING 785
SWIDTH 0 0
DWIDTH 0 0
BBX 9 6 -1 17
BITMAP
0E00
3F80
3F80
6180
4080
8080
ENDCHAR
STARTCHAR 0312
ENCODING 786
SWIDTH 0 0
DWIDTH 0 0
BBX 7 10 -1 13
BITMAP
02
0C
10
30
70
78
FC
FC
7C
38
ENDCHAR
STARTCHAR 0313
ENCODING 787
SWIDTH 0 0
DWIDTH 0 0
BBX 7 10 -1 13
BITMAP
1C
3C
7E
3E
3E
1C
18
18
60
C0
ENDCHAR
STARTCHAR 0314
ENCODING 788
SWIDTH 0 0
DWIDTH 0 0
BBX 6 10 0 13
BITMAP
38
7C
FC
FC
F8
E0
40
40
20
10
ENDCHAR
STARTCHAR 0315
ENCODING 789
SWIDTH 0 0
DWIDTH 0 0
BBX 7 10 4 13
BITMAP
1C
3E
3E
3E
1E
0C
0C
18
30
C0
ENDCHAR
STARTCHAR 0316
ENCODING 790
SWIDTH 0 0
DWIDTH 0 0
BBX 5 6 -5 -7
BITMAP
F0
F0
78
38
18
08
ENDCHAR
STARTCHAR 0317
ENCODING 791
SWIDTH 0 0
DWIDTH 0 0
BBX 6 6 -6 -7
BITMAP
7C
78
70
E0
C0
80
ENDCHAR
STARTCHAR 0318
ENCODING 792
SWIDTH 0 0
DWIDTH 0 0
BBX 6 6 -6 -7
BITMAP
0C
0C
FC
FC
0C
0C
ENDCHAR
STARTCHAR 0319
ENCODING 793
SWIDTH 0 0
DWIDTH 0 0
BBX 6 6 -6 -7
BITMAP
C0
C0
FC
FC
C0
C0
ENDCHAR
STARTCHAR 031A
ENCODING 794
SWIDTH 0 0
DWIDTH 0 0
BBX 12 7 -2 19
BITMAP
FFF0
FFF0
0070
0070
0070
0070
0070
ENDCHAR
STARTCHAR 031B
ENCODING 795
SWIDTH 0 0
DWIDTH 0 0
BBX 4 5 3 21
BITMAP
60
F0
70
30
E0
ENDCHAR
STARTCHAR 031C
ENCODING 796
SWIDTH 0 0
DWIDTH 0 0
BBX 3 6 -4 -6
BITMAP
60
80
80
80
80
60
ENDCHAR
STARTCHAR 031D
ENCODING 797
SWIDTH 0 0
DWIDTH 0 0
BBX 6 6 -6 -7
BITMAP
30
30
30
30
FC
FC
ENDCHAR
STARTCHAR 031E
ENCODING 798
SWIDTH 0 0
DWIDTH 0 0
BBX 6 6 -6 -7
BITMAP
FC
FC
30
30
30
30
ENDCHAR
STARTCHAR 031F
ENCODING 799
SWIDTH 0 0
DWIDTH 0 0
BBX 6 6 -6 -7
BITMAP
30
30
FC
FC
30
30
ENDCHAR
STARTCHAR 0320
ENCODING 800
SWIDTH 0 0
DWIDTH 0 0
BBX 12 3 -9 -5
BITMAP
7FF0
FFF0
FFE0
ENDCHAR
STARTCHAR 0321
ENCODING 801
SWIDTH 0 0
DWIDTH 0 0
BBX 10 9 -6 -7
BITMAP
03C0
03C0
03C0
0380
0780
0780
6700
EE00
7800
ENDCHAR
STARTCHAR 0322
ENCODING 802
SWIDTH 0 0
DWIDTH 0 0
BBX 8 9 -1 -7
BITMAP
78
78
78
78
70
F0
77
77
3E
ENDCHAR
STARTCHAR 0323
ENCODING 803
SWIDTH 0 0
DWIDTH 0 0
BBX 6 4 -18 -6
BITMAP
78
FC
FC
78
ENDCHAR
STARTCHAR 0324
ENCODING 804
SWIDTH 0 0
DWIDTH 0 0
BBX 10 4 -8 -6
BITMAP
71C0
F3C0
F3C0
71C0
ENDCHAR
STARTCHAR 0325
ENCODING 805
SWIDTH 0 0
DWIDTH 0 0
BBX 6 6 -6 -7
BITMAP
78
C4
84
84
C4
78
ENDCHAR
STARTCHAR 0326
ENCODING 806
SWIDTH 0 0
DWIDTH 0 0
BBX 5 7 -6 -9
BITMAP
30
78
78
38
10
20
C0
ENDCHAR
STARTCHAR 0327
ENCODING 807
SWIDTH 0 0
DWIDTH 0 0
BBX 7 7 -7 -7
BITMAP
18
3C
0E
0E
0E
1E
F8
ENDCHAR
STARTCHAR 0328
ENCODING 808
SWIDTH 0 0
DWIDTH 0 0
BBX 7 8 -4 -7
BITMAP
02
0C
18
30
60
E0
F0
7C
ENDCHAR
STARTCHAR 0329
ENCODING 809
SWIDTH 0 0
DWIDTH 0 0
BBX 1 5 -3 -6
BITMAP
80
80
80
80
80
ENDCHAR
STARTCHAR 032A
ENCODING 810
SWIDTH 0 0
DWIDTH 0 0
BBX 12 6 -8 -7
BITMAP
FFF0
FFF0
C070
C070
C070
C070
ENDCHAR
STARTCHAR 032B
ENCODING 811
SWIDTH 0 0
DWIDTH 0 0
BBX 11 3 -8 -5
BITMAP
C420
4660
3BC0
ENDCHAR
STARTCHAR 032C
ENCODING 812
SWIDTH 0 0
DWIDTH 0 0
BBX 9 5 -7 -7
BITMAP
C180
C300
EF00
7E00
7C00
ENDCHAR
STARTCHAR 032D
ENCODING 813
SWIDTH 0 0
DWIDTH 0 0
BBX 10 5 -9 -7
BITMAP
0F00
1F80
3B80
7180
C0C0
ENDCHAR
STARTCHAR 032E
ENCODING 814
SWIDTH 0 0
DWIDTH 0 0
BBX 9 6 -7 -7
BITMAP
8080
C080
E300
FF00
7E00
3C00
ENDCHAR
STARTCHAR 032F
ENCODING 815
SWIDTH 0 0
DWIDTH 0 0
BBX 9 6 -8 -7
BITMAP
1E00
3F00
7F00
6380
8180
8100
ENDCHAR
STARTCHAR 0330
ENCODING 816
SWIDTH 0 0
DWIDTH 0 0
BBX 10 4 -8 -6
BITMAP
3C40
7FC0
FFC0
8F80
ENDCHAR
STARTCHAR 0331
ENCODING 817
SWIDTH 0 0
DWIDTH 0 0
BBX 11 3 -8 -5
BITMAP
FFE0
FFE0
FFE0
ENDCHAR
STARTCHAR 0332
ENCODING 818
SWIDTH 0 0
DWIDTH 0 0
BBX 17 2 -12 -7
BITMAP
FFFF80
FFFF80
ENDCHAR
STARTCHAR 0333
ENCODING 819
SWIDTH 0 0
DWIDTH 0 0
BBX 11 5 -8 -7
BITMAP
FFE0
FFE0
0000
FFE0
FFE0
ENDCHAR
STARTCHAR 0334
ENCODING 820
SWIDTH 0 0
DWIDTH 0 0
BBX 10 4 -4 9
BITMAP
7C40
7FC0
FF80
8F80
ENDCHAR
STARTCHAR 0335
ENCODING 821
SWIDTH 0 0
DWIDTH 0 0
BBX 12 3 -5 9
BITMAP
FFF0
FFE0
FFE0
ENDCHAR
STARTCHAR 0336
ENCODING 822
SWIDTH 0 0
DWIDTH 0 0
BBX 18 3 -8 9
BITMAP
FFFFC0
FFFFC0
FFFFC0
ENDCHAR
STARTCHAR 0337
ENCODING 823
SWIDTH 0 0
DWIDTH 0 0
BBX 10 8 -4 7
BITMAP
0080
01C0
03C0
0F00
1E00
7800
F000
E000
ENDCHAR
STARTCHAR 0338
ENCODING 824
SWIDTH 0 0
DWIDTH 0 0
BBX 16 23 -7 0
BITMAP
0007
0006
000C
000C
0018
0038
0030
0060
0060
00C0
01C0
0180
0300
0700
0600
0E00
0C00
1800
3800
3000
6000
6000
C000
ENDCHAR
STARTCHAR 0339
ENCODING 825
SWIDTH 0 0
DWIDTH 0 0
BBX 3 6 -4 -7
BITMAP
80
40
20
20
40
80
ENDCHAR
STARTCHAR 033A
ENCODING 826
SWIDTH 0 0
DWIDTH 0 0
BBX 12 6 -8 -7
BITMAP
C070
C070
C070
C070
FFF0
FFF0
ENDCHAR
STARTCHAR 033B
ENCODING 827
SWIDTH 0 0
DWIDTH 0 0
BBX 6 5 -5 -6
BITMAP
FC
8C
8C
8C
FC
ENDCHAR
STARTCHAR 033C
ENCODING 828
SWIDTH 0 0
DWIDTH 0 0
BBX 11 3 -8 -5
BITMAP
7BC0
CE60
0400
ENDCHAR
STARTCHAR 033D
ENCODING 829
SWIDTH 0 0
DWIDTH 0 0
BBX 7 7 0 16
BITMAP
44
EE
7C
38
7C
EE
44
ENDCHAR
STARTCHAR 033E
ENCODING 830
SWIDTH 0 0
DWIDTH 0 0
BBX 4 9 2 17
BITMAP
70
F0
C0
C0
E0
60
60
E0
C0
ENDCHAR
STARTCHAR 033F
ENCODING 831
SWIDTH 0 0
DWIDTH 0 0
BBX 17 5 -4 20
BITMAP
FFFF80
FFFF80
000000
FFFF80
FFFF80
ENDCHAR
STARTCHAR 0340
ENCODING 832
SWIDTH 0 0
DWIDTH 0 0
BBX 6 6 -1 17
BITMAP
F8
78
38
1C
0C
04
ENDCHAR
STARTCHAR 0341
ENCODING 833
SWIDTH 0 0
DWIDTH 0 0
BBX 6 6 1 17
BITMAP
7C
78
70
E0
C0
C0
ENDCHAR
STARTCHAR 0342
ENCODING 834
SWIDTH 0 0
DWIDTH 0 0
BBX 11 4 -2 18
BITMAP
3C60
7FC0
7FC0
C780
ENDCHAR
STARTCHAR 0343
ENCODING 835
SWIDTH 0 0
DWIDTH 0 0
BBX 7 10 -1 13
BITMAP
1C
3C
7E
3E
3E
1C
18
18
60
C0
ENDCHAR
STARTCHAR 0344
ENCODING 836
SWIDTH 0 0
DWIDTH 0 0
BBX 15 6 -4 17
BITMAP
03E0
03C0
E39C
F73C
F63E
E41C
ENDCHAR
STARTCHAR 0345
ENCODING 837
SWIDTH 0 0
DWIDTH 0 0
BBX 5 5 -5 -7
BITMAP
70
60
60
E0
78
ENDCHAR
STARTCHAR 0346
ENCODING 838
SWIDTH 0 0
DWIDTH 0 0
BBX 13 5 -3 21
BITMAP
FFF8
FFF8
E038
E038
E038
ENDCHAR
STARTCHAR 0347
ENCODING 839
SWIDTH 0 0
DWIDTH 0 0
BBX 18 5 -12 -7
BITMAP
FFFFC0
FFFFC0
000000
FFFFC0
FFFFC0
ENDCHAR
STARTCHAR 0348
ENCODING 840
SWIDTH 0 0
DWIDTH 0 0
BBX 5 5 -5 -6
BITMAP
D8
D8
D8
D8
D8
ENDCHAR
STARTCHAR 0349
ENCODING 841
SWIDTH 0 0
DWIDTH 0 0
BBX 6 6 -6 -7
BITMAP
FC
FC
0C
0C
0C
0C
ENDCHAR
STARTCHAR 034A
ENCODING 842
SWIDTH 0 0
DWIDTH 0 0
BBX 11 6 -2 17
BITMAP
0200
3E60
7FC0
7FC0
CF80
0800
ENDCHAR
STARTCHAR 034B
ENCODING 843
SWIDTH 0 0
DWIDTH 0 0
BBX 10 10 -1 19
BITMAP
0700
0700
0200
3C40
7FC0
7FC0
C780
1800
1C00
1800
ENDCHAR
STARTCHAR 034C
ENCODING 844
SWIDTH 0 0
DWIDTH 0 0
BBX 12 8 -2 18
BITMAP
1E30
3FF0
3FE0
23C0
3C60
7FC0
7FC0
C780
ENDCHAR
STARTCHAR 034D
ENCODING 845
SWIDTH 0 0
DWIDTH 0 0
BBX 8 6 -8 -7
BITMAP
40
42
FF
FF
42
40
ENDCHAR
STARTCHAR 034E
ENCODING 846
SWIDTH 0 0
DWIDTH 0 0
BBX 4 6 -5 -7
BITMAP
60
F0
60
60
60
60
ENDCHAR
STARTCHAR 034F
ENCODING 847
SWIDTH 0 0
DWIDTH 0 0
BBX 24 25 -12 0
BITMAP
F87E1F
F87E1F
C00003
C00003
C01803
C0DB03
03C3C0
0300C0
000000
0C0030
CC0033
C80013
C80013
C00003
CC0023
0C0030
000000
0300C0
03C3C0
C0DB03
C01803
C00003
C00003
F87E1F
F87E1F
ENDCHAR
STARTCHAR 0350
ENCODING 848
SWIDTH 0 0
DWIDTH 0 0
BBX 4 7 1 16
BITMAP
80
E0
70
30
70
E0
80
ENDCHAR
STARTCHAR 0351
ENCODING 849
SWIDTH 0 0
DWIDTH 0 0
BBX 4 6 1 17
BITMAP
30
40
C0
C0
40
30
ENDCHAR
STARTCHAR 0352
ENCODING 850
SWIDTH 0 0
DWIDTH 0 0
BBX 9 9 -1 17
BITMAP
0F00
3F80
3F80
6180
4080
9C80
1C00
1E00
1C00
ENDCHAR
STARTCHAR 0353
ENCODING 851
SWIDTH 0 0
DWIDTH 0 0
BBX 8 7 -6 -7
BITMAP
42
E7
7E
38
7C
E7
42
ENDCHAR
STARTCHAR 0354
ENCODING 852
SWIDTH 0 0
DWIDTH 0 0
BBX 4 7 -4 -7
BITMAP
10
60
C0
80
C0
60
10
ENDCHAR
STARTCHAR 0355
ENCODING 853
SWIDTH 0 0
DWIDTH 0 0
BBX 5 7 -5 -7
BITMAP
C0
70
38
18
38
70
C0
ENDCHAR
STARTCHAR 0356
ENCODING 854
SWIDTH 0 0
DWIDTH 0 0
BBX 11 7 -8 -7
BITMAP
8000
63C0
33C0
1360
3660
6420
8000
ENDCHAR
STARTCHAR 0357
ENCODING 855
SWIDTH 0 0
DWIDTH 0 0
BBX 4 6 1 17
BITMAP
C0
20
30
30
20
C0
ENDCHAR
STARTCHAR 0358
ENCODING 856
SWIDTH 0 0
DWIDTH 0 0
BBX 3 3 7 19
BITMAP
60
E0
60
ENDCHAR
STARTCHAR 0359
ENCODING 857
SWIDTH 0 0
DWIDTH 0 0
BBX 6 6 -5 -7
BITMAP
20
20
EC
30
50
48
ENDCHAR
STARTCHAR 035A
ENCODING 858
SWIDTH 0 0
DWIDTH 0 0
BBX 11 6 -8 -7
BITMAP
7BC0
CE60
8420
8420
CE60
7BC0
ENDCHAR
STARTCHAR 035B
ENCODING 859
SWIDTH 0 0
DWIDTH 0 0
BBX 6 8 1 18
BITMAP
60
60
40
FC
FC
0C
08
18
ENDCHAR
STARTCHAR 035C
ENCODING 860
SWIDTH 0 0
DWIDTH 0 0
BBX 21 6 -1 -7
BITMAP
800008
600018
3E01F0
1FFFE0
07FF80
01FE00
ENDCHAR
STARTCHAR 035D
ENCODING 861
SWIDTH 0 0
DWIDTH 0 0
BBX 21 6 1 17
BITMAP
800008
600018
3C01F0
1FFFE0
07FF80
01FE00
ENDCHAR
STARTCHAR 035E
ENCODING 862
SWIDTH 0 0
DWIDTH 0 0
BBX 22 3 1 18
BITMAP
7FFFFC
FFFFFC
FFFFFC
ENDCHAR
STARTCHAR 035F
ENCODING 863
SWIDTH 0 0
DWIDTH 0 0
BBX 22 3 -8 -5
BITMAP
7FFFFC
FFFFFC
FFFFFC
ENDCHAR
STARTCHAR 0360
ENCODING 864
SWIDTH 0 0
DWIDTH 0 0
BBX 22 5 1 18
BITMAP
1F8004
7FFC0C
7FFFF8
C07FF8
8007F0
ENDCHAR
STARTCHAR 0361
ENCODING 865
SWIDTH 0 0
DWIDTH 0 0
BBX 21 6 1 17
BITMAP
01FE00
07FF80
1FFFE0
3E01F0
600018
800008
ENDCHAR
STARTCHAR 0362
ENCODING 866
SWIDTH 0 0
DWIDTH 0 0
BBX 18 5 -7 -6
BITMAP
000080
FFFFC0
FFFFC0
000080
000080
ENDCHAR
STARTCHAR 0363
ENCODING 867
SWIDTH 0 0
DWIDTH 0 0
BBX 9 9 -3 9
BITMAP
0D80
1B80
3380
7300
6300
E700
EF00
F680
6700
ENDCHAR
STARTCHAR 0364
ENCODING 868
SWIDTH 0 0
DWIDTH 0 0
BBX 8 9 -2 9
BITMAP
0F
33
67
EE
F8
C0
C0
C2
FC
ENDCHAR
STARTCHAR 0365
ENCODING 869
SWIDTH 0 0
DWIDTH 0 0
BBX 5 13 -1 9
BITMAP
18
18
00
00
18
70
30
30
70
60
68
F0
E0
ENDCHAR
STARTCHAR 0366
ENCODING 870
SWIDTH 0 0
DWIDTH 0 0
BBX 9 9 -3 9
BITMAP
0F00
3B80
7380
6380
E380
E300
C600
CC00
7800
ENDCHAR
STARTCHAR 0367
ENCODING 871
SWIDTH 0 0
DWIDTH 0 0
BBX 9 9 -3 9
BITMAP
3180
7180
7380
6380
6700
E700
EF00
F680
E700
ENDCHAR
STARTCHAR 0368
ENCODING 872
SWIDTH 0 0
DWIDTH 0 0
BBX 8 9 -2 9
BITMAP
1E
33
67
E2
C0
C0
C0
E2
7C
ENDCHAR
STARTCHAR 0369
ENCODING 873
SWIDTH 0 0
DWIDTH 0 0
BBX 11 14 -3 9
BITMAP
0060
01C0
00C0
00C0
0180
0F80
1B80
3380
7300
6300
E700
EF00
F780
6600
ENDCHAR
STARTCHAR 036A
ENCODING 874
SWIDTH 0 0
DWIDTH 0 0
BBX 9 14 -3 9
BITMAP
1C00
3800
1800
1800
3000
3380
3780
7B80
7380
7300
E700
E700
C680
C700
ENDCHAR
STARTCHAR 036B
ENCODING 875
SWIDTH 0 0
DWIDTH 0 0
BBX 14 9 -6 9
BITMAP
198C
7B9C
35AC
39DC
3398
7398
6338
673C
E738
ENDCHAR
STARTCHAR 036C
ENCODING 876
SWIDTH 0 0
DWIDTH 0 0
BBX 7 9 -2 9
BITMAP
36
76
3A
70
70
60
60
E0
C0
ENDCHAR
STARTCHAR 036D
ENCODING 877
SWIDTH 0 0
DWIDTH 0 0
BBX 6 12 -1 9
BITMAP
08
08
38
7C
30
30
70
70
60
E0
E8
70
ENDCHAR
STARTCHAR 036E
ENCODING 878
SWIDTH 0 0
DWIDTH 0 0
BBX 8 9 -2 9
BITMAP
63
E3
73
72
72
34
38
30
20
ENDCHAR
STARTCHAR 036F
ENCODING 879
SWIDTH 0 0
DWIDTH 0 0
BBX 11 9 -4 9
BITMAP
18E0
3DE0
1D00
0E00
0E00
0E00
1600
E740
C380
ENDCHAR
STARTCHAR 0370
ENCODING 880
SWIDTH 570 0
DWIDTH 19 0
BBX 20 22 -1 0
BITMAP
03FF00
00FC00
00F800
00F800
00F800
01F000
01F000
01F000
03E000
03E000
03FFF0
03C000
07C000
07C000
07C000
0F8000
0F8000
0F8000
1F0000
1F0000
3F8000
FFE000
ENDCHAR
STARTCHAR 0371
ENCODING 881
SWIDTH 420 0
DWIDTH 14 0
BBX 13 15 1 0
BITMAP
1C00
3E00
5E00
9E00
1E00
3E00
3C00
3FF8
3C00
7800
7800
7800
7800
F000
F000
ENDCHAR
STARTCHAR 0372
ENCODING 882
SWIDTH 600 0
DWIDTH 20 0
BBX 21 22 3 0
BITMAP
7FFFF8
78F8F0
78F8F0
78F8F0
F1F1F0
F1F1E0
F1F1E0
01E000
03E000
03E000
03E000
07C000
07C000
07C000
078000
0F8000
0F8000
0F8000
1F0000
1F0000
3F0000
FFE000
ENDCHAR
STARTCHAR 0373
ENCODING 883
SWIDTH 510 0
DWIDTH 17 0
BBX 17 23 3 0
BITMAP
1FFF80
79E380
71E780
71E780
13E700
03C000
03C000
03C000
078000
078000
078000
078000
0F0000
0F0000
0F0000
1F0000
1E0000
1E0000
1E0000
3C0000
3C0000
7C0000
FE0000
ENDCHAR
STARTCHAR 0374
ENCODING 884
SWIDTH 330 0
DWIDTH 11 0
BBX 6 6 7 17
BITMAP
7C
78
70
E0
C0
80
ENDCHAR
STARTCHAR 0375
ENCODING 885
SWIDTH 330 0
DWIDTH 11 0
BBX 6 6 -2 -7
BITMAP
0C
1C
38
38
78
F0
ENDCHAR
STARTCHAR 0376
ENCODING 886
SWIDTH 780 0
DWIDTH 26 0
BBX 23 22 2 0
BITMAP
1FF802
07E006
07C00E
07C01E
07C03C
0F807C
0F81FC
0F83F8
1F06F8
1F0CF8
1F18F8
1E31F0
3E61F0
3EC1F0
3F83E0
7F03E0
7C03E0
7803C0
F007C0
E007C0
C00FC0
803FF0
ENDCHAR
STARTCHAR 0377
ENCODING 887
SWIDTH 630 0
DWIDTH 21 0
BBX 18 15 1 0
BITMAP
3FC0C0
0F0180
0F0380
1E0780
1E0F00
1E3F00
1E6F00
3CCF00
3D9E00
3E1E00
7C1E00
783C00
703C00
E07C00
80FF00
ENDCHAR
STARTCHAR 037A
ENCODING 890
SWIDTH 330 0
DWIDTH 11 0
BBX 4 5 1 -7
BITMAP
60
E0
E0
C0
F0
ENDCHAR
STARTCHAR 037B
ENCODING 891
SWIDTH 450 0
DWIDTH 15 0
BBX 14 15 0 0
BITMAP
03E0
0FF8
10F8
207C
003C
003C
003C
0078
0078
0070
00F0
00E0
81C0
4380
3E00
ENDCHAR
STARTCHAR 037C
ENCODING 892
SWIDTH 450 0
DWIDTH 15 0
BBX 13 15 1 0
BITMAP
01F0
0708
0E00
1C00
39E0
79E0
79E0
F1E0
F000
F000
F000
F010
F860
7FC0
3F00
ENDCHAR
STARTCHAR 037D
ENCODING 893
SWIDTH 450 0
DWIDTH 15 0
BBX 14 15 0 0
BITMAP
03E0
0FF8
10F8
207C
003C
1C3C
3E3C
3E78
1C78
0070
00F0
00E0
81C0
4380
3E00
ENDCHAR
STARTCHAR 037E
ENCODING 894
SWIDTH 330 0
DWIDTH 11 0
BBX 10 20 0 -5
BITMAP
0780
0FC0
0FC0
0780
0000
0000
0000
0000
0000
0000
3C00
3C00
7E00
3E00
1C00
1C00
1800
3800
6000
C000
ENDCHAR
STARTCHAR 037F
ENCODING 895
SWIDTH 510 0
DWIDTH 17 0
BBX 20 22 0 0
BITMAP
007FF0
001F80
001F00
001F00
001F00
001E00
003E00
003E00
003E00
007C00
007C00
007C00
00F800
00F800
00F800
00F000
61F000
F1F000
F1E000
E3C000
E78000
7E0000
ENDCHAR
STARTCHAR 0384
ENCODING 900
SWIDTH 330 0
DWIDTH 11 0
BBX 6 6 7 17
BITMAP
7C
78
70
E0
C0
80
ENDCHAR
STARTCHAR 0385
ENCODING 901
SWIDTH 330 0
DWIDTH 11 0
BBX 15 6 1 17
BITMAP
01E0
03E0
73CC
F39E
F71E
760C
ENDCHAR
STARTCHAR 0386
ENCODING 902
SWIDTH 660 0
DWIDTH 22 0
BBX 22 23 -2 0
BITMAP
001E18
003E18
003C38
003878
0030F0
0061F0
0001F0
0002F0
0004F0
000CF0
0018F0
0030F0
0031F0
0061F0
00C1F0
01FFF0
0301F0
0601F0
0401F0
0801F0
1801F0
3803F0
FE0FFC
ENDCHAR
STARTCHAR 0387
ENCODING 903
SWIDTH 330 0
DWIDTH 11 0
BBX 5 4 4 11
BITMAP
78
F8
F8
78
ENDCHAR
STARTCHAR 0388
ENCODING 904
SWIDTH 780 0
DWIDTH 26 0
BBX 25 23 1 0
BITMAP
3C000000
7CFFFF80
783E0780
703E0300
E03C0100
C07C0100
007C0000
007C1000
00F81000
00F83000
00F87000
00FFE000
01F06000
01F06000
01F02000
03E04000
03E00000
03E00400
07C00C00
07C01C00
07C03800
0FC0F800
3FFFF000
ENDCHAR
STARTCHAR 0389
ENCODING 905
SWIDTH 900 0
DWIDTH 30 0
BBX 31 23 1 0
BITMAP
3C000000
7CFFCFFE
783F03F8
703E01F0
E03E01F0
C07C03E0
007C03E0
007C03E0
007807C0
00F807C0
00F807C0
00FFFF80
01F00F80
01F00F80
01F01F00
03E01F00
03E01F00
03E01F00
03C03E00
07C03E00
07C03E00
0FC07E00
3FF1FF80
ENDCHAR
STARTCHAR 038A
ENCODING 906
SWIDTH 510 0
DWIDTH 17 0
BBX 18 23 1 0
BITMAP
3C0000
7CFFC0
783F00
703E00
E03E00
C03C00
007C00
007C00
007C00
00F800
00F800
00F800
00F000
01F000
01F000
01E000
03E000
03E000
03E000
07C000
07C000
0FE000
3FF800
ENDCHAR
STARTCHAR 038C
ENCODING 908
SWIDTH 720 0
DWIDTH 24 0
BBX 23 23 1 0
BITMAP
3C0FC0
7C38F0
78E078
71E03C
E3C03C
C7803E
0F803E
1F003E
1F003E
3F007E
3E007E
3E007C
7E007C
7E00FC
7E00F8
7C00F8
7C01F0
7C01E0
3C03C0
3C0780
1E0700
0F1E00
03F000
ENDCHAR
STARTCHAR 038E
ENCODING 910
SWIDTH 750 0
DWIDTH 25 0
BBX 27 23 1 0
BITMAP
3C000000
7CFFC7E0
787F03C0
703E0380
E03E0300
C03E0200
001E0400
001F0C00
001F0800
001F1000
000F2000
000FE000
000FC000
000F8000
000F8000
000F0000
001F0000
001F0000
001E0000
003E0000
003E0000
007E0000
01FFC000
ENDCHAR
STARTCHAR 038F
ENCODING 911
SWIDTH 780 0
DWIDTH 26 0
BBX 24 23 1 0
BITMAP
3C0FE0
7C3C78
78F03E
71E01E
E3E01F
C7C01F
07C01F
0F801F
0F801F
0F801F
1F803F
1F803E
1F003E
0F007C
0F8078
0780F0
03C1E0
40E702
602404
7FC7FC
7FC7FC
FFCFF8
FF8FF8
ENDCHAR
STARTCHAR 0390
ENCODING 912
SWIDTH 270 0
DWIDTH 9 0
BBX 15 23 0 0
BITMAP
03E0
03C0
639C
F71E
F61E
661C
0000
0000
0700
3F00
1F00
1E00
1E00
1E00
1E00
3C00
3C00
3C00
7800
7900
7A00
7C00
7800
ENDCHAR
STARTCHAR 0391
ENCODING 913
SWIDTH 660 0
DWIDTH 22 0
BBX 22 23 -2 0
BITMAP
000008
000018
000038
000078
0000F0
0001F0
0001F0
0002F0
0006F0
000CF0
0018F0
0010F0
0031F0
0061F0
00C1F0
01FFF0
0101F0
0201F0
0601F0
0C01F0
1801F0
3803F8
FE0FFC
ENDCHAR
STARTCHAR 0392
ENCODING 914
SWIDTH 660 0
DWIDTH 22 0
BBX 22 22 -1 0
BITMAP
03FFE0
00F8F8
00F87C
00F87C
00F87C
00F07C
01F07C
01F0F8
01E1F0
01E3C0
03FE00
03E3C0
03C1E0
07C1F0
07C1F0
0781F8
0781F0
0F81F0
0F83F0
0F03E0
1F0FC0
FFFE00
ENDCHAR
STARTCHAR 0393
ENCODING 915
SWIDTH 600 0
DWIDTH 20 0
BBX 23 22 -1 0
BITMAP
03FFFE
00F81E
00F806
00F804
00F004
01F000
01F000
01F000
03E000
03E000
03E000
03C000
07C000
07C000
07C000
0F8000
0F8000
0F8000
1F0000
1F0000
3F8000
FFE000
ENDCHAR
STARTCHAR 0394
ENCODING 916
SWIDTH 630 0
DWIDTH 21 0
BBX 19 23 -1 0
BITMAP
000060
000060
0000E0
0001C0
0003C0
0007C0
0007C0
000FC0
001FC0
0037C0
0077C0
0067C0
00C7C0
0187C0
0307C0
0707C0
060780
0C0780
180780
300780
700F80
600F80
FFFF80
ENDCHAR
STARTCHAR 0395
ENCODING 917
SWIDTH 660 0
DWIDTH 22 0
BBX 23 22 -1 0
BITMAP
03FFFE
00F81E
00F806
00F804
00F804
01F000
01F020
01F020
01E040
03E1C0
03FFC0
03E180
07C080
07C080
07C080
078000
0F8008
0F8010
0F8030
1F00E0
3F03E0
FFFFE0
ENDCHAR
STARTCHAR 0396
ENCODING 918
SWIDTH 600 0
DWIDTH 20 0
BBX 23 22 -1 0
BITMAP
01FFFE
03C0FE
0300FC
0201F8
0403F0
0007E0
000FC0
001FC0
001F80
003F00
007E00
00FC00
01FC00
01F800
03F000
07E000
0FC020
1FC060
1F80C0
3F01C0
7E0FC0
FFFF80
ENDCHAR
STARTCHAR 0397
ENCODING 919
SWIDTH 780 0
DWIDTH 26 0
BBX 29 22 -1 0
BITMAP
03FF3FF8
00FC07E0
00F807C0
00F807C0
00F80F80
01F00F80
01F00F80
01F00F00
01E01F00
03E01F00
03FFFF00
03C03E00
07C03E00
07C03E00
07807C00
0F807C00
0F807C00
0F807800
0F00F800
1F00F800
3F81F800
FFE7FE00
ENDCHAR
STARTCHAR 0398
ENCODING 920
SWIDTH 750 0
DWIDTH 25 0
BBX 23 23 2 0
BITMAP
001FC0
0070F0
01C078
03C07C
07803C
0F003C
1F003E
3E003E
3E417E
7CC27E
7CFE7E
FCFE7C
FCFCFC
F904FC
F904F8
F801F0
F801F0
F803E0
F803C0
780780
3C0F00
1E1C00
07E000
ENDCHAR
STARTCHAR 0399
ENCODING 921
SWIDTH 390 0
DWIDTH 13 0
BBX 16 22 -1 0
BITMAP
03FF
00FC
00F8
00F8
00F0
01F0
01F0
01F0
03E0
03E0
03E0
03E0
07C0
07C0
07C0
0F80
0F80
0F80
0F80
1F00
3F80
FFE0
ENDCHAR
STARTCHAR 039A
ENCODING 922
SWIDTH 660 0
DWIDTH 22 0
BBX 26 22 -1 0
BITMAP
03FF7FC0
00FC3E00
00F81800
00F83000
00F84000
01F08000
01F10000
01F20000
01EE0000
03FF0000
03FF0000
03FF0000
07CF8000
07CF8000
07CF8000
07878000
0F87C000
0F87C000
0F03E000
1F03E000
3F87F000
FFEFF800
ENDCHAR
STARTCHAR 039B
ENCODING 923
SWIDTH 660 0
DWIDTH 22 0
BBX 22 23 -2 0
BITMAP
000010
000030
000030
000070
0000F0
0001F0
0003F0
0005F0
0009F0
0009F0
0011F0
0021F0
0041F0
0081F0
0181F0
0101F0
0201F0
0401F0
0801F0
1801F0
3001F0
7803F0
FC0FFC
ENDCHAR
STARTCHAR 039C
ENCODING 924
SWIDTH 870 0
DWIDTH 29 0
BBX 33 22 -1 0
BITMAP
03FC007F80
00FC007E00
00FC00FC00
00FC01F800
00FC01F800
00FC02F800
013C06F800
013C05F000
013C09F000
033C19F000
023E13E000
023E23E000
063E63E000
043E43C000
043E87C000
041F07C000
0C1F07C000
081E0F8000
081C0F8000
181C0F8000
38181F8000
FE10FFE000
ENDCHAR
STARTCHAR 039D
ENCODING 925
SWIDTH 720 0
DWIDTH 24 0
BBX 28 22 -1 0
BITMAP
07F807F0
01F803C0
00FC0180
00FC0100
00BE0100
01BE0300
011F0200
011F0200
030F0200
030F8400
02078400
0207C400
0607CC00
0403E800
0403E800
0C01F800
0801F000
0800F000
1800F000
18006000
38006000
FE002000
ENDCHAR
STARTCHAR 039E
ENCODING 926
SWIDTH 660 0
DWIDTH 22 0
BBX 24 22 -1 0
BITMAP
01FFFF
01FFFF
03FFFF
03FFFE
020002
040002
008020
00C060
00FFC0
00FFC0
00FFC0
01FF80
010080
020080
000000
000000
200008
200010
3FFFF0
7FFFE0
7FFFE0
FFFFE0
ENDCHAR
STARTCHAR 039F
ENCODING 927
SWIDTH 720 0
DWIDTH 24 0
BBX 22 23 2 0
BITMAP
001F80
0061E0
01C0F0
0380F8
0F80F8
0F0078
1F00FC
3E00FC
3E00FC
7C00FC
7C00F8
FC00F8
FC01F8
F801F0
F801F0
F803E0
F803E0
F807C0
F80780
780F00
781E00
3C3800
0FE000
ENDCHAR
STARTCHAR 03A0
ENCODING 928
SWIDTH 780 0
DWIDTH 26 0
BBX 29 22 -1 0
BITMAP
03FFFFF8
00F807E0
00F807C0
00F807C0
01F00F80
01F00F80
01F00F80
01E01F00
03E01F00
03E01F00
03E01E00
07C03E00
07C03E00
07C03E00
07807C00
0F807C00
0F807C00
0F80F800
1F00F800
1F00F800
3F81FC00
FFC7FE00
ENDCHAR
STARTCHAR 03A1
ENCODING 929
SWIDTH 600 0
DWIDTH 20 0
BBX 22 22 -1 0
BITMAP
03FFE0
00F8F8
00F87C
00F87C
00F07C
01F07C
01F07C
01F07C
01E0F8
03E1F0
03E3E0
03FF80
07C000
07C000
07C000
078000
0F8000
0F8000
0F0000
1F0000
1F8000
FFE000
ENDCHAR
STARTCHAR 03A3
ENCODING 931
SWIDTH 600 0
DWIDTH 20 0
BBX 24 22 -2 0
BITMAP
01FFFF
01F00F
00F803
00F802
007C02
007C00
003E00
003E00
001E00
001F00
000E00
001800
003000
006000
00C000
018000
030010
040030
0FFFF0
3FFFE0
7FFFE0
FFFFC0
ENDCHAR
STARTCHAR 03A4
ENCODING 932
SWIDTH 600 0
DWIDTH 20 0
BBX 20 22 3 0
BITMAP
3FFFF0
3CF8E0
30F860
60F860
41F020
81F040
01F000
01E000
03E000
03E000
03E000
07C000
07C000
07C000
078000
0F8000
0F8000
0F8000
1F0000
1F0000
3F0000
FFE000
ENDCHAR
STARTCHAR 03A5
ENCODING 933
SWIDTH 600 0
DWIDTH 20 0
BBX 21 22 3 0
BITMAP
7FF3F8
3F81E0
1F80C0
0F8080
0F8100
0F8300
0F8200
078400
07CC00
07C800
07D000
03E000
03E000
07C000
07C000
07C000
078000
0F8000
0F8000
0F8000
1F8000
FFE000
ENDCHAR
STARTCHAR 03A6
ENCODING 934
SWIDTH 780 0
DWIDTH 26 0
BBX 23 22 2 0
BITMAP
003FF0
001FC0
000F80
000F00
00FFE0
079F78
1F1F3C
3E3E1E
7C3E1E
7C3E1E
F87C1E
F87C3E
F87C3E
F8F87C
78F87C
78F8F8
3DF3E0
0FFF00
01F000
03F000
03F000
1FFC00
ENDCHAR
STARTCHAR 03A7
ENCODING 935
SWIDTH 660 0
DWIDTH 22 0
BBX 27 22 -2 0
BITMAP
07FE0FE0
01F80780
00F80700
00F80600
007C0C00
007C1000
003E2000
003E4000
001F8000
001F0000
001F0000
000F8000
001F8000
0037C000
0067C000
0083C000
0103E000
0203E000
0401F000
1C01F000
3C01F800
FF07FE00
ENDCHAR
STARTCHAR 03A8
ENCODING 936
SWIDTH 780 0
DWIDTH 26 0
BBX 25 23 4 0
BITMAP
F0000780
79FFCF00
7C7F1F00
7C3E3E00
7C3C3E00
FC7C7E00
F87C7C00
F8787C00
F8F8FC00
F8F8F800
F8F1F000
79F1E000
3DF7C000
0FFE0000
03E00000
03E00000
03E00000
07C00000
07C00000
07C00000
0FC00000
1FC00000
7FF00000
ENDCHAR
STARTCHAR 03A9
ENCODING 937
SWIDTH 750 0
DWIDTH 25 0
BBX 24 23 0 0
BITMAP
000FE0
007878
00F03C
01E01E
03C01F
07C01F
0F801F
0F801F
0F801F
1F803F
1F003F
1F003E
1F007E
1F007C
0F00F8
0F80F0
0783C0
41E704
404404
7FC7FC
FFCFF8
FF8FF8
FF8FF8
ENDCHAR
STARTCHAR 03AA
ENCODING 938
SWIDTH 390 0
DWIDTH 13 0
BBX 17 29 -1 0
BITMAP
00E380
01E780
01E780
00E380
000000
000000
000000
03FF00
00FC00
00F800
00F800
00F000
01F000
01F000
01F000
03E000
03E000
03E000
03E000
07C000
07C000
07C000
0F8000
0F8000
0F8000
0F8000
1F0000
3F8000
FFE000
ENDCHAR
STARTCHAR 03AB
ENCODING 939
SWIDTH 600 0
DWIDTH 20 0
BBX 21 29 3 0
BITMAP
00E380
01E780
01E780
00E380
000000
000000
000000
7FF3F8
3F81E0
1F80C0
0F8080
0F8100
0F8300
0F8200
078400
07CC00
07C800
07D000
03E000
03E000
07C000
07C000
07C000
078000
0F8000
0F8000
0F8000
1F8000
FFE000
ENDCHAR
STARTCHAR 03AC
ENCODING 940
SWIDTH 540 0
DWIDTH 18 0
BBX 16 23 1 0
BITMAP
001E
003C
003C
0038
0070
0060
0000
0000
03CF
07EF
1F2F
3E1E
3C1E
783C
783C
F078
F078
F0F0
E1F1
E1F9
E3DF
738F
3E0E
ENDCHAR
STARTCHAR 03AD
ENCODING 941
SWIDTH 420 0
DWIDTH 14 0
BBX 14 23 0 0
BITMAP
007C
0078
0070
00E0
00C0
00C0
0000
0000
07F0
0E38
1E1C
1C18
1C00
0C00
07C0
3C00
7800
7800
F870
F070
70F0
78E0
1F80
ENDCHAR
STARTCHAR 03AE
ENCODING 942
SWIDTH 540 0
DWIDTH 18 0
BBX 16 30 1 -7
BITMAP
001E
003E
003C
0038
0030
0060
0000
0000
1E0E
3E3F
5E7F
9E5F
1E9E
1F1E
3E1E
3E3C
3C3C
7C3C
787C
7878
7878
F0F8
F0F0
00F0
00F0
01E0
01E0
01E0
01E0
01E0
ENDCHAR
STARTCHAR 03AF
ENCODING 943
SWIDTH 270 0
DWIDTH 9 0
BBX 11 23 1 0
BITMAP
03E0
03C0
0380
0700
0600
0400
0000
0000
0E00
7E00
3E00
3C00
3C00
3C00
3C00
7800
7800
7800
F000
F200
F400
F800
F000
ENDCHAR
STARTCHAR 03B0
ENCODING 944
SWIDTH 480 0
DWIDTH 16 0
BBX 17 23 1 0
BITMAP
007800
00F800
1CF300
3CE780
3DC780
1D8300
000000
000000
1C6000
3E3000
5E1800
9E1C00
3E1C00
3C1C00
3C1C00
7C1C00
781800
783800
783000
787000
70E000
39C000
1F0000
ENDCHAR
STARTCHAR 03B1
ENCODING 945
SWIDTH 540 0
DWIDTH 18 0
BBX 16 15 1 0
BITMAP
03CF
07EF
1F2F
3E1E
3C1E
783C
783C
F078
F078
F0F0
E1F1
E1F9
E3DF
738F
3E0E
ENDCHAR
STARTCHAR 03B2
ENCODING 946
SWIDTH 510 0
DWIDTH 17 0
BBX 20 30 -2 -7
BITMAP
000F80
0038C0
0070E0
00F0E0
00F0F0
01E1E0
01E1E0
01E1E0
03E3C0
03C380
03DE00
07C700
078700
078780
078780
0F0780
0F0780
0F0F80
1F0F00
1E0F00
1E1E00
3E3C00
3DF000
3C0000
7C0000
780000
780000
F80000
F00000
F00000
ENDCHAR
STARTCHAR 03B3
ENCODING 947
SWIDTH 420 0
DWIDTH 14 0
BBX 13 22 1 -7
BITMAP
3870
78F0
FCF8
8CF0
8C70
0C70
0460
0460
04C0
0480
0500
0700
0E00
0C00
1800
3800
7800
7800
F800
F800
F000
6000
ENDCHAR
STARTCHAR 03B4
ENCODING 948
SWIDTH 510 0
DWIDTH 17 0
BBX 15 23 1 0
BITMAP
00F8
011E
010E
0106
0180
01C0
01E0
00F0
0078
00FC
07BC
1E3C
3C3E
7C3E
783C
F83C
F03C
F078
F078
F0F0
F0E0
71C0
3F00
ENDCHAR
STARTCHAR 03B5
ENCODING 949
SWIDTH 420 0
DWIDTH 14 0
BBX 14 15 0 0
BITMAP
07F0
0E38
1E1C
1C18
1C00
0C00
07C0
3C00
7800
7800
F870
F070
70F0
78E0
1F80
ENDCHAR
STARTCHAR 03B6
ENCODING 950
SWIDTH 450 0
DWIDTH 15 0
BBX 18 29 0 -5
BITMAP
002000
00C1C0
00C7C0
00DF80
007E00
004000
008000
010000
030000
060000
0C0000
0C0000
180000
380000
300000
700000
700000
700000
700000
F80000
FFC000
7FF000
7FF000
3FF000
003000
001000
071000
0FE000
07C000
ENDCHAR
STARTCHAR 03B7
ENCODING 951
SWIDTH 540 0
DWIDTH 18 0
BBX 16 22 1 -7
BITMAP
1E0E
3E3F
5E7F
9E5F
1E9E
1F1E
3E1E
3E3C
3C3C
7C3C
787C
7878
7878
F0F8
F0F0
00F0
00F0
01E0
01E0
01E0
01E0
01E0
ENDCHAR
STARTCHAR 03B8
ENCODING 952
SWIDTH 510 0
DWIDTH 17 0
BBX 16 23 1 0
BITMAP
007C
00C6
0387
0707
0707
0F07
1E07
1E0F
3E0F
3C0F
3C0F
7FFE
781E
781E
783C
F03C
F038
F078
F070
70E0
70C0
3180
1E00
ENDCHAR
STARTCHAR 03B9
ENCODING 953
SWIDTH 270 0
DWIDTH 9 0
BBX 7 15 1 0
BITMAP
0E
7E
3E
3C
3C
3C
3C
78
78
78
F0
F2
F4
F8
F0
ENDCHAR
STARTCHAR 03BA
ENCODING 954
SWIDTH 510 0
DWIDTH 17 0
BBX 17 15 1 0
BITMAP
0F0300
7E0780
1E1F80
1E3380
1E6000
3CC000
3DE000
3FE000
7DE000
79E000
79F000
F8F200
F0F400
F0F800
F07000
ENDCHAR
STARTCHAR 03BB
ENCODING 955
SWIDTH 450 0
DWIDTH 15 0
BBX 15 23 -1 0
BITMAP
00E0
01F0
03F0
0230
0210
0010
0010
0010
0030
0020
0060
00E0
01E0
01E0
03E0
07E0
0FA0
1FA0
1F22
3E22
7C3E
F83C
F818
ENDCHAR
STARTCHAR 03BC
ENCODING 956
SWIDTH 540 0
DWIDTH 18 0
BBX 19 22 -2 -7
BITMAP
03E1E0
03C1E0
03C3C0
03C3C0
07C3C0
0783C0
078780
0F8780
0F0F80
0F1F00
0F3F00
1F6F20
1FCF40
1F8F80
370F00
300000
700000
700000
700000
F00000
F00000
E00000
ENDCHAR
STARTCHAR 03BD
ENCODING 957
SWIDTH 450 0
DWIDTH 15 0
BBX 14 15 1 0
BITMAP
3838
FC38
3C3C
3C38
3C18
3E18
1E10
1E20
1E60
1E40
1E80
1F00
1E00
1800
1000
ENDCHAR
STARTCHAR 03BE
ENCODING 958
SWIDTH 450 0
DWIDTH 15 0
BBX 16 29 1 -5
BITMAP
0180
0307
021F
037E
00F8
0100
0100
0200
027C
01FC
06F8
1800
3000
6000
6000
E000
C000
E000
E000
F000
FFC0
FFE0
7FE0
3FE0
0060
0020
0E20
0FC0
0F80
ENDCHAR
STARTCHAR 03BF
ENCODING 959
SWIDTH 510 0
DWIDTH 17 0
BBX 15 15 1 0
BITMAP
01F0
0738
0E1C
1C3C
3C3E
783C
783C
F83C
F07C
F078
F0F0
F0F0
F1E0
7180
3E00
ENDCHAR
STARTCHAR 03C0
ENCODING 960
SWIDTH 540 0
DWIDTH 18 0
BBX 19 15 0 0
BITMAP
0FFFE0
3FFFC0
3FFFC0
430E00
431C00
071C00
063C00
0E3800
0E3800
1E7800
3C7800
7C7900
F87F00
787E00
703C00
ENDCHAR
STARTCHAR 03C1
ENCODING 961
SWIDTH 510 0
DWIDTH 17 0
BBX 18 22 -2 -7
BITMAP
007E00
01C700
03C380
038380
0783C0
0787C0
0F07C0
0F0780
0F0780
1F0F80
1E0F00
1E1E00
1E1E00
3E3C00
3FF000
3C0000
780000
780000
780000
F80000
F00000
F00000
ENDCHAR
STARTCHAR 03C2
ENCODING 962
SWIDTH 450 0
DWIDTH 15 0
BBX 14 20 1 -5
BITMAP
03F0
0FFC
183C
300C
6000
4000
4000
C000
C000
C000
E000
FF80
7FE0
7FE0
1FE0
0060
0020
0E40
0F80
0F00
ENDCHAR
STARTCHAR 03C3
ENCODING 963
SWIDTH 540 0
DWIDTH 18 0
BBX 17 15 1 0
BITMAP
01FF80
07FF80
1FFF80
3F3000
7C3000
783800
F83C00
F03C00
F03C00
F07C00
E07800
E0F800
70F000
31E000
1F8000
ENDCHAR
STARTCHAR 03C4
ENCODING 964
SWIDTH 450 0
DWIDTH 15 0
BBX 14 15 1 0
BITMAP
1FFC
7FFC
7FFC
8780
8700
0700
0F00
0F00
0E00
1E00
1E00
1E40
1FC0
1F80
0F00
ENDCHAR
STARTCHAR 03C5
ENCODING 965
SWIDTH 480 0
DWIDTH 16 0
BBX 14 15 1 0
BITMAP
1C60
3E30
5E18
9E1C
3E1C
3C1C
3C1C
7C1C
7818
7838
7830
7870
70E0
39C0
1F00
ENDCHAR
STARTCHAR 03C6
ENCODING 966
SWIDTH 570 0
DWIDTH 19 0
BBX 17 22 1 -7
BITMAP
039E00
0E3F00
1C6700
3C6780
78E780
78C780
F8C780
F1C780
F18F00
F18F00
F38E00
F39E00
733C00
377800
1FE000
060000
060000
0E0000
0C0000
0C0000
1C0000
1C0000
ENDCHAR
STARTCHAR 03C7
ENCODING 967
SWIDTH 450 0
DWIDTH 15 0
BBX 18 22 -2 -7
BITMAP
0703C0
0F8780
0F8F80
098F00
109E00
00BE00
00BC00
007800
00F800
00F000
01E000
03E000
03C000
07C000
0FC000
0F4000
1E4000
3E6200
3C6200
783E00
F83C00
F01800
ENDCHAR
STARTCHAR 03C8
ENCODING 968
SWIDTH 660 0
DWIDTH 22 0
BBX 21 22 2 -7
BITMAP
F07038
7870F0
3861E0
78E1E0
78E3C0
78C3C0
F8C7C0
F1C780
F1C780
F18F00
F38F00
E38E00
731E00
373800
0FE000
060000
060000
0E0000
0E0000
0C0000
1C0000
1C0000
ENDCHAR
STARTCHAR 03C9
ENCODING 969
SWIDTH 720 0
DWIDTH 24 0
BBX 21 15 1 0
BITMAP
03C040
0F0070
1E1C38
3C1C38
7C3C38
783C38
787838
F87878
F07078
F07078
F060F0
F040F0
F0C1E0
7123C0
3E1F00
ENDCHAR
STARTCHAR 03CA
ENCODING 970
SWIDTH 270 0
DWIDTH 9 0
BBX 11 21 1 0
BITMAP
30C0
79E0
79E0
30C0
0000
0000
0E00
7E00
3E00
3C00
3C00
3C00
3C00
7800
7800
7800
F000
F200
F400
F800
F000
ENDCHAR
STARTCHAR 03CB
ENCODING 971
SWIDTH 480 0
DWIDTH 16 0
BBX 15 21 1 0
BITMAP
071C
0FBE
0FBE
071C
0000
0000
1C60
3E30
5E18
9E1C
3E1C
3C1C
3C1C
7C1C
7818
7838
7830
7870
70E0
39C0
1F00
ENDCHAR
STARTCHAR 03CC
ENCODING 972
SWIDTH 510 0
DWIDTH 17 0
BBX 15 23 1 0
BITMAP
003E
003C
0078
0070
0060
00C0
0000
0000
01F0
0738
0E1C
1C3C
3C3E
783C
783C
F83C
F07C
F078
F0F0
F0F0
F1E0
7180
3E00
ENDCHAR
STARTCHAR 03CD
ENCODING 973
SWIDTH 480 0
DWIDTH 16 0
BBX 14 23 1 0
BITMAP
003C
007C
0078
0070
0060
00C0
0000
0000
1C60
3E30
5E18
9E1C
3E1C
3C1C
3C1C
7C1C
7818
7838
7830
7870
70E0
39C0
1F00
ENDCHAR
STARTCHAR 03CE
ENCODING 974
SWIDTH 720 0
DWIDTH 24 0
BBX 21 23 1 0
BITMAP
0003C0
000780
000780
000700
000E00
000C00
000000
000000
03C040
0F0070
1E1C38
3C1C38
7C3C38
783C38
787838
F87878
F07078
F07078
F060F0
F040F0
F0C1E0
7123C0
3E1F00
ENDCHAR
STARTCHAR 03CF
ENCODING 975
SWIDTH 690 0
DWIDTH 23 0
BBX 26 29 -1 -7
BITMAP
03FF7FC0
00FC3E00
00F81C00
00F81000
00F82000
01F04000
01F18000
01F20000
01E70000
03FF0000
03FF8000
03EF8000
07CFC000
07C7C000
07C7E000
0F83E000
0F83F000
0F81F000
1F01F800
1F00F800
3F807C00
FFE0FC00
0003F800
0017F000
001FC000
000F8000
000E0000
00060000
00020000
ENDCHAR
STARTCHAR 03D0
ENCODING 976
SWIDTH 510 0
DWIDTH 17 0
BBX 16 23 1 0
BITMAP
003C
00C2
0183
0202
060E
0DF8
1800
1000
3000
23F0
6638
7C3C
7C3C
F83C
F83C
F83C
F07C
F07C
F078
F0F0
70E0
71C0
1F00
ENDCHAR
STARTCHAR 03D1
ENCODING 977
SWIDTH 510 0
DWIDTH 17 0
BBX 18 23 0 0
BITMAP
007E00
01E700
03C780
038780
078780
0787C0
070780
070780
070780
070F80
030F80
038F00
00FFC0
007FC0
F01EC0
781E80
783E00
783C00
783C00
787800
787000
78E000
1F8000
ENDCHAR
STARTCHAR 03D2
ENCODING 978
SWIDTH 720 0
DWIDTH 24 0
BBX 24 23 4 0
BITMAP
00001E
F0007F
3E00C7
0F018F
0F830E
07C60C
07CC00
03C800
03D800
03D000
03E000
03E000
03E000
07C000
07C000
07C000
0F8000
0F8000
0F8000
1F0000
1F0000
3F0000
FFE000
ENDCHAR
STARTCHAR 03D3
ENCODING 979
SWIDTH 840 0
DWIDTH 28 0
BBX 32 23 0 0
BITMAP
3C00001E
7DF0007E
783E00CF
701F018F
E00F830E
C007860C
0007CC00
0007C800
0003D000
0003D000
0003E000
0003E000
0007C000
0007C000
0007C000
00078000
000F8000
000F8000
000F8000
001F0000
001F0000
003F0000
01FFC000
ENDCHAR
STARTCHAR 03D4
ENCODING 980
SWIDTH 720 0
DWIDTH 24 0
BBX 24 29 4 0
BITMAP
01C700
01E780
01E780
01C700
000000
000000
00001E
F0007F
3E00C7
0F018F
0F830E
07C60C
07CC00
03C800
03D800
03D000
03E000
03E000
03E000
07C000
07C000
07C000
0F8000
0F8000
0F8000
1F0000
1F0000
3F0000
FFE000
ENDCHAR
STARTCHAR 03D5
ENCODING 981
SWIDTH 570 0
DWIDTH 19 0
BBX 17 30 1 -7
BITMAP
001C00
001C00
001800
001800
003800
003800
003000
003000
01FC00
077E00
0E6700
1CE780
38E780
78C780
70C780
F1C780
F18700
F18F00
F38E00
F39C00
F33800
7B7000
1FC000
060000
060000
0E0000
0E0000
0C0000
0C0000
1C0000
ENDCHAR
STARTCHAR 03D6
ENCODING 982
SWIDTH 750 0
DWIDTH 25 0
BBX 24 15 1 0
BITMAP
3FFFFF
7FFFFF
FFFFFF
BE001C
BC001C
3C181C
78383C
78383C
78383C
78307C
782078
7860F0
7891F0
3F1FE0
1E0F80
ENDCHAR
STARTCHAR 03D7
ENCODING 983
SWIDTH 570 0
DWIDTH 19 0
BBX 19 22 0 -7
BITMAP
0F01C0
1F03E0
3F07E0
2307C0
411F80
013F00
03FE00
03F800
0FF000
1FD000
3F3080
7C3180
FC3F80
F83F00
E01F00
000700
000700
000E00
000E00
00CC00
01D800
00F000
ENDCHAR
STARTCHAR 03D8
ENCODING 984
SWIDTH 720 0
DWIDTH 24 0
BBX 22 30 2 -7
BITMAP
001F80
0071E0
01C0F0
0380F0
0F80F8
0F0078
1F00FC
3E00FC
3E00FC
7C00FC
7C00F8
FC00F8
FC01F8
F801F0
F801F0
F803E0
F803E0
F807C0
F80780
780F00
781E00
3C3C00
0FF000
07C000
0F8000
0F8000
0F8000
1F8000
1F8000
FFE000
ENDCHAR
STARTCHAR 03D9
ENCODING 985
SWIDTH 510 0
DWIDTH 17 0
BBX 16 22 0 -7
BITMAP
00F8
039C
070E
0E1E
1E1F
3C1E
3C1E
7C1E
783E
783C
787C
7878
78F0
38E0
1F80
0F00
1E00
1E00
1E00
3C00
3C00
FF00
ENDCHAR
STARTCHAR 03DA
ENCODING 986
SWIDTH 660 0
DWIDTH 22 0
BBX 20 23 3 0
BITMAP
003F80
01F040
07C020
0F8010
1F0000
3E0000
7C0000
7C0000
FC0000
F80000
F80000
F80000
F80000
F80000
F80000
F80000
7C0000
7E0800
3FF000
0FF000
01F000
03F000
1FFC00
ENDCHAR
STARTCHAR 03DB
ENCODING 987
SWIDTH 450 0
DWIDTH 15 0
BBX 16 23 1 -7
BITMAP
0001
01FE
07FE
0FFC
1FF8
3800
7000
6000
C000
C000
C000
C000
FF80
FFC0
FFC0
3FC0
00C0
00C0
0080
0080
7100
7E00
7800
ENDCHAR
STARTCHAR 03DC
ENCODING 988
SWIDTH 660 0
DWIDTH 22 0
BBX 24 22 0 0
BITMAP
03FFFF
00F80E
00F806
00F806
00F002
00F002
01F000
01F000
01E000
03FFC0
03E180
03C080
07C080
07C100
07C000
0F8000
0F8000
0F8000
0F8000
1F0000
3F8000
FFE000
ENDCHAR
STARTCHAR 03DD
ENCODING 989
SWIDTH 450 0
DWIDTH 15 0
BBX 18 22 -2 -7
BITMAP
0FFFC0
07C1C0
0780C0
078080
078080
0F0000
0F0000
0F0800
0F0800
1E1800
1FF000
1E3000
3E1000
3C2000
3C0000
3C0000
780000
780000
780000
780000
F00000
F00000
ENDCHAR
STARTCHAR 03DE
ENCODING 990
SWIDTH 510 0
DWIDTH 17 0
BBX 17 23 1 0
BITMAP
1E0000
020000
020000
020000
020080
040380
040F00
0C1F00
087F00
19FE00
17FE00
1FFC00
3FE400
3FC800
7F0800
7C1800
701000
E01000
802000
002000
002000
002000
003C00
ENDCHAR
STARTCHAR 03DF
ENCODING 991
SWIDTH 450 0
DWIDTH 15 0
BBX 16 22 0 0
BITMAP
00C0
0080
0180
0300
0200
0600
0C00
0800
1800
3FFF
3FFE
7FFE
FFFC
0008
0018
0030
0020
0060
00C0
0080
0180
0300
ENDCHAR
STARTCHAR 03E0
ENCODING 992
SWIDTH 720 0
DWIDTH 24 0
BBX 21 30 2 -7
BITMAP
01FC00
0FFF00
1FFF80
673FC0
870FE0
0607F0
0603F0
0E01F8
0E03F8
0C0EF8
0C18F8
1C38F8
0070F8
00F078
00F078
00F078
00E078
01E0F8
01E0F0
01C0F0
03C0E0
03C0E0
03C1C0
0001C0
000380
000380
000300
000600
000C00
000800
ENDCHAR
STARTCHAR 03E1
ENCODING 993
SWIDTH 510 0
DWIDTH 17 0
BBX 14 25 3 -7
BITMAP
F800
1F00
07C0
01E0
01F0
00F0
01F8
0778
1C78
207C
003C
007C
01BC
0E3C
183C
0038
0038
0038
0030
0030
0060
0040
0080
0100
0200
ENDCHAR
STARTCHAR 03E2
ENCODING 994
SWIDTH 840 0
DWIDTH 28 0
BBX 31 29 -1 -7
BITMAP
03FDFFFE
01F8F8FC
01F0F8F8
01F0F8F8
01F1F0F8
03E1F0F0
03E1F1F0
03E3E1F0
07C3E1E0
07C3E3E0
07C3C3E0
0787C3E0
0F87C7C0
0F8F87C0
0F8F8FC0
1F1F8F80
1F2F9F80
1F3F2F80
1E5F4F00
3F9FDF00
1F1F9F00
1E0E1F00
00003E00
00003E00
00003C00
1F007C00
78C07800
F030F000
600FC000
ENDCHAR
STARTCHAR 03E3
ENCODING 995
SWIDTH 780 0
DWIDTH 26 0
BBX 25 22 -1 -7
BITMAP
07078780
0F878780
17878780
27878F00
0F0F0F00
0F0F0F00
0F1F1F00
1F1E1E00
1E3E3E00
1E5E5E00
3E5EBC00
3CBCBC00
3F3F3C00
3E3E7C00
1C3C7800
00007800
00007800
3E00F000
7F80F000
F9C0E000
E071C000
C01F0000
ENDCHAR
STARTCHAR 03E4
ENCODING 996
SWIDTH 690 0
DWIDTH 23 0
BBX 23 23 3 0
BITMAP
01E000
0677FE
1C33F8
3C01F0
3801F0
7803E0
7803E0
F803E0
F007C0
F807C0
F80FC0
7C3F80
7FEF80
1F8F80
000F00
001F00
001F00
001F00
003E00
003E00
003E00
007E00
01FF80
ENDCHAR
STARTCHAR 03E5
ENCODING 997
SWIDTH 540 0
DWIDTH 18 0
BBX 18 23 1 0
BITMAP
01E000
0333C0
0E33C0
1C37C0
3C0780
380780
780F80
700F00
F01F00
F03F00
F06E00
F0DE00
F99E00
FF9E00
7F3C00
3C3C00
003C00
007800
007900
007A00
007A00
007C00
007000
ENDCHAR
STARTCHAR 03E6
ENCODING 998
SWIDTH 750 0
DWIDTH 25 0
BBX 26 29 -3 -7
BITMAP
00FFC000
003F0000
003E0000
003E0000
003E0000
007C0000
007C0000
007C0000
00787E00
00FBFF00
00FE0F80
00F807C0
01F003C0
01F003C0
01F003C0
03E003C0
03E007C0
03E007C0
03E007C0
07C00780
0FE00780
3FF80F00
00000F00
00001E00
00001C00
1F003800
78C07000
F030E000
E01F8000
ENDCHAR
STARTCHAR 03E7
ENCODING 999
SWIDTH 450 0
DWIDTH 15 0
BBX 17 15 -2 0
BITMAP
00FC80
03FE80
063F00
0C1F00
080F00
0C3F00
07CF00
000F00
000F00
000E00
000C00
181C00
3C3800
4FE000
87C000
ENDCHAR
STARTCHAR 03E8
ENCODING 1000
SWIDTH 570 0
DWIDTH 19 0
BBX 20 23 0 0
BITMAP
003F80
00E3E0
01C1E0
0381F0
0781F0
0781E0
0701E0
0003C0
000700
000E00
003800
00E000
078000
0E0300
3C0380
7C03C0
7803C0
F803C0
F80380
F80780
780F00
7C1C00
1FE000
ENDCHAR
STARTCHAR 03E9
ENCODING 1001
SWIDTH 570 0
DWIDTH 19 0
BBX 20 23 0 0
BITMAP
003F80
00E3E0
01C1E0
0381F0
0781F0
0781E0
0701E0
0003C0
000780
000E00
003800
00E000
038000
0F0000
1E0000
3C0000
780000
F80000
F80100
F80200
F80400
7C1800
1FE000
ENDCHAR
STARTCHAR 03EA
ENCODING 1002
SWIDTH 690 0
DWIDTH 23 0
BBX 25 23 0 0
BITMAP
03F00F00
07781380
0F3C2380
0E3C4780
0E3E8700
003F8000
001F0000
001E0000
001F0000
001F0000
001F0000
003F0000
006F8000
00CF8000
018F8000
03878000
0307C000
0607C000
0C07C000
1FFFC000
3FFFE000
7FFFE000
FFFFE000
ENDCHAR
STARTCHAR 03EB
ENCODING 1003
SWIDTH 570 0
DWIDTH 19 0
BBX 19 15 1 0
BITMAP
3E03C0
7784E0
F3C9E0
F3D1C0
63E1C0
01C000
01E000
01E000
01E000
03E000
04F000
08F000
10F000
20F000
7FF800
ENDCHAR
STARTCHAR 03EC
ENCODING 1004
SWIDTH 750 0
DWIDTH 25 0
BBX 24 24 2 0
BITMAP
000001
0007FE
003FFC
00FFF0
03E000
078000
0F0000
1F3F80
3EC1E0
7F0078
7C007C
FC007C
F8007C
F8007C
F8007C
F8007C
F8007C
F800F8
F800F0
F801F0
7803E0
7C0780
1E0E00
07F800
ENDCHAR
STARTCHAR 03ED
ENCODING 1005
SWIDTH 540 0
DWIDTH 18 0
BBX 17 16 1 0
BITMAP
000080
00FF00
03FF00
0FFC00
1C0000
380000
7BF000
703C00
F01C00
F01C00
F01C00
F03C00
F03C00
F07800
78E000
1F8000
ENDCHAR
STARTCHAR 03EE
ENCODING 1006
SWIDTH 450 0
DWIDTH 15 0
BBX 18 22 0 0
BITMAP
03FF00
00FC00
00FC00
00F800
00F800
1FFFC0
3FFFC0
71F0C0
61F0C0
61E180
23E300
13E400
03E000
07C000
07C000
07C000
0F8000
0F8000
0F8000
1F0000
3F8000
FFE000
ENDCHAR
STARTCHAR 03EF
ENCODING 1007
SWIDTH 390 0
DWIDTH 13 0
BBX 15 23 0 0
BITMAP
0060
00F8
00FC
00F0
01F0
01E0
01E0
01E0
3FFE
33C0
63C0
43C0
0780
0780
0780
0F00
0F00
0F00
1F00
1E00
FE00
7E00
0C00
ENDCHAR
STARTCHAR 03F0
ENCODING 1008
SWIDTH 570 0
DWIDTH 19 0
BBX 19 15 0 0
BITMAP
0F01C0
1F03E0
3F07E0
2307C0
411F80
013F00
03FE00
03F800
0FF000
1FD000
3F3080
7C3180
FC3F00
F83F00
E01C00
ENDCHAR
STARTCHAR 03F1
ENCODING 1009
SWIDTH 540 0
DWIDTH 18 0
BBX 17 22 0 -7
BITMAP
00FC00
038700
070700
0E0780
1E0780
3C0780
3C0780
780780
780F00
780F00
F81E00
B81C00
B83800
9C7000
8FC000
C00000
C00000
600000
7FE000
3FF000
1FF000
001000
ENDCHAR
STARTCHAR 03F2
ENCODING 1010
SWIDTH 450 0
DWIDTH 15 0
BBX 13 15 1 0
BITMAP
01F0
0708
0E00
1C00
3800
7800
7800
F000
F000
F000
F000
F010
F860
7FC0
3F00
ENDCHAR
STARTCHAR 03F3
ENCODING 1011
SWIDTH 270 0
DWIDTH 9 0
BBX 15 30 -5 -7
BITMAP
001C
003E
003E
001C
0000
0000
0000
0000
003C
01F8
0078
0078
0078
00F0
00F0
00F0
01E0
01E0
01E0
01E0
03C0
03C0
03C0
03C0
0780
0780
E700
EF00
CE00
7800
ENDCHAR
STARTCHAR 03F4
ENCODING 1012
SWIDTH 720 0
DWIDTH 24 0
BBX 22 23 2 0
BITMAP
001F80
0071E0
01C0F0
0380F8
0F80F8
0F0078
1F00FC
3E00FC
3E00FC
7E00FC
7C00F8
FFFFF8
FC01F8
F801F0
F801F0
F803E0
F803E0
F807C0
F80780
780F00
781E00
3C3800
0FE000
ENDCHAR
STARTCHAR 03F5
ENCODING 1013
SWIDTH 420 0
DWIDTH 14 0
BBX 15 15 1 0
BITMAP
00FE
0780
0F00
1E00
3C00
7800
7800
FFC0
F000
F000
F000
F000
F800
7C00
1FE0
ENDCHAR
STARTCHAR 03F6
ENCODING 1014
SWIDTH 420 0
DWIDTH 14 0
BBX 15 15 -2 0
BITMAP
0FF0
007C
003E
001E
001E
001E
001E
07FE
003C
003C
0078
00F8
01E0
03C0
FE00
ENDCHAR
STARTCHAR 03F7
ENCODING 1015
SWIDTH 600 0
DWIDTH 20 0
BBX 21 22 -1 0
BITMAP
03FF00
00FC00
00F800
00F800
00F000
01FF80
01F3E0
01F1F0
01E0F8
03E0F8
03E0F8
03C0F8
07C1F0
07C1F0
07C3E0
0787C0
0FFE00
0F8000
0F0000
1F0000
3F8000
FFC000
ENDCHAR
STARTCHAR 03F8
ENCODING 1016
SWIDTH 510 0
DWIDTH 17 0
BBX 20 30 -4 -7
BITMAP
001C00
00FC00
003C00
007800
007800
007800
007000
00F000
00F3C0
00FDE0
01F1E0
01E1F0
01E1F0
01C1F0
03C1E0
03C1E0
03C1E0
0783C0
0783C0
078780
078F00
0F8E00
0FF800
0F0000
1E0000
1E0000
1E0000
3E0000
3E0000
FF8000
ENDCHAR
STARTCHAR 03F9
ENCODING 1017
SWIDTH 660 0
DWIDTH 22 0
BBX 21 23 2 0
BITMAP
001FC0
007830
01E008
07C008
0F8000
1F0000
1F0000
3E0000
7E0000
7C0000
7C0000
FC0000
FC0000
F80000
F80000
F80000
F80000
7C0040
7C0080
3E0100
3F0600
0FFC00
03F000
ENDCHAR
STARTCHAR 03FA
ENCODING 1018
SWIDTH 870 0
DWIDTH 29 0
BBX 33 22 -1 0
BITMAP
03F8007F80
00F800FE00
00FC01FC00
00FC03F800
00BE06F800
01BE04F800
011F08F800
011F11F000
010FA1F000
030FC1F000
020783E000
020703E000
060203E000
040007C000
040007C000
0C0007C000
0800078000
08000F8000
18000F8000
18001F8000
38001F8000
FE00FFE000
ENDCHAR
STARTCHAR 03FB
ENCODING 1019
SWIDTH 660 0
DWIDTH 22 0
BBX 25 22 -3 -7
BITMAP
03F01F80
00F03E00
00F03E00
01787C00
0178BC00
0178BC00
01797C00
027A7800
027A7800
027C7800
0478F000
0438F000
0430F000
0821F000
0827F800
08000000
08000000
10000000
10000000
10000000
30000000
F8000000
ENDCHAR
STARTCHAR 03FC
ENCODING 1020
SWIDTH 510 0
DWIDTH 17 0
BBX 20 22 -4 -7
BITMAP
001F80
0079C0
00F0E0
00E0E0
01E0F0
01E1F0
03C1F0
03C1E0
03C1E0
07C3E0
0783C0
078780
078780
0F8E00
0FFC00
0F0000
1E0000
1E0000
FFF000
3E0000
3C0000
3C0000
ENDCHAR
STARTCHAR 03FD
ENCODING 1021
SWIDTH 660 0
DWIDTH 22 0
BBX 21 23 1 0
BITMAP
007F00
01FFC0
0307E0
0601F0
0801F0
0800F8
0000F8
0000F8
0000F8
0000F8
0000F8
0001F8
0001F8
0001F0
0003F0
0003E0
0003E0
0007C0
000F80
801F00
803C00
60F800
1FC000
ENDCHAR
STARTCHAR 03FE
ENCODING 1022
SWIDTH 660 0
DWIDTH 22 0
BBX 21 23 2 0
BITMAP
001FC0
007830
01E008
07C008
0F8000
1F0000
1F0000
3E0000
7E0000
7C0E00
7C1F00
FC1F00
FC1F00
F80E00
F80000
F80000
F80000
7C0040
7C0080
3E0100
3F0600
0FFC00
03F000
ENDCHAR
STARTCHAR 03FF
ENCODING 1023
SWIDTH 660 0
DWIDTH 22 0
BBX 21 23 1 0
BITMAP
007F00
01FFC0
0307E0
0601F0
0801F0
0800F8
0000F8
0000F8
0000F8
03C0F8
03C0F8
07E1F8
03E1F8
03C1F0
0003F0
0003E0
0003E0
0007C0
000F80
801F00
803C00
60F800
1FC000
ENDCHAR
STARTCHAR 0400
ENCODING 1024
SWIDTH 660 0
DWIDTH 22 0
BBX 23 31 -1 0
BITMAP
000780
000780
0003C0
0001C0
0000C0
000040
000000
000000
000000
03FFFE
00F81E
00F806
00F804
00F804
01F000
01F020
01F020
01E040
03E1C0
03FFC0
03E180
07C080
07C080
07C080
078000
0F8008
0F8010
0F8030
1F00E0
3F03E0
FFFFE0
ENDCHAR
STARTCHAR 0401
ENCODING 1025
SWIDTH 660 0
DWIDTH 22 0
BBX 23 29 -1 0
BITMAP
000E38
001E78
001E78
000E38
000000
000000
000000
03FFFE
00F81E
00F806
00F804
00F804
01F000
01F020
01F020
01E040
03E1C0
03FFC0
03E180
07C080
07C080
07C080
078000
0F8008
0F8010
0F8030
1F00E0
3F03E0
FFFFE0
ENDCHAR
ENDFONT
